<svg width="100" height="509" viewBox="0 0 100 509" fill="none" xmlns="http://www.w3.org/2000/svg">
<path d="M24.9009 213.419C25.8357 212.214 25.8211 210.811 25.0689 209.503C24.3167 208.195 23.0386 207.471 21.9577 206.419C21.3224 205.798 21.3443 205.462 22.2353 205.213C23.4257 204.885 24.8571 205.155 25.9818 205.615C27.2379 206.134 28.2311 207.106 29.5165 207.544C31.1378 208.092 32.7736 207.603 34.3949 207.281C37.7617 206.624 41.1284 205.959 44.4952 205.301C47.8619 204.643 51.2287 203.979 54.5954 203.321C57.4144 202.766 60.7227 201.743 63.5782 202.605C64.5714 202.904 65.6596 203.533 66.1709 204.468C66.7843 205.586 66.295 206.901 65.9007 208.012C65.3529 209.569 64.922 211.125 64.8343 212.784C64.7467 214.442 64.8562 215.97 65.0169 217.548C65.4113 221.311 65.7984 225.052 65.8714 228.838C65.9444 232.623 65.7765 236.452 65.4113 240.237L68.9752 240.456L68.8291 238.717C68.6831 236.927 65.3602 236.503 65.2653 238.498C64.7833 248.516 65.1119 258.549 65.6742 268.559C65.813 271.029 65.9663 273.492 66.127 275.962C66.2731 278.271 66.4921 280.66 65.9152 282.933C65.4989 284.562 64.5568 286.155 63.1181 287.076C62.8114 287.273 62.3805 287.573 62.008 287.609C61.7232 287.638 61.789 287.668 61.4311 287.405C60.5256 286.747 59.6418 286.053 58.7728 285.337C54.9678 282.202 51.5938 278.599 48.6945 274.61L46.5985 277.021C50.1697 278.994 54.1572 280.207 58.2104 280.602C59.0284 280.682 59.671 280.426 60.08 279.71C61.694 276.904 61.7305 273.645 61.7159 270.496C61.7013 266.864 61.6794 263.232 61.6575 259.593C61.621 252.33 61.5844 245.059 61.5479 237.796C61.5114 230.533 61.475 223.262 61.4311 215.999C61.4238 214.179 61.4092 212.367 61.4019 210.548C61.3946 209.123 61.5406 207.566 60.9199 206.236C59.284 202.729 54.8291 204.373 52.0101 205.162C45.2109 207.069 38.3314 210.35 31.1013 209.722L32.6787 211.688L32.6933 211.074C32.7153 210.109 32.0872 209.284 31.1158 209.108C30.2906 208.955 29.1659 209.459 29.1221 210.423C28.6036 222.794 28.0777 235.166 27.5592 247.537C27.4132 251.051 27.2598 254.573 27.1137 258.088C27.0261 260.156 30.2468 260.938 30.685 258.739C30.8457 257.942 30.999 257.153 31.1597 256.356L27.5884 255.706C27.1794 261.954 22.6588 267.368 18.7225 271.899C16.8164 274.091 14.7277 276.13 12.2008 277.591C10.9446 278.314 9.60084 278.833 8.19134 279.162C6.48971 279.557 4.73699 279.71 3.06457 280.251L4.46676 283.429C25.2441 275.428 26.734 249.349 26.4346 230.423C26.3323 224.037 25.9599 217.658 25.5582 211.286C25.4267 209.196 21.8628 209.232 22.0016 211.498C22.6734 222.363 23.3161 233.266 22.4982 244.139C21.7752 253.697 20.1758 263.905 14.158 271.694C11.2587 275.45 7.50486 278.534 3.05726 280.244C0.873631 281.084 2.43649 284.072 4.45945 283.422C7.06666 282.582 9.81263 282.531 12.3468 281.413C14.7203 280.368 16.7871 278.884 18.686 277.138C20.4752 275.487 22.0527 273.623 23.5571 271.723C25.2734 269.56 26.9312 267.346 28.3115 264.957C29.8378 262.326 30.9406 259.403 31.1451 256.349C31.2838 254.267 28.012 253.514 27.5738 255.699C27.4132 256.495 27.2598 257.284 27.0991 258.081L30.6704 258.731C31.1889 246.36 31.7147 233.989 32.2332 221.618C32.3793 218.103 32.5327 214.581 32.6787 211.066L29.1075 210.416L29.0929 211.03C29.071 211.929 29.6844 212.915 30.6704 212.996C36.9876 213.544 42.9615 211.629 48.899 209.707C50.3377 209.24 51.7837 208.787 53.237 208.37C53.96 208.166 54.6903 207.968 55.4206 207.793C55.9611 207.661 57.1222 207.179 57.67 207.362C57.4947 207.303 57.67 207.479 57.7211 207.72C57.8599 208.363 57.8014 209.057 57.8087 209.707C57.816 211.403 57.8234 213.098 57.838 214.793C57.911 228.721 57.984 242.648 58.0571 256.576C58.079 260.448 58.0936 264.328 58.1155 268.201C58.1301 271.548 58.4587 275.187 56.7279 278.205L58.5975 277.313C54.8218 276.948 51.2359 275.859 47.913 274.025C46.3429 273.156 44.8019 275.041 45.817 276.436C48.636 280.324 51.9297 283.868 55.574 286.995C56.465 287.763 57.3779 288.501 58.3127 289.209C59.3497 289.999 60.3868 290.875 61.7451 290.97C63.9799 291.131 66.2512 289.48 67.5292 287.77C70.6331 283.605 69.8078 278.234 69.501 273.389C69.1724 268.092 68.8803 262.801 68.7123 257.496C68.5225 251.38 68.5152 245.257 68.8073 239.141L65.2434 238.921C65.2945 239.499 65.3383 240.083 65.3894 240.661C65.5354 242.473 68.7634 242.86 68.9533 240.88C69.6544 233.595 69.5668 226.258 68.727 218.995C68.5371 217.373 68.318 215.728 68.3399 214.092C68.3618 212.455 68.705 210.92 69.2455 209.357C69.7859 207.793 70.2605 206.185 69.837 204.548C69.4572 203.08 68.5224 201.823 67.3101 200.917C64.6006 198.893 61.1609 198.739 57.9329 199.243C54.3106 199.813 50.7174 200.625 47.117 201.333C43.5166 202.042 40.0257 202.722 36.4837 203.423C34.7382 203.767 32.9708 204.22 31.2108 204.446C29.9181 204.607 28.8227 203.357 27.7126 202.831C25.0616 201.574 19.7449 200.734 18.1382 204.081C17.3057 205.82 18.2696 207.515 19.5185 208.721C19.7887 208.984 22.3375 210.738 21.9943 211.183C20.6505 212.922 23.5644 215.085 24.8498 213.427L24.9009 213.419Z" fill="white"/>
<path d="M26.9014 227.976C30.2832 227.878 33.8989 227.703 36.6014 225.889C38.0842 224.894 39.2821 223.417 41.0936 223.045C42.4449 222.765 43.84 223.178 45.1474 223.585C47.3168 224.257 49.7272 225.126 50.6037 227.017C50.8739 227.598 50.9616 228.285 50.6329 228.838C50.2604 229.461 49.4642 229.763 48.7119 229.98C41.8021 231.983 34.2056 230.393 27.0621 231.577" fill="white"/>
<path d="M25.3195 228.958C28.4917 228.86 31.6928 228.644 34.6194 227.332C36.1585 226.641 37.452 225.677 38.7455 224.63C38.9406 224.47 39.1429 224.309 39.3524 224.156C39.7715 223.849 39.3958 224.058 39.6704 224.009C40.617 223.842 41.5998 224.1 42.503 224.365C43.8904 224.77 45.3139 225.21 46.5568 225.943C47.106 226.271 47.6118 226.675 47.9948 227.185C48.161 227.401 48.3127 227.639 48.4283 227.89C48.5006 228.051 48.5729 228.232 48.609 228.407C48.674 228.707 48.5367 228.937 48.5729 229.195L48.5295 229.342C49.2304 228.986 49.4039 228.874 49.0498 229.007C48.8764 229.042 48.7102 229.112 48.544 229.16C48.1827 229.258 47.8214 229.342 47.4528 229.426C46.5351 229.621 45.6102 229.761 44.678 229.858C42.9799 230.033 41.2674 230.075 39.5548 230.089C35.566 230.11 31.5772 229.984 27.6246 230.619C26.8442 230.745 25.9265 231.275 25.4062 231.848C24.9654 232.336 25.1316 232.622 25.8036 232.511C29.7635 231.876 33.8029 232.106 37.7989 232.057C41.5709 232.008 46.0004 231.89 49.3894 230.082C50.9213 229.265 52.381 227.96 51.5717 226.152C51.0008 224.875 49.664 224.051 48.4067 223.493C46.8386 222.802 45.0393 222.173 43.3268 222.02C41.3468 221.838 39.4609 222.69 37.8928 223.793C36.5199 224.756 35.4865 225.908 33.8101 226.354C31.8518 226.878 29.7924 226.927 27.7764 226.983C26.9815 227.011 26.1216 227.513 25.529 228.002C25.2761 228.211 24.5535 228.979 25.3484 228.958H25.3195Z" fill="white"/>
<path d="M23.788 211.786C24.8063 210.658 23.6108 208.974 22.3711 208.053C21.1314 207.133 19.6039 205.946 20.0024 204.513C20.3344 203.304 21.8915 202.799 23.2198 202.769C25.0572 202.732 26.902 203.244 28.4148 204.216C29.1897 204.714 29.9202 205.345 30.8427 205.5C31.4478 205.604 32.075 205.486 32.6801 205.367C40.6794 203.786 48.6786 202.213 56.6778 200.632C59.0687 200.157 61.5482 199.689 63.9391 200.142C66.3301 200.595 68.6472 202.242 68.994 204.513C69.2597 206.25 68.3594 207.927 67.8723 209.619C66.9573 212.781 67.4739 216.121 67.8355 219.379C68.6177 226.392 68.6619 233.472 67.9756 240.493L67.8281 238.726C67.2082 251.44 67.9166 264.175 68.7283 276.88C68.8833 279.322 69.0383 281.816 68.3963 284.191C67.7543 286.565 66.1677 288.844 63.7547 289.779C63.2529 289.972 62.6846 290.106 62.1607 289.965C61.7917 289.868 61.4818 289.645 61.1866 289.423C56.0285 285.638 51.5123 281.088 47.8595 275.997C51.2761 277.919 55.1577 279.122 59.1278 279.485C60.6479 276.932 60.6775 273.852 60.6627 270.928C60.5594 250.015 60.4487 229.108 60.338 208.194C60.338 207.066 60.1683 205.701 59.0761 205.233C58.4858 204.981 57.7995 205.085 57.1649 205.211C48.4572 206.948 40.1849 211.66 31.3223 210.822L31.3371 210.198C30.6582 226.34 29.9866 242.474 29.3077 258.616L29.7874 256.197C29.4996 261.57 26.1494 266.327 22.7475 270.661C19.2349 275.144 15.1467 279.767 9.41293 281.229C7.5976 281.69 5.67895 281.808 3.91528 282.409C10.4977 279.908 15.5968 274.676 18.7774 268.732C21.9579 262.787 23.3821 256.152 24.1643 249.547C25.6918 236.715 24.9391 223.75 24.1422 210.866" fill="white"/>
<path d="M27.7843 246.629C32.2579 244.535 37.9852 245.896 42.5552 243.978C44.3802 243.21 46.1385 241.906 48.149 242.145C50.1818 242.385 51.5246 244.14 52.2442 245.839C52.7932 247.122 53.0974 248.687 52.1478 249.773C51.3021 250.746 49.7812 250.971 48.4013 251.105C41.2643 251.789 34.0607 251.881 26.9015 251.38" fill="white"/>
<path d="M29.0363 246.908C31.9304 245.514 35.2497 245.802 38.3601 245.423C40.0981 245.211 41.836 244.885 43.477 244.233C44.2378 243.93 44.9613 243.536 45.6774 243.149C45.9907 242.983 46.3114 242.808 46.6322 242.664C46.759 242.604 47.0648 242.528 47.1916 242.429C47.4154 242.255 47.4228 242.422 47.1468 242.369C48.4969 242.626 49.5337 244.074 50.108 245.233C50.7197 246.453 51.3462 248.234 50.6824 249.553C49.9663 250.985 48.2657 250.886 46.9081 251.008C44.939 251.182 42.9698 251.318 41.0006 251.394C36.5625 251.561 32.1244 251.478 27.7012 251.152C26.9702 251.099 25.7768 251.076 25.1801 251.584C24.5833 252.091 25.5157 252.266 25.911 252.296C30.6922 252.652 35.4959 252.751 40.292 252.561C42.7759 252.463 45.2597 252.304 47.7435 252.069C49.6307 251.887 51.8833 251.75 53.4422 250.515C56.2692 248.287 53.6884 243.271 51.1971 241.876C49.3398 240.838 46.9007 241.058 44.9539 241.702C43.0071 242.346 41.4929 243.581 39.561 244.051C37.4799 244.551 35.2944 244.506 33.1686 244.703C30.834 244.923 28.462 245.317 26.3287 246.34C25.732 246.628 25.7246 246.976 26.3959 247.135C27.1567 247.325 28.3054 247.241 29.0214 246.893L29.0363 246.908Z" fill="white"/>
<path d="M30.5774 434.198C31.679 441.908 32.2742 449.685 32.3427 457.477C32.3974 463.488 32.1237 469.587 30.3516 475.332C28.5726 481.076 25.1446 486.5 20.0129 489.666C18.2476 490.751 16.0376 491.986 16.0444 494.053C22.3188 490.56 27.991 485.982 32.7122 480.578C34.3543 478.702 35.9006 476.696 36.8585 474.397C37.9465 471.791 38.2339 468.925 38.4323 466.108C38.9797 458.166 38.8634 450.184 38.1039 442.262C37.7755 438.872 37.2623 435.31 35.1685 432.622L37.2144 421.242C37.7275 422.374 37.5154 423.732 36.9338 424.824C36.3522 425.915 35.4285 426.796 34.4912 427.614C30.769 430.862 26.5404 433.489 22.3393 436.088C20.9298 436.961 19.5135 437.841 18.104 438.715C20.9709 438.142 23.8583 437.562 26.5952 436.518C29.9068 435.256 32.9516 433.332 36.3317 432.267C38.5212 431.578 40.8407 431.258 42.9139 430.275C43.1945 430.139 43.4887 429.982 43.6392 429.709C43.8514 429.327 43.7282 428.856 43.5777 428.447C42.4624 425.335 40.3345 422.593 37.5976 420.73" fill="white"/>
<path d="M50.0095 414.57C50.16 413.605 50.9336 412.797 51.8505 412.359C52.7675 411.921 53.8134 411.812 54.8378 411.791C59.7663 411.702 64.6948 413.721 68.0187 417.198L68.3841 417.102C68.993 417.485 68.8354 418.423 68.3411 418.929C67.8468 419.436 67.1376 419.703 66.5789 420.148C65.182 421.256 65.0172 423.214 64.9599 424.945C64.351 443.259 64.3223 461.587 64.8883 479.901C65.0315 484.623 65.2106 489.38 64.3724 494.034C63.5343 498.688 61.5786 503.293 58.0255 506.572C56.9653 479.162 56.428 451.739 56.4065 424.315C56.4065 422.379 56.3922 420.387 55.6329 418.594C54.8736 416.801 53.1758 415.227 51.1485 415.172" fill="white"/>
<path d="M25.18 453.911C32.5021 453.184 39.8242 452.456 47.1395 451.728C49.5072 451.49 51.8818 451.259 54.2632 451.168C59.8814 450.958 65.5406 451.56 71.1109 450.644C73.8208 450.196 76.4827 449.391 79.131 448.593C81.9778 447.733 84.8176 446.872 87.6644 446.011C88.1639 445.857 88.684 445.703 89.1972 445.794C89.9021 445.913 90.4906 446.459 91.0381 446.984C92.7488 448.614 94.4528 450.259 96.1498 451.917C96.6152 452.372 97.0942 452.855 97.2927 453.526C97.8196 455.346 95.9035 456.92 94.268 456.941C92.1056 456.969 90.1211 455.654 88.0339 454.975C85.981 454.303 83.8186 454.254 81.6903 454.226C70.1255 454.058 58.5607 454.324 47.0095 455.017L48.1454 452.988C37.4291 452.778 26.6992 453.373 16.0444 454.765C17.9537 458.844 22.0253 461.37 25.9669 460.916C27.7051 460.713 29.3679 459.992 31.0376 459.355C37.0938 457.06 47.9128 454.576 54.2769 454.667C48.9324 454.968 39.1399 456.619 33.7954 456.92" fill="white"/>
<path d="M28.9188 434.287C30.2641 443.749 30.9954 453.41 30.6366 462.974C30.3262 471.176 28.5669 479.881 22.613 485.956C21.1711 487.429 19.5015 488.475 17.7836 489.59C15.9346 490.787 14.3478 492.328 14.2582 494.647C14.203 496.071 16.0727 496.009 16.8937 495.548C21.0124 493.243 24.8414 490.491 28.3669 487.36C31.8923 484.229 35.2039 480.926 37.5013 476.977C40.0816 472.539 40.1919 467.24 40.4058 462.245C40.6197 457.249 40.5783 451.841 40.2471 446.653C39.9229 441.561 39.8332 435.726 36.6182 431.473L36.8735 432.588C37.5634 428.762 38.2533 424.936 38.9363 421.111L35.673 421.599C36.4112 423.416 34.9417 425.005 33.6861 426.147C32.0855 427.599 30.3262 428.893 28.5532 430.131C24.8277 432.726 20.9158 435.051 17.0592 437.439C15.6656 438.299 16.4866 440.391 18.101 440.067C21.0883 439.469 24.0963 438.856 26.9525 437.79C29.5397 436.82 31.9475 435.443 34.4864 434.363C37.0667 433.262 39.8263 432.87 42.4411 431.907C43.7519 431.425 45.2076 430.792 45.4973 429.278C45.7319 428.074 44.9593 426.657 44.4142 425.618C43.0689 423.051 41.1509 420.863 38.7569 419.211C37.2253 418.152 34.7968 420.477 36.5285 421.675C37.9152 422.638 39.1088 423.794 40.1092 425.156C40.5645 425.776 40.9715 426.429 41.3234 427.118C41.6062 427.682 42.3031 428.755 42.0754 429.354L42.4548 428.638C42.0616 429.168 40.5921 429.443 39.916 429.629C38.8949 429.918 37.86 430.145 36.8389 430.427C34.714 431.005 32.7271 431.9 30.754 432.856C28.7808 433.813 26.849 434.762 24.7793 435.443C22.5371 436.187 20.2121 436.641 17.9009 437.102L18.9427 439.73C23.2477 437.061 27.6425 434.487 31.7337 431.501C35.0383 429.086 40.8474 425.198 38.8742 420.333C38.2878 418.895 35.8662 419.397 35.611 420.822C35.128 423.505 34.6451 426.182 34.1622 428.865C33.9621 429.98 33.7206 431.095 33.555 432.216C33.3895 433.338 34.4864 434.329 34.9279 435.32C35.5213 436.648 35.88 438.051 36.1077 439.483C36.6596 442.896 36.839 446.398 36.9908 449.852C37.1426 453.306 37.184 457.084 37.0805 460.703C36.977 464.323 36.9218 467.818 36.2043 471.266C35.4868 474.713 33.8172 477.211 31.6509 479.722C26.9388 485.179 21.2746 489.734 14.9757 493.25L17.6111 494.152C17.6663 492.762 19.674 491.86 20.6744 491.248C22.3026 490.243 23.7996 489.039 25.1381 487.67C27.8632 484.883 29.8778 481.443 31.2576 477.816C34.5691 469.112 34.2932 459.355 33.8447 450.203C33.5757 444.712 33.0444 439.235 32.2717 433.792C31.9889 431.803 28.6291 432.43 28.8912 434.287H28.9188Z" fill="white"/>
<path d="M52.0085 415.192C52.2908 413.749 53.7094 413.33 54.9867 413.262C56.4725 413.179 57.9515 413.344 59.3969 413.729C62.2206 414.477 64.708 416.043 66.6913 418.221C67.0409 418.605 67.6729 418.75 68.1569 418.612L68.4998 418.516L67.0341 418.125C66.9199 418.022 66.8257 417.465 66.7047 417.465C66.698 417.465 66.6644 417.548 66.651 417.548C66.5031 417.582 66.1401 417.946 66.0056 418.042C65.4678 418.393 64.977 418.743 64.5534 419.237C63.7534 420.185 63.4374 421.449 63.2693 422.658C63.0811 424.032 63.108 425.447 63.0676 426.827C63.0206 428.428 62.9803 430.021 62.9466 431.621C62.7987 438.016 62.7181 444.411 62.6979 450.805C62.6777 457.2 62.7315 463.595 62.8458 469.989C62.9601 476.254 63.424 482.58 63.1013 488.844C62.7987 494.737 61.3869 501.07 57.1179 505.356L59.5919 507.135C59.128 494.181 58.765 481.226 58.5095 468.265C58.2541 455.304 58.1129 442.343 58.0793 429.382C58.0793 427.576 58.0793 425.776 58.0725 423.97C58.0591 422.301 57.9918 420.618 57.5279 419.011C56.6809 416.105 54.4489 413.598 51.3631 413.399C50.516 413.344 50.0656 414.285 50.2 415.027C50.3547 415.906 51.0942 416.572 51.9547 416.627C54.106 416.765 54.8321 419.334 55.0203 421.126C55.3228 424.025 55.1077 427.047 55.1144 429.959C55.1346 436.127 55.1817 442.295 55.249 448.463C55.3901 460.799 55.6254 473.128 55.9615 485.457C56.1498 492.422 56.3716 499.387 56.6204 506.345C56.6473 507.025 56.9027 507.643 57.4742 508.028C57.891 508.316 58.6642 508.557 59.0944 508.124C63.2626 503.941 65.1921 498.254 65.8442 492.422C66.2072 489.132 66.1803 485.821 66.0929 482.518C66.0055 479.214 65.9048 475.718 65.8375 472.318C65.5619 458.56 65.5954 444.789 65.9383 431.031C65.9854 429.087 66.0324 427.15 66.0997 425.206C66.14 423.984 66.1333 422.39 67.0409 421.456C67.4846 421.003 68.1233 420.769 68.5939 420.343C69.1855 419.814 69.5956 419.121 69.6628 418.31C69.804 416.634 68.5267 414.993 66.819 415.487L68.2846 415.879C65.777 413.124 62.3752 411.174 58.765 410.404C55.6456 409.738 49.9849 409.381 49.158 413.626C48.9899 414.491 49.3261 415.384 50.1194 415.817C50.7379 416.153 51.8269 416.043 51.995 415.185L52.0085 415.192Z" fill="white"/>
<path d="M26.0491 455.973C34.603 455.145 43.1502 454.202 51.7178 453.517C55.882 453.185 60.0325 453.32 64.2103 453.314C68.3882 453.307 72.4224 452.886 76.4566 451.808C80.4908 450.729 84.4909 449.454 88.5115 448.307C89.4756 448.036 89.8654 448.029 90.6107 448.687C91.4244 449.413 92.2176 450.173 93.0107 450.919C93.7424 451.604 94.4671 452.289 95.1988 452.974C95.4996 453.259 95.821 453.524 96.1014 453.829C96.1971 453.931 96.2791 454.053 96.3748 454.155C96.5389 454.318 96.4022 454.29 96.4159 454.155C96.2723 455.518 94.4671 455.762 93.4005 455.559C91.6637 455.227 90.0978 454.304 88.4226 453.775C86.4738 453.158 84.3952 453.076 82.3644 453.036C80.2242 452.995 78.084 452.981 75.9506 452.981C66.3231 452.961 56.6888 453.239 47.075 453.795L48.7024 456.461L49.8375 454.494C50.4802 453.381 49.4067 451.848 48.2101 451.828C37.4886 451.638 26.767 452.215 16.1344 453.551C15.0814 453.687 14.972 454.969 15.348 455.735C16.6472 458.354 18.7601 460.619 21.4678 461.84C24.367 463.15 27.232 462.946 30.1859 461.922C32.7159 461.04 35.2048 460.124 37.7963 459.432C40.5861 458.693 43.41 458.069 46.2545 457.58C49.1742 457.078 52.1486 456.685 55.123 456.712L54.3298 453.463C47.4784 453.85 40.7228 455.26 33.8646 455.647C32.0321 455.749 32.9894 458.991 34.6578 458.896C41.5092 458.51 48.2648 457.099 55.123 456.712C55.9777 456.665 56.2239 455.634 56.0598 454.955C55.8615 454.134 55.1982 453.47 54.3298 453.463C49.181 453.409 43.9707 454.467 38.9997 455.674C36.5518 456.271 34.1176 456.943 31.7381 457.757C29.1534 458.645 26.5619 459.982 23.7516 459.412C21.0917 458.869 18.9037 457.011 17.7139 454.623L16.9276 456.807C27.5671 455.464 38.2886 454.887 49.0033 455.084L47.3759 452.418L46.2408 454.385C45.6323 455.437 46.6443 457.119 47.8682 457.051C56.976 456.522 66.0907 456.251 75.2122 456.237C77.4755 456.237 79.7456 456.251 82.0089 456.278C84.1423 456.305 86.2892 456.325 88.3474 456.943C91.479 457.886 95.6159 460.633 98.3305 457.282C99.5886 455.729 99.3629 453.578 98.1116 452.086C96.7509 450.465 95.0074 449.074 93.462 447.636C91.9167 446.198 90.3577 444.393 88.0055 444.99C85.879 445.533 83.7798 446.218 81.6806 446.835C77.4686 448.07 73.2634 449.44 68.8668 449.854C64.4701 450.268 60.053 449.963 55.6495 450.037C50.5759 450.125 45.5092 450.777 40.463 451.265C35.3963 451.753 30.3363 452.242 25.2696 452.73C23.4302 452.907 24.3943 456.142 26.0627 455.98L26.0491 455.973Z" fill="white"/>
<path d="M31.2689 457.389C36.2028 456.66 41.2704 457.776 46.0973 456.331C46.7792 456.129 46.2511 454.99 46.0305 454.673C45.6828 454.181 45.0677 453.65 44.3591 453.864C39.7528 455.245 34.7454 454.083 30.0254 454.782C28.6282 454.99 30.0722 457.562 31.2823 457.383L31.2689 457.389Z" fill="white"/>
<path d="M54.1958 368.777C53.4772 371.084 52.5259 373.651 50.3495 374.576C48.0773 375.534 45.5245 374.233 43.5535 372.727C41.5824 371.221 39.625 369.4 37.1818 369.161C36.7711 371.461 38.7354 373.391 40.4259 374.966C44.628 378.881 48.1868 383.516 50.9175 388.63C56.1189 384.44 61.3818 379.874 64.0988 373.686C67.0417 366.99 66.6242 359.323 66.2204 351.991C66.1109 349.992 66.0494 347.815 67.1855 346.186C68.3763 344.482 70.7032 343.653 71.3191 341.654C71.8666 339.888 70.7511 337.985 69.3002 336.869C67.8493 335.753 66.0972 335.165 64.5642 334.179C62.0935 332.597 60.2183 330.01 57.4739 329.003C54.3531 327.86 50.938 329.024 47.7488 329.948C38.7764 332.543 29.3934 333.172 20.0857 333.789C20.3663 329.195 20.6402 324.608 20.9208 320.015C20.955 319.481 21.0234 318.872 21.4341 318.543C21.7557 318.29 22.2006 318.283 22.6112 318.29C27.6209 318.345 32.6375 317.913 37.5651 317.003C42.3079 316.126 46.9823 314.805 51.7798 314.347C54.9417 314.039 58.131 314.114 61.2655 313.607C61.7103 313.539 62.1894 313.429 62.4563 313.053C62.9901 312.3 62.2031 311.321 61.4913 310.746C58.1172 307.994 54.8938 305.036 51.8483 301.894L52.8337 302.065C43.0812 307.645 31.782 309.486 20.7497 311.232C20.0995 311.334 19.4287 311.437 18.7854 311.293C18.2173 311.163 17.7109 310.855 17.1908 310.602C16.0684 310.061 14.7749 309.78 13.5704 310.095C11.1955 310.712 9.84729 313.881 11.0176 316.092C11.5856 317.167 12.5848 317.927 13.3171 318.892C15.5825 321.87 14.9392 326.286 13.1256 329.572C12.1195 331.393 10.7918 333.049 10.1827 335.048C9.74465 336.493 9.71039 338.047 9.88833 339.546C10.1279 341.579 10.9424 343.79 12.7697 344.612C15.2814 345.728 17.9299 343.674 20.4142 342.496C22.1389 341.675 24.021 341.264 25.8826 340.901C35.6009 338.991 45.5039 338.074 55.4002 338.177C55.6671 338.177 55.9752 338.197 56.1463 338.409C56.29 338.581 56.2968 338.827 56.2968 339.053C56.3173 342.791 56.3378 346.522 56.3652 350.259C56.4063 357.215 56.3789 364.471 53.3197 370.673" fill="white"/>
<path d="M52.5662 368.348C52.113 369.777 51.605 371.336 50.5821 372.486C49.5591 373.636 48.241 373.745 46.8611 373.125C45.282 372.418 43.9913 371.193 42.6113 370.185C41.046 369.042 39.3365 368.116 37.3799 367.885C36.7414 367.81 35.6224 367.919 35.4988 368.736C35.2036 370.764 36.2952 372.452 37.6065 373.895C38.9178 375.337 40.5655 376.712 41.9523 378.209C44.8769 381.367 47.3622 384.913 49.4081 388.69C49.9024 389.609 51.5638 389.773 52.3328 389.16C57.9143 384.702 63.5851 379.761 66.2283 372.962C67.6426 369.321 68.1712 365.455 68.2742 361.576C68.3223 359.657 68.2742 357.737 68.1987 355.818C68.1232 353.899 67.9241 352.123 67.9584 350.278C67.9927 348.563 68.3497 347.039 69.6748 345.868C70.7938 344.874 72.1875 344.037 72.8466 342.649C73.6018 341.077 73.231 339.3 72.2493 337.912C71.1714 336.387 69.5924 335.448 67.9447 334.625C66.297 333.801 64.9583 332.964 63.6127 331.793C62.267 330.623 61.0244 329.473 59.4934 328.676C55.6694 326.696 51.605 327.621 47.6917 328.758C38.5951 331.392 29.1757 332.086 19.7633 332.705L21.7337 334.135C21.8916 331.576 22.0426 329.017 22.2005 326.451C22.276 325.226 22.3515 324.001 22.427 322.776C22.4614 322.218 22.4957 321.66 22.53 321.108C22.5506 320.802 22.4752 319.802 22.6743 319.57C22.5438 319.727 22.894 319.611 23.0175 319.611C23.299 319.611 23.5736 319.611 23.8551 319.611C24.5279 319.611 25.1938 319.597 25.8666 319.584C27.0955 319.55 28.3244 319.488 29.5465 319.393C32.1416 319.203 34.723 318.89 37.2838 318.454C42.1307 317.63 46.8885 316.242 51.7835 315.718C54.2962 315.453 56.8296 315.453 59.3423 315.228C60.9488 315.085 64.9926 315.024 64.3747 312.41C64.1207 311.349 63.2213 310.607 62.4112 309.947C61.3402 309.069 60.2897 308.177 59.2531 307.265C57.1797 305.434 55.175 303.529 53.2321 301.555L51.7217 303.284L52.7104 303.454L51.8247 301.344C44.2385 305.618 35.7391 307.667 27.2123 309.164C25.0634 309.538 22.9145 309.885 20.7657 310.219C19.832 310.369 19.2621 310.525 18.4177 310.11C17.3673 309.593 16.2894 309.184 15.1155 309.069C13.1245 308.878 11.2296 309.477 9.9664 311.049C8.99151 312.267 8.5658 314.003 8.96399 315.521C9.4583 317.406 11.1746 318.413 12.1289 320.013C13.0832 321.612 13.1588 323.497 12.8567 325.26C12.534 327.111 11.7445 328.738 10.7559 330.323C9.64366 332.113 8.49033 333.896 8.15392 336.013C7.59096 339.525 8.49028 344.241 12.2182 345.684C14.2915 346.481 16.4679 345.99 18.4039 345.072C20.34 344.153 22.1181 343.071 24.2395 342.54C29.3336 341.26 34.6681 340.587 39.8927 340.069C42.5564 339.804 45.2271 339.62 47.9046 339.505C49.2434 339.443 50.5821 339.409 51.9209 339.382C52.5868 339.368 53.2596 339.368 53.9255 339.362C54.207 339.362 54.4817 339.362 54.7631 339.362C54.9828 339.362 55.2094 339.362 55.4291 339.362C55.8685 339.375 55.8753 339.362 55.4566 339.328L54.7563 338.919C54.6602 338.701 54.6395 338.776 54.6944 339.144C54.6944 339.314 54.6944 339.484 54.6944 339.647C54.6944 340.042 54.6944 340.437 54.7013 340.832C54.7013 341.505 54.7082 342.179 54.715 342.86C54.7219 344.323 54.7357 345.786 54.7425 347.25C54.7563 349.89 54.7974 352.531 54.7288 355.172C54.5983 360.208 54.056 365.367 51.811 369.954C51.0695 371.465 54.3443 372.377 54.9828 371.077C57.2896 366.374 57.9624 361.188 58.1135 356.016C58.189 353.334 58.1546 350.646 58.134 347.964C58.1134 345.031 58.2301 342.064 58.0722 339.13C57.9898 337.606 56.5687 337.102 55.2162 337.061C53.7676 337.014 52.3122 337.054 50.8704 337.082C47.9732 337.136 45.076 337.279 42.1857 337.51C36.3295 337.973 30.4802 338.756 24.7201 339.913C23.3402 340.192 21.9808 340.519 20.6558 340.988C19.3308 341.458 18.2392 342.098 17.0515 342.71C16.1658 343.173 15.0262 343.853 13.9826 343.785C13.2069 343.731 12.7057 343.05 12.3555 342.431C11.2639 340.498 11.1884 337.769 11.7445 335.673C12.3761 333.291 14.1886 331.412 15.191 329.194C16.1315 327.111 16.6258 324.845 16.3512 322.565C16.2207 321.476 15.8706 320.407 15.3214 319.454C14.7035 318.372 13.7354 317.603 12.9871 316.637C11.8818 315.214 12.0672 313.091 13.454 311.886C14.1199 311.308 14.9094 311.226 15.7401 311.492C17.0858 311.934 18.1293 312.689 19.6054 312.723C20.9098 312.757 22.2554 312.417 23.5392 312.213C24.8917 311.995 26.2442 311.777 27.5898 311.546C30.1918 311.104 32.787 310.62 35.3546 310.042C40.538 308.885 45.6802 307.36 50.4928 305.108C51.6805 304.55 52.8477 303.951 53.9873 303.304C55.3055 302.562 54.1864 301.378 53.1017 301.194L52.1131 301.024C51.0627 300.847 49.5385 301.664 50.6027 302.753C52.2778 304.461 54.0079 306.122 55.7861 307.721C56.6168 308.47 57.4543 309.205 58.3125 309.926C59.0952 310.586 60.2623 311.26 60.839 312.104C60.9626 312.281 61.1273 312.499 60.9694 312.642C60.8115 312.785 59.8916 312.798 59.6993 312.826C58.4224 312.982 57.1385 313.043 55.8547 313.105C53.4038 313.227 50.9665 313.377 48.543 313.751C43.7441 314.479 39.0551 315.793 34.2493 316.501C31.8464 316.855 29.4298 317.086 27.0063 317.202C25.8323 317.256 24.6652 317.29 23.4912 317.297C22.3172 317.304 21.0128 317.147 20.0448 317.896C19.1385 318.597 19.2072 319.87 19.1454 320.89C19.0562 322.34 18.9669 323.783 18.8777 325.233C18.706 328.016 18.5413 330.8 18.3696 333.583C18.3079 334.543 19.5162 335.067 20.34 335.013C28.3931 334.482 36.508 333.951 44.4032 332.188C46.298 331.766 48.1586 331.242 50.026 330.705C51.7835 330.201 53.6715 329.636 55.5252 329.793C58.6764 330.058 60.8115 333.1 63.2419 334.781C65.3908 336.272 70.6496 337.578 69.8327 341.145C69.5306 342.451 68.1918 343.234 67.2306 344.044C65.9331 345.14 65.0543 346.433 64.7454 348.114C64.4364 349.795 64.6356 351.51 64.7248 353.184C64.8278 355.049 64.9102 356.907 64.9308 358.772C64.9582 362.406 64.7385 366.075 63.7911 369.6C61.7177 377.345 55.6831 382.715 49.6141 387.567L52.5388 388.037C50.5615 384.396 48.1724 381.007 45.4193 377.896C44.0943 376.399 42.6594 375.031 41.2176 373.65C40.0093 372.493 38.6431 371.084 38.904 369.287L37.0229 370.138C38.9521 370.369 40.4693 371.771 41.9454 372.908C43.703 374.262 45.6459 375.48 47.8977 375.8C49.9436 376.086 52.0376 375.521 53.4518 373.983C54.7631 372.561 55.4016 370.716 55.9715 368.906C56.4177 367.497 53.0536 366.871 52.5799 368.361L52.5662 368.348Z" fill="white"/>
<path d="M72.1022 175.494C74.7104 175.65 77.3392 173.908 78.8217 171.035C78.4167 173.224 76.4743 174.176 74.7996 174.34C73.1249 174.504 71.2992 174.295 69.8921 175.539C72.1365 175.375 74.4496 175.189 76.4881 173.908C78.5265 172.628 80.2425 169.963 80.1944 166.948C79.5698 168.765 78.6158 170.38 77.4421 171.616C80.0915 169.516 81.0043 165.035 81.471 160.956C82.5006 151.874 82.4182 142.569 81.2308 133.525C79.46 140.917 79.5698 149.343 76.1723 155.633C72.2669 162.862 65.0053 164.938 58.3956 166.062C47.8119 167.871 36.5145 168.482 27.0358 161.916L28.0173 162.192C24.6953 159.475 22.6088 154.599 21.6342 149.544C20.6595 144.49 20.6664 139.205 20.6801 133.987C20.7007 125.791 20.7282 117.602 20.7487 109.407C20.7487 108.201 20.7419 106.913 20.2408 105.901C19.7741 104.955 18.9642 104.442 18.2024 103.965C15.8825 102.536 13.5626 101.099 11.2358 99.67C13.2194 101.568 15.203 103.466 17.1797 105.357C14.8461 102.983 12.3683 100.854 9.7876 99C10.3985 99.8188 11.0024 100.645 11.6133 101.464L10.4122 100.295L10.7348 100.377C13.8303 105.342 14.1666 112.332 14.2421 118.801C14.3382 127.354 14.2283 135.914 13.8989 144.453C13.7273 148.912 13.5008 153.393 13.9401 157.822C14.3793 162.244 15.5324 166.665 17.7974 169.941C20.989 174.549 25.8621 176.238 30.4882 177.303C45.6773 180.801 61.4156 179.916 76.3371 174.727" fill="white"/>
<path d="M70.7423 176.5C72.7573 176.581 74.7515 175.79 76.5111 174.785C78.2708 173.78 79.5957 172.472 80.5686 170.683L77.4151 172.021C77.3116 172.479 77.1598 172.893 76.9114 173.285C76.7803 173.484 76.6353 173.676 76.4697 173.832C76.3041 173.987 75.8142 174.246 76.5457 173.898C77.2771 173.551 76.4559 173.809 76.1523 173.839C75.6555 173.883 75.1586 173.898 74.6618 173.928C72.5157 174.068 70.3352 174.859 68.6032 176.256C68.3547 176.463 68.4444 176.552 68.7135 176.53C72.0741 176.286 75.3933 175.591 78.257 173.573C80.4927 171.998 81.9764 169.419 81.9764 166.521C81.9764 166.418 79.0298 167.282 78.8228 167.859C78.1949 169.603 77.2909 171.171 76.0557 172.494C75.8349 172.73 77.0839 172.405 77.1046 172.398C77.7739 172.154 78.4778 171.851 79.0436 171.392C81.0103 169.796 81.9625 167.334 82.5491 164.836C83.3012 161.65 83.5428 158.301 83.7498 155.027C84.2121 147.79 83.9568 140.509 83.0183 133.331C82.9907 133.102 79.9821 134.159 79.8372 134.765C77.5945 144.146 78.395 156.121 69.935 162.152C66.7883 164.4 62.8895 165.087 59.2184 165.693C54.3536 166.491 49.4197 167.024 44.4997 166.706C38.855 166.336 33.3346 164.777 28.525 161.524L25.4335 163.003L26.4203 163.276C26.924 163.416 27.8211 162.892 28.2421 162.685C28.3525 162.633 29.6428 161.901 29.5117 161.798C23.0804 156.49 22.2662 146.393 22.1489 138.395C22.004 128.623 22.2593 118.851 22.2041 109.086C22.2041 108.022 22.1765 106.868 21.6934 105.908C21.2104 104.947 20.2444 104.355 19.3473 103.808C17.1115 102.441 14.8757 101.081 12.64 99.7205C12.2328 99.4692 11.322 99.994 10.9425 100.164C10.8321 100.216 9.32082 101.029 9.45884 101.155C11.4531 103.039 13.4474 104.924 15.4347 106.802C15.7452 107.098 16.8286 106.499 17.1322 106.358C17.2426 106.307 18.7538 105.508 18.6158 105.368C16.2973 103.054 13.82 100.94 11.184 99.0553C10.6595 98.6783 7.89933 100.349 8.00284 100.489C8.61698 101.302 9.22421 102.123 9.83836 102.936L13.0195 101.502L11.8119 100.341L8.72048 101.82C9.34842 101.975 9.74866 103.232 10.0178 103.823C10.4525 104.777 10.8044 105.774 11.0873 106.795C11.6325 108.724 11.9499 110.72 12.1431 112.723C12.5917 117.232 12.5227 121.807 12.5158 126.339C12.5158 131.254 12.4398 136.17 12.2949 141.078C12.15 145.986 11.7912 150.821 11.9706 155.685C12.1293 160.112 12.778 164.673 14.717 168.643C16.4353 172.146 19.2093 174.667 22.5698 176.241C25.9304 177.816 29.8361 178.585 33.5347 179.206C37.8476 179.93 42.2087 180.322 46.5698 180.366C56.4859 180.47 66.3536 178.784 75.7935 175.561C76.4076 175.354 77.5186 175.051 77.9326 174.482C78.3053 173.965 77.4979 174.268 77.215 174.364C68.8102 177.232 60.012 178.755 51.1931 178.836C46.8872 178.873 42.5744 178.577 38.3099 177.949C34.5215 177.395 30.6227 176.714 27.0137 175.317C23.6118 174.002 20.5825 171.814 18.6089 168.517C16.4629 164.932 15.5865 160.585 15.2691 156.394C14.9033 151.612 15.2415 146.799 15.4002 142.01C15.5589 137.22 15.6624 132.186 15.69 127.27C15.7176 122.354 15.8211 117.099 15.3933 112.058C15.2001 109.796 14.8758 107.534 14.2616 105.361C13.9787 104.34 13.6268 103.343 13.192 102.389C12.8677 101.672 12.4951 100.482 11.7222 100.29C11.2047 100.164 10.3421 100.667 9.90048 100.881C9.79007 100.933 8.49275 101.642 8.63077 101.768L9.83836 102.929C10.3352 103.409 13.0954 101.598 13.0195 101.495C12.4054 100.681 11.7981 99.861 11.184 99.0479L8.00284 100.482C10.6388 102.367 13.1161 104.481 15.4347 106.795L18.6158 105.361C16.6216 103.476 14.6273 101.591 12.64 99.7131L9.45884 101.147C11.5014 102.389 13.5439 103.638 15.5865 104.88C17.2633 105.9 18.6986 106.765 18.9609 108.997C19.2231 111.23 19.0161 113.639 19.0161 115.909C19.0092 118.459 19.0023 121.009 18.9954 123.559C18.9816 128.386 18.9402 133.221 18.9609 138.047C18.9816 142.764 19.1265 147.546 20.2374 152.136C21.2518 156.313 23.0805 160.534 26.3375 163.224L29.4289 161.746L28.4422 161.472C27.9384 161.332 27.0413 161.857 26.6204 162.064C26.51 162.115 25.2403 162.877 25.3507 162.951C34.6319 169.234 45.8315 168.946 56.2995 167.253C61.0678 166.484 65.7532 165.301 70.0661 162.936C74.4134 160.556 77.6911 156.904 79.3818 151.959C81.4312 145.972 81.5416 139.474 83.0114 133.331L79.8303 134.765C80.7411 141.714 81.0034 148.744 80.6032 155.744C80.4238 158.922 80.1891 162.16 79.5681 165.279C79.0643 167.844 78.2087 170.69 76.1799 172.346L79.1678 171.244C80.403 169.921 81.307 168.354 81.935 166.61L78.7814 167.948C78.7814 170.047 77.981 172.043 76.5802 173.514C75.8073 174.327 75.552 174.438 74.5859 174.637C73.5163 174.852 72.4191 174.926 71.3357 175.007L71.4462 175.28C70.5836 175.576 70.4111 175.665 70.9286 175.539L71.1978 175.502C71.4669 175.465 71.736 175.443 72.012 175.428C72.5503 175.391 73.0954 175.384 73.6405 175.325C74.6273 175.221 75.5796 174.911 76.4973 174.519C78.2915 173.758 80.1201 172.73 80.5963 170.572C80.6308 170.402 79.1402 170.912 79.1126 170.927C78.6503 171.126 77.7118 171.414 77.4427 171.91C76.9114 172.885 76.2696 173.78 75.4485 174.49C75.3035 174.615 75.0828 174.726 74.9516 174.874C74.5928 175.31 75.2345 174.504 75.1862 174.807C75.1586 174.985 73.8751 174.955 73.7509 174.948C73.0747 174.918 72.3156 175.332 71.7222 175.643C71.5704 175.717 70.487 176.471 70.7423 176.478V176.5Z" fill="white"/>
<g clip-path="url(#clip0_34_495)">
<path d="M80.6885 70.586C78.89 67.6694 76.4828 64.6669 73.1866 64.3238C71.8804 64.1879 70.5742 64.5025 69.2818 64.7741C64.7956 65.7178 60.2206 66.1681 55.6661 66.6256C46.7554 67.5121 37.8516 68.3914 28.9409 69.2778C26.0413 69.5638 23.1144 69.8497 20.2149 69.4923C19.1822 69.3636 18.1017 69.1205 17.3563 68.3628C16.8161 67.8123 16.5152 67.0546 16.31 66.2968C15.8245 64.4882 15.7903 62.5795 15.7698 60.6994C15.633 50.3195 15.4962 39.9325 15.3595 29.5526C15.3047 25.1276 15.3936 20.2593 18.1906 16.9424C21.3501 13.1893 26.7184 12.8247 31.4985 12.7318L69.5416 11.9883C71.2513 11.9526 73.3712 11.6309 73.9183 9.93665C74.4859 8.19238 72.8925 6.55533 71.4701 5.46158C69.61 4.0247 67.7431 2.58067 65.883 1.14378L67.9072 2.95955C65.6231 0.643376 61.8892 1.69423 58.8324 2.63071C51.8639 4.75386 44.5808 5.43299 37.3524 6.10496C32.4764 6.55533 27.6005 7.0057 22.7041 7.01285C16.31 7.01285 9.88858 6.26223 3.5492 7.08433C3.04315 7.14867 2.51657 7.23445 2.11994 7.56329C1.16253 8.3568 1.54549 10.0439 2.42767 10.9232C3.30985 11.8025 4.52712 12.2314 5.48452 13.032C7.625 14.8263 8.00113 18.0433 8.04216 20.9099C8.18577 30.003 8.27467 39.0604 8.02164 48.1463C7.81648 55.4189 7.9145 61.4166 8.3157 66.1395C8.58924 69.3707 4.01423 71.8013 5.04001 74.8538C5.96322 77.606 9.45775 78.2708 12.2069 77.7347C13.4994 77.4845 14.7508 77.077 16.0023 76.6552C16.8024 76.6552 17.5957 76.6552 18.3958 76.6552C20.8577 76.6552 23.3264 76.6481 25.7883 76.548C30.7668 76.3478 35.7453 75.7759 40.7101 75.1683C41.4829 75.1183 42.2556 75.0611 43.0284 75.0039L64.9324 73.9888C66.731 74.1032 68.5227 74.3033 70.3144 74.6179C73.3849 75.154 76.6196 76.0119 79.5191 74.8466C80.3876 74.4963 81.2766 73.8601 81.4271 72.895C81.557 72.0801 81.1262 71.2937 80.6954 70.6003L80.6885 70.586ZM17.3974 76.1691C18.6351 75.7545 19.8798 75.3756 21.1654 75.1612C24.0581 74.6822 27.0056 75.0897 29.9325 75.2755C31.3891 75.3685 32.8457 75.3971 34.3024 75.3899L17.3974 76.1691Z" fill="white"/>
<path d="M82.213 69.7781C80.8727 67.6121 79.2519 65.3745 77.0294 64.1378C74.2255 62.5866 71.3533 63.3944 68.4059 63.952C61.8477 65.1958 55.1527 65.6319 48.5261 66.2896C41.879 66.9473 35.2319 67.6335 28.5779 68.2626C26.9572 68.4127 25.3364 68.5414 23.7089 68.5271C22.3275 68.5128 20.5905 68.57 19.3458 67.848C18.0123 67.0759 17.6909 65.2173 17.5199 63.7732C17.3285 62.1576 17.349 60.5135 17.3284 58.8836C17.2395 51.9207 17.1438 44.9579 17.0549 38.0023C17.0139 34.621 16.9387 31.2396 16.925 27.8655C16.9181 25.1132 16.9934 22.2251 17.9713 19.6302C18.8193 17.3926 20.3374 15.7413 22.5121 14.9335C24.6868 14.1257 27.2649 13.9398 29.6653 13.8683C36.2303 13.6682 42.7954 13.6038 49.3604 13.4752L59.379 13.2822C62.6341 13.2178 65.903 13.2536 69.1581 13.082C71.4901 12.9605 74.7931 12.0955 75.4907 9.37898C76.2293 6.51951 72.9194 4.53218 71.1071 3.13104C69.8215 2.13737 68.5358 1.14371 67.2502 0.150041C66.3817 -0.521934 63.5095 1.22234 64.5079 2.11593C65.1849 2.72356 65.8551 3.32405 66.5321 3.93169C67.3596 4.67515 70.2455 2.89513 69.2744 1.9658C66.2859 -0.907963 61.622 0.850611 58.2438 1.83713C53.6892 3.16678 48.9638 3.85305 44.2657 4.37491C39.4718 4.90391 34.6506 5.36143 29.8362 5.66167C24.7962 5.97621 19.7903 5.79035 14.7503 5.63307C12.2884 5.55444 9.81967 5.5187 7.35778 5.66882C5.14208 5.80464 2.13994 5.72601 0.601252 7.72049C-0.574986 9.24316 0.102035 11.1876 1.46975 12.2813C2.29722 12.939 3.28882 13.325 4.09577 14.0113C4.80015 14.6047 5.29253 15.3982 5.64813 16.2703C6.44825 18.2433 6.44141 20.4308 6.4756 22.5325C6.51663 25.1275 6.55083 27.7225 6.57134 30.3174C6.61921 35.5002 6.61237 40.6902 6.50296 45.873C6.37302 52.0709 6.03109 58.2402 6.53715 64.4309C6.66025 65.8964 6.96798 67.319 6.27728 68.6772C5.58659 70.0355 4.53344 71.1221 3.84958 72.4732C3.16572 73.8243 3.10418 75.3398 3.97268 76.6123C4.92324 77.9991 6.50296 78.6782 8.07583 78.907C10.1206 79.2072 12.0901 78.8069 14.0528 78.2279C14.5588 78.0777 15.1059 77.7918 15.6188 77.7275C15.1333 77.7918 16.248 77.7704 16.1864 77.7704C16.4121 77.7704 16.6446 77.7704 16.8703 77.7704C18.2175 77.7704 19.5647 77.7703 20.9119 77.7561C25.904 77.706 30.862 77.32 35.8268 76.7624C40.1488 76.2763 44.4024 76.0118 48.7381 75.8116L62.2375 75.1897C64.0155 75.1039 65.6841 75.1897 67.4759 75.4399C71.8867 76.0404 76.7832 77.7418 80.9 75.0682C81.7138 74.5392 82.5208 73.8028 82.849 72.8306C83.2115 71.744 82.7396 70.7075 82.1925 69.7996C81.5497 68.7273 78.5407 70.4144 79.1425 71.408C79.4776 71.9585 80.3187 73.2595 79.587 73.8386C79.0673 74.2532 78.0141 74.2746 77.3987 74.2961C75.265 74.3747 73.1656 73.8171 71.0661 73.4668C68.9667 73.1166 66.751 72.8163 64.5831 72.9164C60.521 73.1023 56.452 73.2953 52.3899 73.4811C49.3057 73.6241 46.2147 73.7028 43.1373 73.9315C38.3913 74.2818 33.6864 75.011 28.9335 75.3112C26.5742 75.4542 24.2149 75.5114 21.8556 75.5328C20.7341 75.54 19.6057 75.54 18.4842 75.54C17.9166 75.54 17.3421 75.5042 16.7745 75.54C16.077 75.5829 15.4136 75.8974 14.7503 76.1047C12.2132 76.9054 7.60397 77.5773 6.53031 74.053C6.14051 72.7734 6.96114 71.6153 7.645 70.636C8.48615 69.4278 9.42304 68.2126 9.75129 66.7256C10.0385 65.4103 9.70342 63.9234 9.60084 62.5937C9.51878 61.5429 9.44355 60.4849 9.40252 59.434C9.29994 56.9105 9.37517 54.387 9.43671 51.8636C9.68974 42.1771 9.75129 32.5049 9.61452 22.8185C9.55981 19.1941 9.82651 14.5832 6.81753 12.0454C5.56607 10.9946 3.0905 10.3726 3.0905 8.30668C3.0905 8.32812 3.12469 7.84916 3.13837 7.85631L2.85115 8.04933C2.47503 8.24234 2.46135 8.29238 2.81696 8.1923C3.28882 8.24949 3.89061 8.05648 4.37615 8.01358C5.60026 7.90635 6.83121 7.84916 8.06216 7.82057C12.7739 7.72764 17.4789 8.14226 22.1975 8.12081C26.8683 8.09937 31.5254 7.6776 36.1756 7.24868C40.8259 6.81975 45.2915 6.41943 49.8049 5.66167C52.048 5.28994 54.2774 4.82527 56.4794 4.23908C58.3395 3.73868 60.1654 3.0667 62.0665 2.7736C63.6941 2.51625 65.2601 2.73786 66.5048 3.93884L69.247 1.97295C68.57 1.36532 67.8998 0.764827 67.2228 0.15719L64.4805 2.12308C65.8141 3.15248 67.1408 4.18189 68.4743 5.20415C69.589 6.062 70.8815 6.87694 71.7363 8.03503C72.0714 8.49254 72.3928 9.04299 72.4338 9.63633C72.4543 9.90798 72.4202 10.1868 72.3107 10.437C72.2971 10.4584 72.2492 10.6371 72.3381 10.5299C71.8936 11.0589 69.9651 10.8659 69.3086 10.8802L49.2647 11.2734C42.8432 11.4021 36.3944 11.3449 29.9867 11.6809C24.8646 11.9525 19.0381 13.2178 16.0291 18.036C13.0201 22.8542 13.7519 29.5025 13.8271 35.0713C13.916 41.9769 14.0049 48.8754 14.1006 55.781C14.1417 59.1123 13.9092 62.6152 14.4973 65.8964C14.7503 67.3118 15.1606 68.8345 16.3642 69.6852C17.4789 70.4716 18.9218 70.5931 20.2212 70.7003C23.5242 70.9791 26.8546 70.5287 30.1371 70.1999C33.4197 69.8711 36.7911 69.5422 40.1146 69.2134C46.7549 68.5557 53.402 67.9624 60.0355 67.2118C63.318 66.84 66.5458 66.3039 69.7873 65.6605C71.1755 65.3888 72.5159 65.2959 73.8357 65.8893C74.9846 66.404 75.9899 67.2832 76.8516 68.2269C77.7132 69.1705 78.4586 70.2857 79.1425 71.3937C79.8264 72.5018 82.8011 70.7647 82.1925 69.7853L82.213 69.7781Z" fill="white"/>
<path d="M17.3564 77.1342C19.9755 76.2692 22.4716 75.9618 25.2139 76.1119C27.9562 76.2621 30.719 76.5123 33.4886 76.5051L35.1093 74.2604C30.1856 74.4892 25.2549 74.7179 20.3311 74.9396C19.6199 74.9753 18.9156 75.0039 18.2043 75.0396C17.4247 75.0754 16.5084 75.49 16.0433 76.1763C15.6672 76.741 15.8519 77.3201 16.5768 77.2843C21.5005 77.0556 26.4312 76.8268 31.355 76.6052C32.0662 76.5694 32.7705 76.5408 33.4818 76.5051C34.2614 76.4694 35.1777 76.0547 35.6428 75.3685C36.0394 74.7823 35.8206 74.2604 35.1093 74.2604C32.1209 74.2604 29.1666 73.953 26.1781 73.8387C23.1897 73.7243 20.3175 74.239 17.4316 75.1969C16.8708 75.3828 15.7972 75.9904 15.8177 76.7339C15.845 77.5131 16.9255 77.2772 17.3495 77.1342H17.3564Z" fill="white"/>
</g>
<defs>
<clipPath id="clip0_34_495">
<rect width="83" height="79" fill="white"/>
</clipPath>
</defs>
</svg>
