<svg width="89" height="630" viewBox="0 0 89 630" fill="none" xmlns="http://www.w3.org/2000/svg">
<g clip-path="url(#clip0_34_494)">
<path d="M14.417 115.417L15.0605 116.748C14.9473 116.23 14.7149 115.796 14.417 115.417Z" fill="white"/>
<path d="M13.0883 114.857C13.273 115.242 13.4637 115.634 13.6484 116.019L13.7258 116.188C13.7735 116.272 13.839 116.344 13.9165 116.405C14.0178 116.507 14.131 116.591 14.2561 116.663C14.5659 116.874 14.9234 117.061 15.275 117.205L15.6086 117.332C15.7814 117.392 15.9602 117.44 16.1389 117.464H16.3058C16.3951 117.44 16.419 117.386 16.3832 117.302C16.3236 117.049 16.2402 116.808 16.127 116.573C15.9959 116.308 15.8231 116.067 15.6444 115.832C15.5491 115.736 15.4478 115.652 15.3405 115.58C15.2035 115.477 15.0605 115.381 14.9115 115.303C14.7387 115.2 14.56 115.11 14.3812 115.032C14.2144 114.953 14.0416 114.881 13.8688 114.821L13.5769 114.73C13.4458 114.688 13.3087 114.676 13.1717 114.688L13.0883 114.742C13.0823 114.839 13.1181 114.917 13.2015 114.983C13.2253 115.013 13.2432 115.038 13.267 115.068L13.1657 114.929C13.4398 115.303 13.6424 115.724 13.7437 116.176L16.4011 117.296C16.2164 116.91 16.0257 116.519 15.841 116.134L15.7636 115.965C15.7159 115.881 15.6503 115.808 15.5729 115.748C15.4716 115.646 15.3584 115.561 15.2333 115.489C14.9234 115.278 14.5659 115.092 14.2144 114.947L13.8807 114.821C13.7079 114.761 13.5292 114.712 13.3504 114.688C13.2551 114.688 13.0227 114.676 13.1062 114.851L13.0883 114.857Z" fill="white"/>
<path d="M76.3715 104.457C73.6009 102.12 69.865 103.451 66.5463 104.21C58.7171 105.999 50.5959 103.987 42.7071 105.318C42.0934 105.42 41.438 105.571 41.009 106.113C40.0736 107.299 40.8779 109.22 41.6883 110.527C42.2543 111.442 42.8203 112.352 43.3923 113.267C43.6902 113.749 44.012 114.255 44.4708 114.49C45.0011 114.767 45.6029 114.634 46.1689 114.496C52.014 113.092 57.8769 111.774 63.7518 110.557C64.5562 110.389 65.5572 110.31 66.0219 111.129C66.2424 111.521 66.2781 112.015 66.302 112.49C66.7131 120.301 67.7737 119.403 65.7657 135.88C65.4857 138.174 62.5482 165.863 62.4112 168.181C62.2622 170.729 64.8899 147.815 64.8541 150.362C64.8422 151.356 64.7469 152.404 64.2583 153.199C63.7697 154 62.7687 154.409 62.1014 153.831C61.6605 153.452 61.4817 152.777 61.1898 152.229C60.159 150.284 57.9127 150.103 56.006 150.134C46.3655 150.278 36.5582 150.561 27.4062 154.21C25.6426 154.915 23.7538 155.74 21.9782 155.246C21.6922 155.168 21.4837 154.909 21.4718 154.608L19.7022 114.706C19.6545 113.586 19.5592 112.346 18.8799 111.575C18.3913 111.021 17.6942 110.834 17.0328 110.684C14.7866 110.172 12.5165 109.804 10.2344 109.576C9.80544 109.533 9.43007 109.907 9.48965 110.34C9.54923 110.774 9.69819 111.159 9.91269 111.533C10.2642 112.135 10.5502 112.779 10.6932 113.466L19.5055 157.336C19.5234 155.824 16.9018 141.046 16.9971 139.535C17.0031 139.577 17.009 139.619 17.0209 139.655C16.1451 133.73 16.8898 127.509 15.5909 121.692C14.9296 118.735 13.7379 115.959 12.1292 113.586C12.1351 113.586 12.147 113.598 12.153 113.604C12.731 113.96 13.4162 113.333 13.1182 112.719L12.5522 111.539C16.4489 114.243 17.4678 120.397 17.8491 125.817C18.3198 132.477 18.4271 139.18 18.1947 145.858C17.9564 144.304 17.581 142.739 17.2831 141.191C17.7121 143.931 17.9623 146.707 18.0279 149.495C18.0219 149.628 18.016 149.76 18.01 149.893L14.149 130.237C14.1252 132.236 16.8422 148.062 16.9494 150.061C17.0388 151.796 17.2116 153.608 17.6108 155.288C17.6287 155.355 17.6287 155.415 17.6287 155.481C17.4499 157.878 17.3725 160.341 18.2007 162.497C19.1659 165.002 21.8769 166.748 23.8015 165.261C25.2136 164.177 25.6366 161.913 26.7627 160.419C28.3476 158.323 30.9633 158.107 33.3049 158.028C40.1212 157.806 46.9375 157.583 53.7538 157.36C55.6009 157.3 57.722 157.384 58.8899 159.112C60.6773 161.75 59.1878 166.736 61.6247 168.44C62.7508 169.229 64.2523 168.766 65.2414 167.736C66.2245 166.706 66.8025 165.231 67.303 163.773C71.4499 151.633 72.01 138.186 72.2543 125.052C72.3079 122.216 72.445 119.096 74.0597 117.043C74.9236 115.947 76.1153 115.303 77.0209 114.249C79.2434 111.647 78.9097 106.595 76.3774 104.451L76.3715 104.457Z" fill="white"/>
<path d="M77.4794 103.71C75.0663 101.759 72.0752 101.747 69.1735 102.361C67.7256 102.668 66.3016 103.084 64.8418 103.337C63.2212 103.62 61.5767 103.764 59.9322 103.813C56.5956 103.915 53.2649 103.68 49.9282 103.668C48.2003 103.662 46.4724 103.704 44.7564 103.861C43.3026 103.993 41.4436 104.035 40.24 104.975C37.5648 107.065 40.1566 110.696 41.4377 112.761C42.3374 114.207 43.1894 115.748 45.0901 115.808C45.954 115.832 46.7942 115.561 47.6224 115.369C48.4506 115.176 49.3503 114.959 50.2142 114.761C53.6641 113.954 57.1258 113.183 60.5936 112.436C61.4098 112.261 62.2321 112.087 63.0484 111.918C63.4535 111.834 64.4843 111.455 64.8061 111.629C64.5499 111.491 64.7405 111.78 64.7703 111.978C64.8061 112.201 64.8061 112.43 64.818 112.653C64.8418 113.08 64.8716 113.514 64.9014 113.942C65.0682 116.236 65.39 118.518 65.4436 120.819C65.533 124.787 65.0742 128.774 64.6273 132.706C63.9481 138.722 63.2867 144.744 62.6551 150.772C62.2678 154.439 61.8865 158.107 61.5111 161.78C61.3026 163.84 61.0047 165.917 60.9153 167.983C60.8974 168.44 60.9451 168.747 61.2847 169.121C61.821 169.699 62.7683 169.591 63.388 169.271C64.0553 168.928 64.0315 167.573 64.1149 166.935C64.2996 165.52 64.4784 164.105 64.6512 162.689C65.0623 159.377 65.4615 156.071 65.9084 152.765C65.9858 152.193 66.0633 151.627 66.1526 151.061C66.1824 150.886 66.2122 150.718 66.242 150.543C66.2837 150.266 66.1884 150.724 66.0692 150.844L65.5092 151.224C65.0087 151.187 64.5082 151.151 64.0077 151.115C63.8408 150.965 63.674 150.814 63.5012 150.664C63.4297 150.537 63.3761 150.049 63.3523 150.188C63.2867 150.573 63.3344 150.995 63.2867 151.386C63.2331 151.826 63.1437 152.338 62.8815 152.705C62.9411 152.621 62.6432 152.952 62.6432 152.952C62.6611 152.651 63.4297 153.59 62.9948 152.795C62.5062 151.904 62.2023 151.061 61.386 150.399C60.6114 149.772 59.6879 149.387 58.7227 149.194C56.53 148.755 54.1944 148.995 51.9779 149.056C49.4694 149.122 46.967 149.218 44.4645 149.405C39.4297 149.79 34.4069 150.573 29.5807 152.127C27.3463 152.843 25.1715 154.09 22.812 154.222C22.5141 154.241 22.5916 154.06 22.7167 154.319C22.7763 154.439 23.098 154.463 22.9431 154.716V154.704C22.955 154.686 22.9372 154.644 22.9431 154.62C22.955 154.5 22.9312 154.367 22.9252 154.247C22.7763 150.874 22.6273 147.502 22.4784 144.124C22.24 138.812 22.0077 133.495 21.7693 128.184L21.239 116.26C21.1854 115.086 21.2152 113.833 20.9471 112.695C20.3155 109.997 17.7058 109.588 15.388 109.154C14.0831 108.907 12.7723 108.696 11.4496 108.54C10.2758 108.395 8.69089 108.227 8.11889 109.582C7.63627 110.72 8.57768 111.81 8.97093 112.797C9.09009 113.105 9.17947 113.418 9.24501 113.743C9.30459 114.014 9.35226 114.285 9.40588 114.556L10.1983 118.506C11.1278 123.131 12.0573 127.75 12.9809 132.375C14.0116 137.518 15.0424 142.654 16.0792 147.797C16.7048 150.898 17.3245 154 17.9501 157.101L18.0394 157.547C18.2957 158.817 20.9769 158.865 20.9769 157.45C20.9769 156.661 20.822 155.854 20.7147 155.078C20.5241 153.729 20.3155 152.386 20.107 151.049C19.6422 148.068 19.1477 145.093 18.7306 142.106C18.6531 141.54 18.5816 140.98 18.5102 140.414C18.4684 140.083 18.5102 140.492 18.4982 140.33C18.4923 140.233 18.4804 140.131 18.4744 140.035C18.4684 139.908 18.4565 139.782 18.4625 139.655L15.525 139.752L15.5489 139.872C15.7991 141.335 18.6889 141.089 18.4565 139.463C17.7952 134.844 18.0931 130.159 17.6402 125.522C17.2053 121.078 15.9243 116.826 13.4337 113.105L11.2887 114.55C12.4982 115.297 14.5896 114.73 14.6492 113.111C14.673 112.43 14.1427 111.653 13.8567 111.057L11.4257 112.298C14.4883 114.478 15.4357 118.53 15.96 122.065C16.669 126.853 16.7346 131.797 16.7942 136.626C16.8299 139.667 16.7942 142.715 16.6869 145.756L19.6244 145.659C19.3801 144.094 19.0166 142.552 18.7127 140.992C18.4267 139.535 15.5548 139.776 15.8051 141.402C16.2281 144.13 16.6452 147.026 16.5022 149.79L19.4396 149.694C18.3135 143.955 17.1815 138.21 16.0553 132.471C15.8945 131.658 15.7336 130.845 15.5787 130.038C15.3284 128.762 12.6472 128.726 12.6412 130.135C12.6412 131.291 12.8557 132.477 13.0166 133.615C13.2728 135.476 13.5588 137.337 13.8448 139.198C14.3751 142.636 14.9828 146.075 15.3999 149.525C15.4118 149.628 15.4238 149.73 15.4357 149.839C15.4357 149.839 15.4238 149.549 15.4357 149.826C15.4655 150.471 15.5131 151.109 15.5727 151.753C15.6502 152.597 15.7455 153.446 15.8945 154.283C15.954 154.638 16.097 155.023 16.1268 155.379C16.1626 155.824 16.0613 156.318 16.0434 156.77C15.9064 159.829 16.1864 163.28 18.5817 165.459C20.673 167.362 23.9918 167.615 25.7852 165.158C26.5956 164.044 27.0126 162.732 27.7038 161.551C28.3175 160.491 29.2768 159.841 30.4387 159.528C31.7137 159.185 33.0901 159.203 34.395 159.161C36.2718 159.1 38.1487 159.04 40.0255 158.974C43.678 158.853 47.3364 158.733 50.9888 158.613C52.5082 158.564 54.0692 158.402 55.5826 158.57C56.5777 158.679 57.388 159.13 57.8289 160.076C58.8001 162.165 58.2758 164.671 58.955 166.839C59.3185 168.007 60.0454 169.055 61.1596 169.597C62.6015 170.289 64.3294 170.036 65.6283 169.139C66.9272 168.242 67.6958 166.814 68.2559 165.393C68.8815 163.815 69.3701 162.165 69.8289 160.534C71.676 153.933 72.6174 147.123 73.1179 140.3C73.3741 136.849 73.5171 133.387 73.6124 129.924C73.6601 128.178 73.6899 126.431 73.7316 124.685C73.7673 123.258 73.821 121.8 74.1248 120.403C74.4287 119.006 75.0484 117.802 76.1149 116.85C77.1814 115.899 78.2659 115.11 78.9809 113.845C80.1785 111.726 80.2738 108.877 79.4158 106.619C78.9928 105.499 78.3612 104.493 77.4615 103.704C76.9014 103.216 75.9779 103.132 75.3582 103.554C74.7803 103.951 74.7028 104.728 75.245 105.198C76.8597 106.613 77.2291 109.076 76.8657 111.111C76.675 112.183 76.1864 113.153 75.4297 113.924C74.4585 114.911 73.2669 115.622 72.4863 116.802C70.9133 119.181 70.8061 122.174 70.7525 124.938C70.6869 128.304 70.6035 131.67 70.4486 135.03C70.1387 141.661 69.5429 148.297 68.1904 154.807C67.5409 157.944 66.7246 161.075 65.6164 164.08C65.1695 165.291 64.5856 166.887 63.3642 167.513C62.6432 167.88 62.2381 167.387 61.9699 166.736C61.1298 164.713 61.5707 162.334 60.9451 160.244C60.1288 157.51 57.7276 156.288 55.0345 156.186C53.4496 156.125 51.8468 156.252 50.2678 156.306C48.4923 156.366 46.7107 156.421 44.9352 156.481C41.3781 156.595 37.821 156.716 34.2639 156.83C31.5529 156.92 28.5797 156.932 26.393 158.817C25.3681 159.702 24.7604 160.865 24.1944 162.075C23.7892 162.942 23.3125 164.303 22.3115 164.616C22.1626 164.665 21.8766 164.616 21.6085 164.502C21.1675 164.309 20.7683 163.972 20.4526 163.611C19.529 162.551 19.1834 161.088 19.0404 159.715C18.8736 158.089 19.2788 156.39 18.9868 154.795C18.6949 153.199 18.528 151.711 18.4148 150.128C18.2063 147.237 17.6224 144.352 17.1815 141.498C16.6512 138.078 16.0792 134.651 15.68 131.207C15.674 131.146 15.668 131.092 15.6621 131.032C15.6442 130.851 15.6859 131.327 15.6621 131.062C15.6561 130.966 15.6442 130.875 15.6383 130.779C15.6263 130.628 15.6144 130.472 15.6204 130.321L12.6829 130.418C13.8091 136.157 14.9411 141.902 16.0673 147.64C16.2281 148.453 16.389 149.266 16.5439 150.073C16.8001 151.368 19.4099 151.374 19.4814 149.977C19.6363 147.008 19.1775 143.889 18.7246 140.962L15.817 141.372C16.1209 142.925 16.4784 144.473 16.7286 146.039C16.9312 147.339 19.6184 147.333 19.6661 145.942C19.8567 140.408 19.821 134.868 19.529 129.334C19.2966 124.89 19.1358 120.18 17.4496 116.001C16.6333 113.966 15.4416 112.051 13.6422 110.768C13.0702 110.365 12.3493 110.184 11.6998 110.539C11.11 110.858 10.9133 111.4 11.2112 112.015L11.527 112.665C11.5866 112.791 11.6402 112.93 11.7117 113.05L11.7713 113.171C11.5509 112.803 11.7594 112.575 12.3969 112.49L13.1358 112.701C13.0643 112.677 12.9987 112.647 12.9332 112.605C12.0514 112.063 9.93617 112.773 10.7882 114.05C13.2013 117.657 14.393 121.806 14.7445 126.118C15.1199 130.683 14.8935 135.283 15.5489 139.83L18.4565 139.421L18.4327 139.3C18.2063 137.999 15.5608 138.005 15.4953 139.396C15.4595 140.179 15.6204 140.992 15.7217 141.769C15.9004 143.118 16.103 144.455 16.3115 145.798C16.7703 148.779 17.2649 151.76 17.6998 154.746C17.7832 155.312 17.8607 155.873 17.9322 156.439C17.9441 156.547 17.956 156.655 17.9679 156.764C17.9918 156.981 17.9858 156.999 17.9739 156.818C17.9799 156.944 17.9977 157.071 17.9977 157.197L20.9352 157.101C20.3274 154.078 19.7197 151.055 19.1119 148.032C17.8786 141.896 16.6452 135.753 15.4118 129.617C14.4406 124.769 13.4635 119.921 12.4923 115.074L12.1884 113.562C11.9858 112.557 11.4794 111.726 11.0921 110.786C11.0921 110.78 10.9789 110.365 10.961 110.359C10.9431 110.359 10.4069 110.72 10.4069 110.744C10.4069 110.744 11.4674 110.864 11.5449 110.876C12.3493 110.979 13.1536 111.099 13.958 111.238C14.679 111.364 15.394 111.509 16.109 111.665C16.5975 111.774 17.2887 111.816 17.6522 112.213C18.248 112.858 18.1586 114.044 18.1944 114.887C18.3791 119.078 18.5638 123.264 18.7544 127.455C19.0285 133.694 19.3086 139.932 19.5826 146.165L19.8686 152.615C19.8925 153.151 19.9103 153.681 19.9401 154.216C19.9401 154.301 19.9401 154.391 19.9521 154.475C20.0474 155.818 21.1735 156.336 22.3711 156.499C23.9143 156.704 25.4694 156.252 26.8994 155.71C28.3294 155.168 29.7296 154.602 31.1834 154.144C33.9838 153.259 36.8676 152.669 39.7693 152.259C42.671 151.85 45.668 151.615 48.6293 151.476C51.382 151.35 54.2063 151.157 56.965 151.302C57.823 151.344 58.812 151.452 59.4377 152.133C60.242 153.006 60.2837 154.247 61.4039 154.885C62.667 155.608 64.3473 155.21 65.2708 154.12C66.099 153.145 66.3374 151.669 66.3016 150.423C66.248 148.682 63.6382 148.49 63.2748 150.152C63.1437 150.76 63.0722 151.38 62.9888 151.994C62.2976 156.969 61.7554 161.961 61.0941 166.935C61.0524 167.248 61.0106 167.555 60.963 167.862C60.9511 167.947 60.9272 168.043 60.9213 168.127C60.9034 168.362 61.0047 167.88 60.9689 167.941L61.386 167.453C62.0891 167.507 62.7862 167.555 63.4893 167.603C63.6025 167.784 63.7217 167.965 63.8349 168.145C63.8766 168.278 63.8289 168.555 63.8647 168.308C63.8825 168.218 63.8766 168.115 63.8825 168.019C63.9064 167.7 63.9362 167.374 63.966 167.055C64.0672 165.965 64.1745 164.869 64.2817 163.779C64.6154 160.425 64.9669 157.065 65.3185 153.711C65.9262 147.905 66.5101 142.094 67.1775 136.295C67.6541 132.14 68.1963 127.979 68.3632 123.8C68.4585 121.457 68.3215 119.157 68.0891 116.826C67.964 115.543 67.8508 114.267 67.7793 112.984C67.6958 111.551 67.529 110.202 66.0812 109.558C64.6333 108.913 63.096 109.443 61.672 109.744C58.3473 110.443 55.0285 111.178 51.7217 111.936C50.0414 112.322 48.3612 112.713 46.6869 113.117C46.3175 113.207 45.9481 113.303 45.5787 113.382C45.4655 113.406 45.1735 113.496 45.0841 113.466C45.0782 113.466 45.1854 113.46 45.1854 113.466C44.965 113.321 44.822 112.972 44.6849 112.755C44.4228 112.34 44.1666 111.924 43.9103 111.509C43.2073 110.377 42.2361 109.154 42.0633 107.775C42.0097 107.348 42.0335 106.787 42.4684 106.565C42.9987 106.288 43.8091 106.312 44.393 106.246C47.5747 105.86 50.7862 105.969 53.9799 106.065C57.1735 106.161 60.534 106.246 63.7872 105.86C65.3185 105.679 66.8081 105.354 68.2976 104.987C69.6025 104.668 70.9491 104.312 72.2957 104.276C73.3681 104.252 74.393 104.493 75.239 105.18C75.817 105.649 76.7048 105.764 77.3423 105.33C77.9024 104.945 78.0216 104.138 77.4555 103.686L77.4794 103.71Z" fill="white"/>
<path d="M17.2829 141.197C17.1995 140.685 17.1161 140.173 17.0208 139.661C17.0565 139.89 17.0863 140.125 17.128 140.354C17.1757 140.637 17.2293 140.914 17.2829 141.197Z" fill="white"/>
<path d="M18.427 141.643C18.3436 141.131 18.2602 140.619 18.1649 140.107C18.0993 139.74 17.9504 139.402 17.724 139.107C17.6108 138.945 17.4678 138.812 17.3128 138.698C17.1818 138.583 17.0388 138.493 16.8719 138.427C16.6336 138.349 16.3178 138.276 16.1093 138.469C15.9007 138.662 15.8411 138.933 15.8829 139.21C15.9603 139.722 16.0437 140.233 16.145 140.745C16.1629 140.92 16.2165 141.089 16.294 141.239C16.3655 141.426 16.4608 141.594 16.5859 141.745C16.6991 141.908 16.8421 142.04 16.9971 142.154C17.1281 142.269 17.2711 142.359 17.438 142.425C17.6763 142.504 17.9921 142.576 18.2006 142.383C18.4092 142.191 18.4807 141.914 18.427 141.643C18.3317 141.131 18.2423 140.619 18.1649 140.107L15.8769 139.21C15.9722 139.722 16.0556 140.233 16.1391 140.745C16.1986 141.113 16.3595 141.456 16.58 141.745C16.6932 141.908 16.8362 142.04 16.9911 142.154C17.1222 142.269 17.2652 142.359 17.432 142.425C17.6703 142.504 17.9861 142.576 18.1947 142.383C18.4032 142.191 18.4628 141.914 18.4211 141.643H18.427Z" fill="white"/>
<path d="M67.2194 133.302C60.6116 132.537 53.986 131.899 47.3485 131.393C46.979 131.363 46.5203 131.387 46.3653 131.7C46.2283 131.989 46.4726 132.309 46.699 132.549C47.6583 133.543 48.6176 134.537 49.5769 135.53C49.7973 135.759 50.0178 135.988 50.3038 136.145C50.7149 136.367 51.2094 136.409 51.6801 136.446C56.1608 136.789 60.6414 137.132 65.122 137.475" fill="white"/>
<path d="M67.0288 131.893C60.9036 131.182 54.7666 130.58 48.6236 130.092C47.5034 130.002 45.6802 129.563 45.1916 130.972C44.6613 132.507 46.3058 133.778 47.2234 134.729C48.2065 135.747 49.2254 137.198 50.6196 137.626C52.0139 138.053 53.5452 137.963 54.9454 138.072C58.4012 138.337 61.8629 138.601 65.3187 138.866C67.0407 138.999 66.3495 136.163 64.9374 136.054C61.5769 135.795 58.2165 135.536 54.856 135.283C54.0278 135.217 53.1996 135.157 52.3714 135.091C51.8113 135.049 50.9771 135.133 50.5005 134.808C49.8868 134.392 49.3744 133.645 48.856 133.115C48.3674 132.616 47.6167 132.068 47.3128 131.453L47.5749 132.182L47.5452 132.001L47.4796 132.676C47.4379 132.857 47.2174 132.688 47.3426 132.784C47.4379 132.851 47.849 132.814 47.9742 132.826C48.4151 132.863 48.85 132.893 49.2909 132.929C50.1191 132.995 50.9473 133.061 51.7755 133.134C53.5332 133.284 55.285 133.441 57.0367 133.609C60.4925 133.94 63.9483 134.308 67.3982 134.705C69.1023 134.904 68.423 132.056 67.0169 131.893H67.0288Z" fill="white"/>
</g>
<path d="M68.74 254.435C71.1867 254.569 73.6528 253.07 75.0436 250.596C74.6637 252.48 72.8415 253.3 71.2704 253.441C69.6994 253.582 67.9866 253.403 66.6667 254.473C68.7722 254.332 70.9421 254.172 72.8544 253.07C74.7667 251.967 76.3765 249.673 76.3314 247.077C75.7455 248.641 74.8505 250.032 73.7494 251.096C76.2348 249.288 77.0912 245.43 77.529 241.917C78.4949 234.098 78.4176 226.086 77.3037 218.298C75.6424 224.663 75.7455 231.918 72.5582 237.334C68.8945 243.558 62.0822 245.346 55.8815 246.314C45.9528 247.872 35.3544 248.397 26.4624 242.744L27.3831 242.981C24.2667 240.642 22.3093 236.443 21.395 232.091C20.4807 227.739 20.4871 223.189 20.5 218.696C20.5193 211.639 20.545 204.588 20.5644 197.531C20.5644 196.493 20.5579 195.384 20.0879 194.513C19.65 193.699 18.8903 193.256 18.1755 192.846C15.9992 191.616 13.8229 190.379 11.6401 189.148C13.5009 190.782 15.3618 192.417 17.2162 194.045C15.0269 192 12.7025 190.167 10.2815 188.571C10.8546 189.276 11.4212 189.988 11.9942 190.693L10.8674 189.686L11.1701 189.757C14.074 194.032 14.3895 200.05 14.4603 205.62C14.5505 212.985 14.4474 220.356 14.1384 227.707C13.9774 231.547 13.7649 235.405 14.177 239.219C14.5891 243.026 15.6708 246.833 17.7957 249.653C20.7897 253.621 25.3613 255.076 29.7011 255.992C43.9503 259.005 58.7147 258.242 72.7127 253.775" fill="white"/>
<path d="M68.8639 255.724C72.0525 255.839 74.7427 253.855 76.2891 251.187L73.273 250.246C72.9983 251.417 71.733 251.954 70.6531 252.057C68.8575 252.223 67.0172 252.127 65.4964 253.273C64.2503 254.213 65.4964 255.845 66.7999 255.756C69.4518 255.576 72.2826 255.301 74.4488 253.605C76.3786 252.095 77.6311 249.811 77.6374 247.334C77.6374 245.984 75.2156 244.858 74.6213 246.394C74.0782 247.808 73.3178 249.043 72.2442 250.112C71.0876 251.27 73.4136 253.036 74.5255 252.185C76.5767 250.623 77.5608 248.32 78.1614 245.869C78.8388 243.098 79.0816 240.218 79.2733 237.377C79.7078 230.997 79.4586 224.579 78.5704 218.25C78.4809 217.603 77.7461 217.104 77.1518 216.989C76.6406 216.893 75.7396 217.047 75.5798 217.661C73.5031 225.782 74.2635 236.225 66.3271 241.332C63.0937 243.412 59.2852 244.301 55.5407 244.915C51.0612 245.645 46.4988 246.125 41.9618 245.933C36.8753 245.715 31.808 244.474 27.4756 241.735L26.4915 244.007L27.4053 244.243C27.974 244.391 28.728 244.141 28.9773 243.572C29.2392 242.97 28.8686 242.33 28.3958 241.965C25.8397 239.988 24.3764 236.84 23.5265 233.794C22.4275 229.884 22.2613 225.788 22.2358 221.75C22.2102 217.469 22.2549 213.182 22.2677 208.901C22.2677 206.795 22.2805 204.696 22.2869 202.591C22.2933 200.486 22.4338 198.31 22.2421 196.204C22.1527 195.2 21.8332 194.24 21.1942 193.446C20.5104 192.595 19.5519 192.083 18.619 191.559C16.5486 190.381 14.4782 189.197 12.4079 188.02C11.8328 187.694 10.8806 187.841 10.5228 188.417C10.1202 189.076 10.4972 189.709 11.0084 190.17C12.8552 191.802 14.7019 193.434 16.5422 195.059C17.7116 196.089 19.9673 194.662 18.6062 193.395C16.3569 191.296 13.9798 189.37 11.4238 187.662C10.8423 187.271 9.97326 187.098 9.39816 187.591C8.82305 188.084 8.92529 188.781 9.35982 189.325C9.92853 190.029 10.4909 190.74 11.0596 191.443L13.1236 189.78L12.0053 188.775L11.0212 191.047L11.3216 191.117L10.0244 190.196C11.9606 193.126 12.6251 196.62 12.9255 200.07C13.2705 204.012 13.1811 208.017 13.1683 211.972C13.1555 216.228 13.0724 220.483 12.9255 224.732C12.7785 228.981 12.4526 233.154 12.7274 237.351C12.9766 241.178 13.6987 245.101 15.6157 248.473C17.3921 251.609 20.1654 253.906 23.4435 255.346C26.7216 256.786 30.2425 257.432 33.7059 257.989C37.7252 258.642 41.8021 259 45.8789 259.07C55.1189 259.224 64.3781 257.816 73.1836 255.007C75.1006 254.393 73.42 251.929 71.8353 252.441C64.1161 254.905 56.0838 256.268 47.9749 256.396C44.0194 256.46 40.064 256.236 36.1405 255.711C32.6835 255.25 29.0859 254.706 25.795 253.516C22.7789 252.428 20.1143 250.649 18.4784 247.821C16.6061 244.576 15.9416 240.724 15.7754 237.025C15.5901 232.866 15.916 228.7 16.0502 224.547C16.1844 220.394 16.2611 216.144 16.2675 211.947C16.2738 207.749 16.3569 203.141 15.8521 198.783C15.6285 196.851 15.2578 194.925 14.5997 193.088C14.2802 192.192 13.9159 191.315 13.4622 190.484C13.213 190.036 12.9446 189.511 12.606 189.121C12.2417 188.705 11.7433 188.557 11.2257 188.442C10.6506 188.314 9.90936 188.532 9.65376 189.114C9.37899 189.741 9.78795 190.317 10.2353 190.72L11.3535 191.725C12.5421 192.794 14.5677 191.495 13.4175 190.061C12.8488 189.357 12.2865 188.647 11.7177 187.943L9.65376 189.607C11.9797 191.162 14.1907 192.89 16.2355 194.803L18.2995 193.139C16.4528 191.507 14.606 189.876 12.7657 188.25L11.3727 190.394C13.2194 191.443 15.0661 192.499 16.9128 193.549C17.4752 193.869 18.2292 194.189 18.6701 194.681C19.2197 195.289 19.1877 196.249 19.1941 197.024C19.2197 201.209 19.1685 205.4 19.1558 209.585C19.143 213.77 19.0727 218.128 19.143 222.403C19.2069 226.345 19.4433 230.357 20.5424 234.165C21.6415 237.972 23.4946 241.517 26.6257 243.93L27.6098 241.658L26.696 241.421C25.2391 241.044 24.4339 242.887 25.7119 243.693C34.3705 249.171 44.6776 249.286 54.5119 247.872C58.691 247.27 62.9084 246.515 66.7105 244.589C70.5125 242.663 73.6437 239.201 75.1837 235.009C77.0751 229.845 77.1646 224.259 78.5193 218.967L75.5287 218.371C76.353 224.271 76.5831 230.242 76.2188 236.187C76.0527 238.9 75.8354 241.658 75.2923 244.32C74.8897 246.285 74.1932 248.646 72.519 249.92L74.8003 251.993C76.0144 250.777 76.9345 249.292 77.5544 247.693L74.5383 246.752C74.5383 248.588 73.7203 250.335 72.2634 251.475C70.5509 252.812 68.2888 252.959 66.2056 253.106L67.5092 255.589C69.03 254.444 71.0557 255.007 72.7938 254.501C74.6341 253.97 75.9249 252.748 76.3658 250.873C76.532 250.163 75.6885 249.497 75.1262 249.331C74.4296 249.126 73.7331 249.28 73.3561 249.939C72.2954 251.775 70.4422 253.151 68.2696 253.068C67.5284 253.042 66.883 253.708 67.0427 254.45C67.2217 255.282 68.0843 255.717 68.8639 255.743V255.724Z" fill="white"/>
<g clip-path="url(#clip1_34_494)">
<path d="M82.6885 70.586C80.89 67.6694 78.4828 64.6669 75.1866 64.3238C73.8804 64.1879 72.5742 64.5025 71.2818 64.7741C66.7956 65.7178 62.2206 66.1681 57.6661 66.6256C48.7554 67.5121 39.8516 68.3914 30.9409 69.2778C28.0413 69.5638 25.1144 69.8497 22.2149 69.4923C21.1822 69.3636 20.1017 69.1205 19.3563 68.3628C18.8161 67.8123 18.5152 67.0546 18.31 66.2968C17.8245 64.4882 17.7903 62.5795 17.7698 60.6994C17.633 50.3195 17.4962 39.9325 17.3595 29.5526C17.3047 25.1276 17.3936 20.2593 20.1906 16.9424C23.3501 13.1893 28.7184 12.8247 33.4985 12.7318L71.5416 11.9883C73.2513 11.9526 75.3712 11.6309 75.9183 9.93665C76.4859 8.19238 74.8925 6.55533 73.4701 5.46158C71.61 4.0247 69.7431 2.58067 67.883 1.14378L69.9072 2.95955C67.6231 0.643376 63.8892 1.69423 60.8324 2.63071C53.8639 4.75386 46.5808 5.43299 39.3524 6.10496C34.4764 6.55533 29.6005 7.0057 24.7041 7.01285C18.31 7.01285 11.8886 6.26223 5.5492 7.08433C5.04315 7.14867 4.51657 7.23445 4.11994 7.56329C3.16253 8.3568 3.54549 10.0439 4.42767 10.9232C5.30985 11.8025 6.52712 12.2314 7.48452 13.032C9.625 14.8263 10.0011 18.0433 10.0422 20.9099C10.1858 30.003 10.2747 39.0604 10.0216 48.1463C9.81648 55.4189 9.9145 61.4166 10.3157 66.1395C10.5892 69.3707 6.01423 71.8013 7.04001 74.8538C7.96322 77.606 11.4577 78.2708 14.2069 77.7347C15.4994 77.4845 16.7508 77.077 18.0023 76.6552C18.8024 76.6552 19.5957 76.6552 20.3958 76.6552C22.8577 76.6552 25.3264 76.6481 27.7883 76.548C32.7668 76.3478 37.7453 75.7759 42.7101 75.1683C43.4829 75.1183 44.2556 75.0611 45.0284 75.0039L66.9324 73.9888C68.731 74.1032 70.5227 74.3033 72.3144 74.6179C75.3849 75.154 78.6196 76.0119 81.5191 74.8466C82.3876 74.4963 83.2766 73.8601 83.4271 72.895C83.557 72.0801 83.1262 71.2937 82.6954 70.6003L82.6885 70.586ZM19.3974 76.1691C20.6351 75.7545 21.8798 75.3756 23.1654 75.1612C26.0581 74.6822 29.0056 75.0897 31.9325 75.2755C33.3891 75.3685 34.8457 75.3971 36.3024 75.3899L19.3974 76.1691Z" fill="white"/>
<path d="M84.2129 69.7781C82.8725 67.6121 81.2518 65.3745 79.0292 64.1378C76.2254 62.5866 73.3532 63.3944 70.4058 63.952C63.8476 65.1958 57.1526 65.6319 50.526 66.2896C43.8789 66.9473 37.2318 67.6335 30.5778 68.2626C28.9571 68.4127 27.3363 68.5414 25.7087 68.5271C24.3273 68.5128 22.5903 68.57 21.3457 67.848C20.0122 67.0759 19.6908 65.2173 19.5198 63.7732C19.3283 62.1576 19.3488 60.5135 19.3283 58.8836C19.2394 51.9207 19.1437 44.9579 19.0548 38.0023C19.0138 34.621 18.9385 31.2396 18.9249 27.8655C18.918 25.1132 18.9932 22.2251 19.9712 19.6302C20.8191 17.3926 22.3373 15.7413 24.512 14.9335C26.6867 14.1257 29.2648 13.9398 31.6652 13.8683C38.2302 13.6682 44.7952 13.6038 51.3603 13.4752L61.3788 13.2822C64.634 13.2178 67.9029 13.2536 71.158 13.082C73.49 12.9605 76.793 12.0955 77.4906 9.37898C78.2291 6.51951 74.9193 4.53218 73.107 3.13104C71.8214 2.13737 70.5357 1.14371 69.2501 0.150041C68.3816 -0.521934 65.5093 1.22234 66.5078 2.11593C67.1848 2.72356 67.855 3.32405 68.532 3.93169C69.3595 4.67515 72.2454 2.89513 71.2743 1.9658C68.2858 -0.907963 63.6219 0.850611 60.2436 1.83713C55.6891 3.16678 50.9637 3.85305 46.2655 4.37491C41.4717 4.90391 36.6505 5.36143 31.8361 5.66167C26.7961 5.97621 21.7902 5.79035 16.7502 5.63307C14.2883 5.55444 11.8196 5.5187 9.35766 5.66882C7.14196 5.80464 4.13981 5.72601 2.60113 7.72049C1.42489 9.24316 2.10191 11.1876 3.46963 12.2813C4.2971 12.939 5.2887 13.325 6.09565 14.0113C6.80003 14.6047 7.2924 15.3982 7.64801 16.2703C8.44813 18.2433 8.44129 20.4308 8.47548 22.5325C8.51651 25.1275 8.55071 27.7225 8.57122 30.3174C8.61909 35.5002 8.61225 40.6902 8.50284 45.873C8.3729 52.0709 8.03097 58.2402 8.53703 64.4309C8.66012 65.8964 8.96786 67.319 8.27716 68.6772C7.58646 70.0355 6.53332 71.1221 5.84946 72.4732C5.1656 73.8243 5.10405 75.3398 5.97256 76.6123C6.92312 77.9991 8.50284 78.6782 10.0757 78.907C12.1205 79.2072 14.09 78.8069 16.0526 78.2279C16.5587 78.0777 17.1058 77.7918 17.6187 77.7275C17.1331 77.7918 18.2478 77.7704 18.1863 77.7704C18.412 77.7704 18.6445 77.7704 18.8701 77.7704C20.2173 77.7704 21.5645 77.7703 22.9118 77.7561C27.9039 77.706 32.8619 77.32 37.8267 76.7624C42.1487 76.2763 46.4023 76.0118 50.738 75.8116L64.2374 75.1897C66.0154 75.1039 67.684 75.1897 69.4757 75.4399C73.8866 76.0404 78.7831 77.7418 82.8999 75.0682C83.7137 74.5392 84.5206 73.8028 84.8489 72.8306C85.2113 71.744 84.7395 70.7075 84.1924 69.7996C83.5496 68.7273 80.5406 70.4144 81.1424 71.408C81.4775 71.9585 82.3186 73.2595 81.5869 73.8386C81.0671 74.2532 80.014 74.2746 79.3985 74.2961C77.2649 74.3747 75.1654 73.8171 73.066 73.4668C70.9665 73.1166 68.7508 72.8163 66.583 72.9164C62.5209 73.1023 58.4519 73.2953 54.3898 73.4811C51.3056 73.6241 48.2145 73.7028 45.1372 73.9315C40.3912 74.2818 35.6862 75.011 30.9334 75.3112C28.5741 75.4542 26.2148 75.5114 23.8555 75.5328C22.7339 75.54 21.6056 75.54 20.4841 75.54C19.9164 75.54 19.342 75.5042 18.7744 75.54C18.0769 75.5829 17.4135 75.8974 16.7502 76.1047C14.2131 76.9054 9.60385 77.5773 8.53019 74.053C8.14039 72.7734 8.96102 71.6153 9.64488 70.636C10.486 69.4278 11.4229 68.2126 11.7512 66.7256C12.0384 65.4103 11.7033 63.9234 11.6007 62.5937C11.5187 61.5429 11.4434 60.4849 11.4024 59.434C11.2998 56.9105 11.375 54.387 11.4366 51.8636C11.6896 42.1771 11.7512 32.5049 11.6144 22.8185C11.5597 19.1941 11.8264 14.5832 8.81741 12.0454C7.56595 10.9946 5.09038 10.3726 5.09038 8.30668C5.09038 8.32812 5.12457 7.84916 5.13825 7.85631L4.85103 8.04933C4.4749 8.24234 4.46123 8.29238 4.81683 8.1923C5.2887 8.24949 5.89049 8.05648 6.37603 8.01358C7.60014 7.90635 8.83109 7.84916 10.062 7.82057C14.7738 7.72764 19.4788 8.14226 24.1974 8.12081C28.8682 8.09937 33.5252 7.6776 38.1755 7.24868C42.8257 6.81975 47.2913 6.41943 51.8048 5.66167C54.0479 5.28994 56.2772 4.82527 58.4793 4.23908C60.3394 3.73868 62.1653 3.0667 64.0664 2.7736C65.694 2.51625 67.26 2.73786 68.5047 3.93884L71.2469 1.97295C70.5699 1.36532 69.8997 0.764827 69.2227 0.15719L66.4804 2.12308C67.814 3.15248 69.1406 4.18189 70.4742 5.20415C71.5889 6.062 72.8814 6.87694 73.7362 8.03503C74.0713 8.49254 74.3927 9.04299 74.4337 9.63633C74.4542 9.90798 74.42 10.1868 74.3106 10.437C74.2969 10.4584 74.2491 10.6371 74.338 10.5299C73.8935 11.0589 71.965 10.8659 71.3085 10.8802L51.2646 11.2734C44.8431 11.4021 38.3943 11.3449 31.9866 11.6809C26.8645 11.9525 21.038 13.2178 18.029 18.036C15.02 22.8542 15.7517 29.5025 15.827 35.0713C15.9159 41.9769 16.0048 48.8754 16.1005 55.781C16.1415 59.1123 15.909 62.6152 16.4972 65.8964C16.7502 67.3118 17.1605 68.8345 18.3641 69.6852C19.4788 70.4716 20.9217 70.5931 22.2211 70.7003C25.5241 70.9791 28.8545 70.5287 32.137 70.1999C35.4195 69.8711 38.791 69.5422 42.1145 69.2134C48.7548 68.5557 55.4019 67.9624 62.0353 67.2118C65.3179 66.84 68.5457 66.3039 71.7872 65.6605C73.1754 65.3888 74.5158 65.2959 75.8356 65.8893C76.9845 66.404 77.9898 67.2832 78.8514 68.2269C79.7131 69.1705 80.4585 70.2857 81.1424 71.3937C81.8262 72.5018 84.801 70.7647 84.1924 69.7853L84.2129 69.7781Z" fill="white"/>
<path d="M19.3564 77.1342C21.9755 76.2692 24.4716 75.9618 27.2139 76.1119C29.9562 76.2621 32.719 76.5123 35.4886 76.5051L37.1093 74.2604C32.1856 74.4892 27.2549 74.7179 22.3311 74.9396C21.6199 74.9753 20.9156 75.0039 20.2043 75.0396C19.4247 75.0754 18.5084 75.49 18.0433 76.1763C17.6672 76.741 17.8519 77.3201 18.5768 77.2843C23.5005 77.0556 28.4312 76.8268 33.355 76.6052C34.0662 76.5694 34.7705 76.5408 35.4818 76.5051C36.2614 76.4694 37.1777 76.0547 37.6428 75.3685C38.0394 74.7823 37.8206 74.2604 37.1093 74.2604C34.1209 74.2604 31.1666 73.953 28.1781 73.8387C25.1897 73.7243 22.3175 74.239 19.4316 75.1969C18.8708 75.3828 17.7972 75.9904 17.8177 76.7339C17.845 77.5131 18.9255 77.2772 19.3495 77.1342H19.3564Z" fill="white"/>
</g>
<path d="M29.5827 334.117C33.7155 338.893 38.0277 343.508 42.5129 347.956C42.8974 348.341 43.3267 348.745 43.8713 348.802C44.5121 348.873 45.0887 348.444 45.5885 348.033C47.8888 346.155 50.2788 344.168 51.4513 341.437C52.4445 339.13 52.4637 336.534 52.4637 334.021C52.4765 318.669 52.4829 303.323 52.4957 287.971C52.4957 287.618 52.5021 287.234 52.7008 286.939C53.0275 286.439 53.726 286.381 54.3219 286.375C59.2556 286.311 64.1957 286.24 69.1295 286.176C70.7313 286.157 72.378 286.144 73.8646 286.727C75.287 287.291 76.4468 288.356 77.7923 289.086C79.1379 289.817 80.8935 290.176 82.1366 289.285C83.4757 288.33 83.6231 286.298 82.9119 284.811C82.2006 283.324 80.8487 282.272 79.548 281.266C78.1255 280.17 76.6518 279.055 74.9154 278.625C73.698 278.324 72.4229 278.388 71.167 278.446C49.2856 279.548 27.417 281.061 5.59326 282.978C5.75345 283.657 6.36856 284.119 6.93882 284.522C9.23269 286.151 11.5266 287.779 13.8268 289.407C14.365 289.785 14.9161 290.176 15.5568 290.336C16.3834 290.541 17.2484 290.343 18.0814 290.163C25.2 288.586 32.5366 288.016 39.8154 288.477C40.5074 288.522 41.2379 288.586 41.8145 288.977C42.8141 289.657 42.9807 291.041 43.0384 292.246C43.7496 307.329 41.3148 322.355 38.8927 337.258C35.9581 336.232 33.0235 335.213 30.0889 334.188" fill="white"/>
<path d="M28.1922 334.668C30.4604 337.284 32.7799 339.86 35.1506 342.38C36.336 343.642 37.5342 344.886 38.7516 346.123C39.8345 347.226 40.9366 348.674 42.2885 349.45C43.8455 350.354 45.5051 349.802 46.8122 348.745C47.9912 347.79 49.1637 346.809 50.2274 345.719C52.4571 343.431 53.6746 340.719 53.9565 337.534C54.264 334.053 54.0654 330.495 54.0718 327.002C54.0782 323.508 54.0718 319.752 54.0782 316.13C54.0782 308.99 54.091 301.849 54.091 294.702C54.091 292.887 54.091 291.08 54.091 289.266C54.091 288.843 54.0782 288.413 54.091 287.984C54.091 287.965 54.1807 287.176 53.918 287.522C54.0013 287.42 54.4947 287.484 54.6229 287.477C55.1483 287.471 55.6737 287.465 56.1991 287.458C59.768 287.407 63.337 287.362 66.9123 287.311C68.4822 287.291 70.1032 287.157 71.6602 287.349C73.2173 287.541 74.345 288.381 75.6136 289.221C77.9844 290.798 81.7712 291.996 83.9753 289.432C85.9232 287.163 84.6225 284.022 82.7451 282.221C80.5922 280.157 77.7922 277.939 74.7807 277.446C73.1147 277.17 71.4168 277.324 69.738 277.414C67.9311 277.503 66.1242 277.599 64.3237 277.702C60.7676 277.894 57.2051 278.099 53.6489 278.311C39.277 279.176 24.918 280.228 10.5781 281.439C8.77761 281.593 6.97712 281.747 5.17663 281.907C4.52307 281.965 3.81825 282.567 4.04251 283.266C4.43337 284.477 5.5803 285.157 6.56064 285.849C7.75242 286.695 8.9442 287.535 10.1296 288.381C11.315 289.227 12.5003 290.195 13.7882 290.894C15.0761 291.593 16.5947 291.638 18.0684 291.336C23.7326 290.17 29.3839 289.42 35.1763 289.439C36.6115 289.439 38.0532 289.49 39.4885 289.573C39.8665 289.599 40.3855 289.561 40.7059 289.785C41.0775 290.048 41.2377 290.657 41.3146 291.08C41.5581 292.375 41.494 293.772 41.5196 295.08C41.5517 296.554 41.5581 298.028 41.5325 299.503C41.4492 305.464 40.9494 311.406 40.2317 317.323C39.4244 323.989 38.348 330.617 37.2715 337.245L39.6935 336.309C36.7589 335.284 33.8243 334.264 30.8897 333.239C30.1977 332.995 29.2045 332.989 28.6919 333.617C28.2242 334.188 28.6086 334.918 29.2558 335.143C32.1904 336.168 35.125 337.187 38.0596 338.213C38.9374 338.521 40.2958 338.386 40.4816 337.277C42.4039 325.457 44.3389 313.586 44.6977 301.592C44.7874 298.592 44.781 295.586 44.6465 292.586C44.5952 291.484 44.5247 290.311 43.9545 289.336C43.2753 288.17 42.0643 287.625 40.7636 287.465C37.8738 287.106 34.8687 287.17 31.9597 287.279C29.0508 287.388 26.0329 287.663 23.1047 288.093C21.4772 288.33 19.8625 288.625 18.2542 288.965C17.6135 289.099 16.7741 289.445 16.1141 289.317C15.5246 289.202 14.9288 288.618 14.4482 288.279C13.1283 287.343 11.8147 286.407 10.4948 285.477C9.81562 284.997 9.13643 284.516 8.45724 284.029C7.93183 283.657 7.34235 283.349 7.13731 282.708L6.00319 284.067C19.5806 282.875 33.1772 281.843 46.7801 280.971C53.6297 280.529 60.4728 280.131 67.3288 279.772C68.9883 279.683 70.6543 279.561 72.3138 279.529C73.7362 279.497 74.9793 279.734 76.2095 280.49C77.4398 281.247 78.5611 282.125 79.6311 283.042C80.5474 283.824 81.4572 284.83 81.6815 286.061C81.8353 286.913 81.6815 288.336 80.7075 288.663C79.7336 288.99 78.529 288.112 77.7794 287.612C76.4979 286.759 75.2612 285.913 73.7619 285.49C72.2625 285.067 70.6799 285.061 69.1293 285.08C65.7718 285.125 62.4079 285.17 59.0504 285.215C57.4101 285.234 55.7634 285.215 54.1231 285.285C52.7006 285.349 51.1372 285.817 50.9193 287.439C50.8104 288.24 50.8873 289.093 50.8873 289.894C50.8873 290.798 50.8873 291.708 50.8873 292.612C50.8873 294.317 50.8873 296.022 50.8873 297.727C50.8873 301.137 50.8873 304.547 50.8809 307.958C50.8809 314.836 50.8681 321.707 50.8681 328.585C50.8681 331.822 51.0988 335.168 50.6631 338.38C50.253 341.36 48.6127 343.617 46.4341 345.591C45.96 346.021 45.473 346.424 44.9797 346.828C44.717 347.046 44.4542 347.27 44.1787 347.469C44.1082 347.52 43.8263 347.668 43.8199 347.706C43.6725 347.77 43.7558 347.783 44.0698 347.764C44.435 347.847 44.4735 347.815 44.1851 347.661C43.7815 347.149 43.1856 346.694 42.7178 346.226C42.1091 345.61 41.5004 344.995 40.8981 344.373C38.6235 342.04 36.3937 339.662 34.2152 337.239C33.1259 336.027 32.0494 334.803 30.9794 333.572C30.4668 332.982 29.4929 332.873 28.7945 333.156C28.1986 333.393 27.6924 334.079 28.205 334.668H28.1922Z" fill="white"/>
<path d="M22.9288 373.701C34.6288 371.791 46.3608 370.079 58.1185 368.573C60.5277 368.265 63.1291 368.002 65.2372 369.208C67.0376 370.24 68.1782 372.336 68.0692 374.413C68.05 374.836 67.9539 375.297 67.6271 375.56C67.358 375.784 66.98 375.823 66.634 375.855C54.0113 376.97 41.3823 378.085 28.7596 379.201C28.215 379.252 27.6063 379.329 27.2538 379.746C27.0232 380.021 26.9463 380.393 26.8886 380.752C26.1774 384.893 26.0813 389.136 26.6131 393.303C34.1995 391.425 41.7923 389.54 49.5197 388.393C53.4218 387.816 57.6892 387.495 61.0275 389.598C63.379 391.079 64.8976 393.547 66.3392 395.925C63.1804 397.739 60.3226 400.264 58.7592 403.553C57.1958 406.841 57.1189 410.963 59.1373 413.988C48.0844 414.616 37.0572 415.565 26.0557 416.822C26.5106 421.411 26.344 426.065 25.5495 430.616C39.7163 429.501 53.9088 428.648 68.1141 428.058C69.1137 428.013 70.1709 427.988 71.0679 428.437C71.9842 428.892 72.5993 429.783 73.1504 430.648C74.1563 432.238 75.0662 433.885 75.8799 435.584C76.2451 436.347 76.5976 437.173 76.4502 438.007C76.1042 439.949 73.554 440.385 71.5869 440.372C57.1125 440.27 42.6381 439.866 28.1829 439.154C26.8438 439.09 25.3957 439.045 24.2744 439.776C23.6593 440.18 23.1915 440.776 22.5956 441.205C20.7503 442.526 17.9887 441.814 16.4637 440.135C14.9387 438.455 14.4069 436.09 14.2531 433.827C14.2083 433.18 14.2019 432.501 14.4902 431.917C14.849 431.199 15.5859 430.77 16.1882 430.238C17.8221 428.808 18.5141 426.539 18.5974 424.366C18.6807 422.193 18.2514 420.039 18.0271 417.873C17.6491 414.251 17.8541 410.591 17.9631 406.95C18.2258 398.38 17.9759 389.797 17.207 381.258C17.1429 380.515 17.0532 379.726 16.6239 379.118C16.0344 378.284 14.958 377.989 14.0801 377.47C12.4014 376.489 11.3506 374.528 11.4659 372.592C11.4851 372.291 11.5364 371.964 11.7606 371.765C12.0618 371.49 12.5359 371.56 12.9332 371.643C16.7713 372.464 20.6093 373.291 24.4538 374.111" fill="white"/>
<path d="M23.9284 374.733C30.8228 373.605 37.73 372.554 44.6436 371.566C48.1037 371.073 51.5637 370.599 55.0237 370.143C56.7473 369.913 58.4709 369.669 60.2009 369.483C61.5208 369.342 62.9817 369.22 64.2632 369.643C65.4102 370.022 66.0958 371.073 66.4354 372.188C66.6148 372.772 66.7045 373.445 66.6083 374.047C66.4802 374.868 65.8459 374.81 65.1539 374.874C61.6554 375.182 58.1505 375.496 54.6521 375.804C47.6487 376.425 40.6454 377.041 33.6485 377.662C31.6878 377.835 29.7207 377.977 27.76 378.182C27.0744 378.252 26.3119 378.387 25.8634 378.964C25.4149 379.541 25.3765 380.528 25.2739 381.239C24.7165 385.047 24.6973 388.912 25.1714 392.726C25.2868 393.636 26.722 394.566 27.6191 394.341C33.3345 392.925 39.0499 391.508 44.8295 390.399C47.5398 389.88 50.2822 389.374 53.031 389.117C55.3056 388.906 57.8622 388.867 59.9574 389.899C62.341 391.072 63.757 393.675 65.077 395.854L65.0962 394.982C61.8476 396.867 58.8233 399.514 57.2535 402.995C55.6837 406.476 55.7606 410.655 57.8686 413.918L58.1249 412.963C47.0721 413.597 36.0449 414.54 25.0433 415.796C24.8382 415.822 24.5819 416.007 24.6012 416.245C25.0433 420.847 24.8767 425.482 24.095 430.039C24.0181 430.488 24.6845 431.001 24.9728 431.193C25.4469 431.507 25.9724 431.699 26.5426 431.654C40.6518 430.545 54.7994 429.622 68.9471 429.103C69.4981 429.084 70.3375 428.949 70.8437 429.225C71.2858 429.462 71.619 430.174 71.8753 430.578C72.7787 432.001 73.5989 433.468 74.3357 434.981C74.8868 436.116 75.5019 437.558 74.2909 438.488C73.4515 439.129 72.2853 439.295 71.2602 439.327C67.7873 439.449 64.276 439.27 60.8032 439.212C57.3304 439.154 53.6717 439.071 50.1092 438.975C43.0354 438.782 35.9616 438.52 28.8877 438.18C27.414 438.109 25.8314 437.904 24.3833 438.263C23.7362 438.423 23.1403 438.699 22.6213 439.122C22.1023 439.545 21.6537 440.09 21.0578 440.436C20.2121 440.93 19.0972 440.994 18.2194 440.539C17.1685 439.994 16.6047 438.725 16.2523 437.661C15.823 436.366 15.5282 434.795 15.6692 433.43C15.8166 431.994 17.3864 431.366 18.2194 430.347C20.1031 428.046 20.1864 424.828 19.8853 422.014C19.6995 420.309 19.424 418.616 19.3214 416.905C19.2189 415.193 19.2189 413.366 19.2574 411.597C19.3407 408.129 19.4816 404.662 19.488 401.187C19.4944 397.713 19.4047 394.098 19.2381 390.559C19.1548 388.816 19.0459 387.072 18.9178 385.329C18.796 383.707 18.8281 381.938 18.4052 380.361C18.0079 378.874 16.72 377.932 15.4065 377.278C14.3172 376.739 13.574 376.188 13.1511 374.989C12.946 374.419 12.8243 373.784 12.8884 373.175C12.9204 372.906 12.9332 372.682 13.2087 372.618C13.5355 372.541 14.1891 372.829 14.5287 372.9C16.2395 373.265 17.9502 373.637 19.6674 374.002C21.3846 374.368 23.089 374.739 24.8062 375.105C25.3188 375.214 26.0236 375.143 25.8378 374.451C25.652 373.759 24.6845 373.252 24.0758 373.118C20.3402 372.316 16.6047 371.509 12.8691 370.714C12.1964 370.573 11.3249 370.329 10.6778 370.701C10.0306 371.073 9.97938 371.816 10.005 372.47C10.0627 373.945 10.6906 375.336 11.6325 376.451C12.1131 377.021 12.6833 377.502 13.3048 377.912C13.9264 378.323 14.8554 378.534 15.368 379.034C15.6115 379.271 15.7012 380.111 15.7397 380.547C15.8358 381.534 15.9127 382.528 15.9896 383.521C16.2715 387.265 16.4637 391.021 16.547 394.777C16.6303 398.534 16.6239 402.399 16.5086 406.206C16.3932 410.014 16.1818 413.604 16.5662 417.289C16.9058 420.584 17.8221 424.187 16.3292 427.34C16.0216 427.988 15.6243 428.616 15.1117 429.129C14.5991 429.642 13.9712 430.001 13.4907 430.545C12.4334 431.731 12.7474 433.571 12.9973 435.013C13.5419 438.199 15.195 440.955 18.2322 442.295C19.5073 442.859 21.0578 443.154 22.429 442.789C23.0506 442.622 23.6144 442.346 24.1078 441.93C24.7037 441.43 25.2099 440.808 25.9339 440.487C27.3756 439.853 29.2722 440.225 30.7908 440.295C32.6489 440.385 34.5135 440.468 36.3716 440.545C40.2033 440.705 44.0285 440.846 47.8602 440.962C55.4658 441.193 63.0779 441.346 70.6835 441.411C72.8236 441.43 76.7706 441.744 77.7317 439.173C78.3212 437.597 77.3088 435.962 76.604 434.597C75.8094 433.058 74.9701 431.501 73.9705 430.078C72.9709 428.654 71.4716 427.456 69.6583 427.122C67.845 426.789 65.9932 427.071 64.212 427.148C60.4572 427.315 56.7025 427.501 52.9477 427.699C45.3741 428.11 37.8069 428.59 30.2397 429.148C28.3367 429.289 26.4337 429.437 24.5307 429.584L26.9783 431.199C27.76 426.642 27.9266 422.007 27.4845 417.405L27.0424 417.854C38.0376 416.597 49.0712 415.655 60.124 415.02C60.6815 414.988 60.5854 414.386 60.3803 414.065C58.4709 411.104 58.7208 407.181 60.2458 404.117C61.7707 401.053 64.5516 398.617 67.5631 396.867C67.9091 396.668 67.7425 396.258 67.5823 395.995C66.1598 393.636 64.6349 391.258 62.3987 389.579C60.1625 387.899 57.2471 387.015 54.3637 386.919C51.4804 386.822 48.565 387.31 45.7201 387.797C42.5356 388.342 39.3767 388.995 36.2243 389.707C32.6681 390.508 29.1248 391.386 25.5879 392.265L28.0356 393.88C27.5934 390.316 27.5806 386.713 28.0356 383.156C28.1253 382.444 28.1381 381.579 28.4072 380.912C28.734 380.111 29.8168 380.226 30.5345 380.162C32.3926 379.996 34.2444 379.835 36.1025 379.669C43.4775 379.015 50.846 378.368 58.221 377.714C60.0792 377.547 61.9309 377.387 63.7891 377.22C64.6349 377.143 65.487 377.073 66.3328 376.996C67.0569 376.932 68.0052 376.996 68.6587 376.618C69.8441 375.925 69.5365 374.06 69.229 372.97C68.8189 371.522 67.8834 370.252 66.7301 369.297C64.0518 367.086 60.611 367.092 57.3432 367.496C53.7358 367.945 50.1348 368.438 46.5274 368.938C38.2939 370.079 30.0795 371.323 21.878 372.656C21.154 372.772 21.5192 373.541 21.846 373.88C22.3265 374.38 23.1659 374.836 23.8899 374.72L23.9284 374.733Z" fill="white"/>
<path d="M27.3308 400.194C35.0453 398.482 42.8432 397.162 50.6923 396.232C50.9102 396.207 51.1408 396.188 51.3267 396.29C51.5061 396.393 51.6086 396.591 51.6791 396.79C52.4223 398.758 51.474 400.937 50.3912 402.739C49.603 404.059 48.7316 405.328 47.8602 406.597C47.6232 406.944 47.3733 407.303 47.0016 407.501C46.5851 407.719 46.0918 407.7 45.6176 407.681C39.1397 407.373 32.6361 407.668 26.2159 408.559C26.0365 405.777 26.1903 402.976 26.6708 400.226" fill="#EAE9DF"/>
<path d="M28.8108 400.643C32.7193 399.777 36.6471 399.008 40.5941 398.341C42.542 398.014 44.4962 397.707 46.4505 397.425C47.4308 397.284 48.4047 397.149 49.3851 397.021C50.3654 396.893 51.4483 396.63 52.435 396.681L50.2885 396.22L50.4872 396.29L49.808 395.97C50.7114 396.732 50.4103 398.578 50.1283 399.559C49.7567 400.841 49.0583 402.001 48.3535 403.13C47.6487 404.258 46.9054 405.585 46.0084 406.617C45.1113 407.649 43.3493 407.174 42.1127 407.142C36.3011 406.988 30.4895 407.328 24.7357 408.117L27.7664 408.956C27.5998 406.168 27.7472 403.38 28.2213 400.623C28.2918 400.2 25.165 399.553 25.1201 399.828C24.6524 402.585 24.4986 405.367 24.6652 408.162C24.6844 408.456 25.7737 408.687 25.9531 408.732C26.4977 408.879 27.1321 409.078 27.6959 409.001C31.8864 408.424 36.1089 408.104 40.3442 408.033C42.433 408.001 44.5283 408.033 46.6171 408.123C47.3475 408.155 48.1485 408.238 48.7636 407.758C49.4748 407.2 49.9553 406.206 50.4487 405.463C51.5188 403.867 52.6785 402.207 53.2295 400.348C53.473 399.534 53.5756 398.668 53.409 397.829C53.2232 396.88 52.8515 396.521 51.9545 396.213C51.0062 395.893 50.0515 395.688 49.0519 395.797C47.969 395.918 46.8862 396.059 45.8033 396.207C43.7401 396.482 41.6834 396.784 39.633 397.111C35.0132 397.848 30.4127 398.732 25.8441 399.739C25.5494 399.803 26.7925 400.284 26.8565 400.303C27.414 400.469 28.2085 400.758 28.8044 400.63L28.8108 400.643Z" fill="#EAE9DF"/>
<path d="M23.0441 560.639C34.744 558.729 46.4761 557.017 58.2337 555.511C60.6429 555.203 63.2443 554.94 65.3524 556.145C67.1529 557.177 68.2934 559.273 68.1845 561.35C68.1653 561.773 68.0692 562.235 67.7424 562.498C67.4733 562.722 67.0952 562.761 66.7492 562.793C54.1266 563.908 41.4975 565.023 28.8748 566.139C28.3302 566.19 27.7215 566.267 27.3691 566.683C27.1384 566.959 27.0615 567.331 27.0038 567.69C26.2926 571.831 26.1965 576.074 26.7283 580.241C34.3147 578.363 41.9076 576.478 49.6349 575.331C53.5371 574.754 57.8044 574.433 61.1427 576.536C63.4942 578.016 65.0128 580.484 66.4545 582.863C63.2956 584.677 60.4379 587.202 58.8745 590.49C57.311 593.779 57.2342 597.901 59.2525 600.926C48.1997 601.554 37.1725 602.503 26.1709 603.759C26.6258 608.349 26.4592 613.003 25.6647 617.554C39.8315 616.438 54.024 615.586 68.2293 614.996C69.2289 614.951 70.2861 614.926 71.1832 615.374C72.0994 615.829 72.7145 616.72 73.2656 617.586C74.2716 619.176 75.1814 620.823 75.9952 622.522C76.3604 623.284 76.7128 624.111 76.5654 624.945C76.2194 626.887 73.6693 627.323 71.7022 627.31C57.2278 627.207 42.7534 626.804 28.2982 626.092C26.959 626.028 25.5109 625.983 24.3896 626.714C23.7745 627.118 23.3067 627.714 22.7109 628.143C20.8655 629.464 18.1039 628.752 16.5789 627.073C15.054 625.393 14.5222 623.028 14.3684 620.765C14.3235 620.118 14.3171 619.438 14.6054 618.855C14.9643 618.137 15.7011 617.708 16.3034 617.176C17.9373 615.746 18.6293 613.477 18.7126 611.304C18.7959 609.131 18.3666 606.977 18.1424 604.811C17.7643 601.189 17.9694 597.529 18.0783 593.888C18.341 585.318 18.0911 576.734 17.3222 568.196C17.2581 567.453 17.1684 566.664 16.7391 566.055C16.1496 565.222 15.0732 564.927 14.1954 564.408C12.5166 563.427 11.4658 561.466 11.5811 559.53C11.6004 559.229 11.6516 558.902 11.8759 558.703C12.177 558.427 12.6512 558.498 13.0484 558.581C16.8865 559.402 20.7246 560.229 24.569 561.049" fill="white"/>
<path d="M22.903 561.581C29.8999 560.44 36.9161 559.37 43.9322 558.37C47.4948 557.863 51.0637 557.376 54.6263 556.908C56.2538 556.697 57.8877 556.434 59.5216 556.293C60.9184 556.171 62.3985 556.165 63.6992 556.761C64.9999 557.357 65.8969 558.434 66.3519 559.735C66.5633 560.338 66.6851 560.972 66.6402 561.613C66.6402 561.664 66.5698 561.972 66.589 562.036L66.5441 562.184L67.3066 561.793C67.2297 561.703 66.1468 561.908 65.9995 561.921C62.4433 562.235 58.8936 562.549 55.3375 562.863C48.2316 563.491 41.1194 564.119 34.0135 564.748C32.1362 564.914 30.137 564.901 28.2981 565.292C27.3626 565.491 26.3695 565.933 25.8505 566.78C25.4276 567.472 25.3763 568.376 25.2674 569.164C24.7227 573.004 24.7291 576.895 25.2033 580.741C25.2674 581.247 26.2605 581.266 26.5873 581.183C32.3476 579.754 38.1207 578.324 43.9515 577.215C46.7003 576.696 49.4875 576.138 52.2812 575.94C54.7096 575.767 57.2149 575.888 59.4062 577.061C61.9244 578.407 63.5006 580.991 64.9294 583.362L65.7752 582.183C62.3472 584.17 59.1435 586.856 57.4135 590.503C55.6835 594.151 55.6899 598.292 57.8492 601.644L59.7715 599.952C48.5905 600.593 37.4287 601.548 26.299 602.823C25.5878 602.907 24.5626 603.445 24.6394 604.272C25.0751 608.791 24.8829 613.349 24.114 617.823C24.0243 618.349 24.7292 618.573 25.1264 618.541C39.2933 617.432 53.4857 616.528 67.691 615.983C68.3702 615.958 69.0943 615.894 69.7478 616.124C70.4399 616.368 70.9396 616.97 71.3561 617.547C72.2916 618.842 73.0669 620.284 73.7974 621.701C74.31 622.688 75.6107 624.586 74.8289 625.701C74.4381 626.259 73.477 626.303 72.7145 626.329C69.2545 626.438 65.7688 626.278 62.3152 626.22C58.8616 626.162 55.1837 626.086 51.6212 625.989C44.5474 625.797 37.4735 625.534 30.3997 625.201C28.8235 625.124 27.196 624.951 25.639 625.297C24.8253 625.483 24.05 625.784 23.358 626.252C22.7492 626.662 22.3007 627.303 21.6792 627.682C20.9616 628.118 19.9108 627.727 19.2188 627.368C18.059 626.759 17.2517 625.662 16.7583 624.477C16.2008 623.15 15.9253 621.669 15.8741 620.24C15.8484 619.534 15.8869 618.868 16.4379 618.361C16.9441 617.893 17.5208 617.522 17.9885 617.015C20.0261 614.823 20.3977 611.759 20.1799 608.894C20.0453 607.157 19.7377 605.439 19.5904 603.708C19.443 601.977 19.4366 600.234 19.4622 598.49C19.5199 594.971 19.6929 591.458 19.7057 587.933C19.7185 584.439 19.648 580.946 19.4943 577.459C19.3405 573.972 19.2508 570.504 18.7702 567.087C18.5524 565.555 17.6553 564.716 16.3162 564.062C15.1308 563.478 14.1377 562.78 13.5738 561.536C13.3239 560.985 13.1381 560.37 13.106 559.754C13.106 559.658 13.1445 559.395 13.106 559.286L13.1253 559.055L11.9527 559.504C12.1513 559.716 13.106 559.748 13.4008 559.812C15.1116 560.177 16.8224 560.549 18.5396 560.914C20.2568 561.28 21.9611 561.652 23.6783 562.017C24.3896 562.171 25.3507 561.857 25.8312 561.305C26.2733 560.793 26.1067 560.254 25.4404 560.113C21.7048 559.312 17.9693 558.504 14.2338 557.709C12.6703 557.376 10.3893 557.645 10.0561 559.575C9.81902 560.94 10.3637 562.434 11.1197 563.549C11.9911 564.818 13.2278 565.299 14.5029 566.042C15.9317 566.882 15.8036 568.671 15.9189 570.132C16.2329 573.952 16.4379 577.786 16.5468 581.619C16.6558 585.452 16.6558 589.132 16.5661 592.888C16.4764 596.644 16.2201 600.4 16.5084 604.144C16.7647 607.509 17.8091 611.112 16.6686 614.419C16.4571 615.028 16.156 615.644 15.7587 616.156C15.2846 616.772 14.6438 617.188 14.0736 617.708C12.7472 618.913 12.7152 620.349 12.8946 622.028C13.2022 624.874 14.3363 627.874 17.0787 629.175C18.3858 629.797 19.8851 629.964 21.2948 629.669C22.0893 629.502 22.8454 629.194 23.5181 628.746C24.1268 628.342 24.5818 627.752 25.1777 627.336C25.6262 627.021 26.2029 627.047 26.7347 627.047C27.6061 627.047 28.4775 627.118 29.3489 627.156C31.2647 627.246 33.1742 627.336 35.09 627.412C38.9216 627.573 42.7469 627.714 46.5785 627.829C54.1841 628.066 61.7962 628.214 69.4018 628.284C72.0737 628.31 75.6619 628.438 77.4816 626.041C78.5196 624.675 78.0647 623.169 77.3727 621.759C76.6038 620.175 75.7388 618.631 74.8033 617.137C73.9319 615.74 72.9644 614.541 71.2856 614.163C69.6069 613.785 67.6334 614.073 65.8841 614.15C62.0717 614.317 58.2529 614.503 54.4405 614.714C46.9181 615.118 39.4022 615.599 31.8927 616.156C29.9897 616.297 28.0866 616.445 26.1836 616.592L27.196 617.31C27.9905 612.663 28.1315 607.964 27.683 603.279L26.0234 604.727C36.8905 603.484 47.7895 602.554 58.7142 601.926C59.4511 601.881 61.2964 601.266 60.6364 600.234C58.7847 597.368 58.8936 593.51 60.3225 590.497C61.7513 587.484 64.2887 585.202 67.1208 583.555C67.3963 583.395 68.2485 582.837 67.9666 582.375C66.6146 580.132 65.2178 577.779 63.0649 576.202C60.912 574.626 58.176 573.985 55.4592 573.933C52.5182 573.876 49.5644 574.395 46.6746 574.895C43.5927 575.427 40.5363 576.061 37.4864 576.754C33.9302 577.555 30.3869 578.433 26.85 579.311L28.234 579.754C27.7983 576.222 27.8111 572.645 28.2725 569.119C28.3301 568.664 28.4006 568.209 28.4775 567.754C28.4903 567.671 28.7082 566.901 28.6889 566.876C28.8555 567.087 27.715 567.042 28.4903 567.132C28.6121 567.145 28.9068 567.094 28.9709 567.087C29.5027 567.042 30.0345 566.991 30.5599 566.946C32.3604 566.786 34.1673 566.626 35.9678 566.466C43.2851 565.818 50.6088 565.171 57.9261 564.523C59.7266 564.363 61.5335 564.203 63.334 564.043C64.1798 563.966 65.0319 563.895 65.8777 563.818C66.8196 563.735 67.7487 563.652 68.556 563.1C71.0357 561.414 69.2416 557.395 67.4155 555.921C64.859 553.863 61.3925 554.19 58.349 554.575C54.7288 555.036 51.1086 555.524 47.4884 556.024C39.3637 557.152 31.2519 558.376 23.1529 559.703C22.5698 559.799 21.5382 560.203 21.4742 560.908C21.4101 561.613 22.4032 561.671 22.8774 561.594L22.903 561.581Z" fill="white"/>
<path d="M27.4458 587.132C35.1603 585.42 42.9582 584.1 50.8073 583.17C51.0252 583.145 51.2558 583.125 51.4417 583.228C51.6211 583.33 51.7236 583.529 51.7941 583.728C52.5373 585.696 51.589 587.875 50.5062 589.676C49.718 590.997 48.8466 592.266 47.9752 593.535C47.7381 593.881 47.4883 594.24 47.1166 594.439C46.7001 594.657 46.2067 594.638 45.7326 594.619C39.2547 594.311 32.7511 594.606 26.3309 595.497C26.1515 592.715 26.3052 589.914 26.7858 587.164" fill="#EAE9DF"/>
<path d="M28.676 587.85C32.5461 586.997 36.429 586.234 40.3375 585.58C42.2341 585.26 44.1372 584.965 46.0402 584.689C47.0205 584.548 47.9944 584.414 48.9747 584.286C49.4873 584.221 50.0064 584.151 50.519 584.087C50.724 584.061 50.929 584.036 51.1405 584.01C51.2942 583.991 51.448 583.971 51.6082 583.952C51.935 583.927 51.8132 583.895 51.2558 583.85L50.2242 583.337C50.551 583.612 50.5382 584.715 50.5125 585.093C50.4741 585.728 50.3075 586.356 50.0897 586.952C49.6604 588.125 48.994 589.202 48.3276 590.253C47.9432 590.862 47.5459 591.458 47.1422 592.048C46.7962 592.561 46.4759 593.196 45.9953 593.599C45.566 593.958 45.0278 593.83 44.5024 593.804C43.7719 593.772 43.0415 593.753 42.3046 593.734C36.6468 593.619 30.9891 593.945 25.3825 594.708L27.8623 595.753C27.6957 593.022 27.8622 590.298 28.3172 587.606C28.4838 586.632 25.3954 585.843 25.248 586.683C24.7675 589.503 24.6265 592.343 24.7995 595.195C24.8443 595.977 26.7345 596.317 27.2792 596.24C31.4248 595.676 35.6024 595.336 39.7801 595.266C41.9138 595.228 44.0474 595.266 46.1811 595.362C46.9692 595.394 47.8278 595.445 48.539 595.029C49.3079 594.574 49.8013 593.548 50.2819 592.83C51.3647 591.221 52.5437 589.574 53.1909 587.728C53.697 586.279 53.9726 583.991 52.5053 582.991C50.7496 581.798 48.2187 582.568 46.2837 582.824C44.1692 583.106 42.0611 583.42 39.9595 583.76C35.3525 584.503 30.7648 585.388 26.2027 586.394C25.4851 586.555 26.2027 587.247 26.4975 587.42C27.1318 587.792 27.9391 587.984 28.6632 587.824L28.676 587.85Z" fill="#EAE9DF"/>
<path d="M8.52172 527.411C6.58027 530.456 4.24155 533.238 1.58887 535.661C9.30984 533.488 15.7365 527.61 19.6386 520.476C23.5408 513.341 25.0785 505.047 25.0914 496.88L26.0781 496.387C37.3424 507.386 47.7032 519.347 57.026 532.097C57.3849 532.591 57.7629 533.097 58.2883 533.392C58.8458 533.7 59.4993 533.738 60.1337 533.764C68.899 534.155 77.6644 534.546 86.4298 534.937C84.719 531.809 80.8938 530.77 77.5363 529.725C73.3394 528.424 69.2835 526.668 65.4518 524.495C52.9701 517.418 43.3077 506.239 33.908 495.271C42.4812 495.073 51.0543 494.874 59.6275 494.682C57.2119 491.765 54.6425 488.303 55.2832 484.547C56.1098 479.688 61.7419 477.304 63.8307 472.855C64.1383 472.201 64.369 471.477 64.2665 470.759C64.1255 469.759 63.3822 468.977 62.6582 468.291C61.1653 466.875 59.5826 465.554 57.9295 464.336C56.5519 463.323 55.1038 462.368 53.4827 461.849C50.4841 460.881 47.2163 461.477 44.1984 462.394C39.3159 463.881 34.6705 466.195 30.5185 469.208C29.9674 469.605 29.3908 470.035 28.718 470.08C27.4237 470.169 26.501 468.887 25.636 467.9C23.3549 465.298 19.7091 464.016 16.3452 464.638C15.3585 464.817 14.1731 465.509 14.3845 466.509C15.6596 466.984 16.9411 467.464 18.2162 467.939L16.0953 467.522C18.5942 469.541 18.8313 473.259 18.8441 476.515C18.8697 482.599 18.8569 488.682 18.6839 494.765C18.4981 501.284 18.1073 507.905 15.9095 514.034C13.8912 519.649 10.4504 524.597 7.04161 529.463" fill="white"/>
<path d="M7.01608 526.95C5.11307 529.911 2.85765 532.591 0.269046 534.969C-0.160252 535.36 -0.0385085 535.93 0.371568 536.276C0.858533 536.7 1.66586 536.841 2.28097 536.661C8.16301 534.975 13.3274 531.36 17.2167 526.668C21.4456 521.565 24.0919 515.425 25.4695 508.97C26.3025 505.059 26.6613 501.06 26.6741 497.066L26.1231 497.758L27.1098 497.265L24.8608 497.002C31.9987 503.989 38.7714 511.341 45.1404 519.04C48.312 522.879 51.3876 526.802 54.3607 530.802C55.0591 531.745 55.6998 532.815 56.5648 533.616C57.558 534.539 58.8651 534.764 60.1658 534.821C62.8057 534.943 65.4455 535.059 68.0854 535.174C74.1597 535.443 80.2275 535.712 86.3018 535.988C87.1091 536.026 88.4675 535.629 87.8588 534.559C85.9045 531.11 81.823 529.918 78.2797 528.822C73.8649 527.456 69.6296 525.597 65.6314 523.264C57.9809 518.796 51.4068 512.707 45.3774 506.271C41.9174 502.579 38.6176 498.733 35.3242 494.893L34.1964 496.335C42.7696 496.137 51.3428 495.938 59.9159 495.746C60.5503 495.733 61.6844 495.073 61.0436 494.303C59.1791 492.041 57.039 489.438 56.7763 486.393C56.5584 483.849 57.9552 481.752 59.634 479.996C61.3127 478.24 63.2286 476.644 64.5933 474.586C65.3494 473.451 66.0478 472.054 65.8172 470.65C65.5609 469.099 64.1961 467.971 63.094 466.971C60.64 464.747 57.904 462.413 54.7964 461.17C51.535 459.862 47.9468 460.17 44.6214 461.061C41.4817 461.9 38.4125 463.118 35.5164 464.606C34.0427 465.362 32.601 466.202 31.217 467.112C30.5314 467.567 29.8586 468.035 29.1858 468.509C28.9231 468.695 28.6604 468.849 28.3785 469.003C28.6476 468.855 28.7117 469.266 28.3977 468.926C27.3917 467.849 26.3858 466.657 25.1876 465.791C23.8548 464.83 22.3427 464.112 20.7408 463.747C19.139 463.381 17.3064 463.266 15.6213 463.625C14.1283 463.939 12.5842 464.9 12.7892 466.605C12.8469 467.067 13.4556 467.336 13.8144 467.471C15.0895 467.945 16.3709 468.426 17.646 468.9L18.306 466.875C17.6012 466.734 16.8899 466.599 16.1851 466.458C15.2304 466.272 13.7759 467.227 14.8524 468.131C17.5563 470.407 17.2231 474.746 17.2295 477.926C17.2424 482.515 17.2296 487.105 17.1334 491.694C16.954 500.29 16.6977 509.111 12.9366 517.014C10.9118 521.27 8.20146 525.142 5.51033 528.995C5.06822 529.629 5.96526 530.264 6.47145 530.424C7.16986 530.642 8.0669 530.552 8.51542 529.911C10.9887 526.373 13.4748 522.815 15.4355 518.963C17.3961 515.11 18.7033 510.835 19.376 506.482C20.0488 502.13 20.1962 497.515 20.2987 493.021C20.4076 488.22 20.4269 483.419 20.414 478.612C20.4012 474.592 20.6639 469.753 17.2744 466.9L15.9416 468.573C16.6465 468.714 17.3577 468.849 18.0625 468.99C18.6328 469.105 19.5362 468.875 19.7284 468.253C19.9335 467.586 19.2543 467.163 18.7225 466.964C17.4474 466.49 16.1659 466.009 14.8908 465.535L15.916 466.4C15.8071 465.529 17.8639 465.535 18.3188 465.548C19.4465 465.567 20.5806 465.855 21.5866 466.349C22.7463 466.92 23.6947 467.721 24.534 468.695C25.3734 469.669 26.3025 470.644 27.6288 471.003C29.2755 471.451 30.6211 470.746 31.9218 469.81C33.1456 468.932 34.4079 468.125 35.715 467.375C38.3613 465.855 41.1549 464.593 44.0575 463.65C46.9601 462.708 50.0164 461.881 52.919 462.811C54.2966 463.253 55.5332 464.093 56.693 464.945C57.9552 465.875 59.1727 466.862 60.3388 467.907C61.2423 468.714 62.7224 469.74 62.6711 471.105C62.6263 472.272 61.7805 473.458 61.0949 474.349C59.7045 476.163 57.8719 477.586 56.3662 479.304C54.5465 481.381 53.3291 483.746 53.6366 486.579C53.989 489.829 56.1612 492.611 58.1667 495.047L59.2944 493.605C50.7212 493.803 42.1481 494.002 33.5749 494.194C32.9534 494.207 31.7937 494.874 32.4472 495.637C38.2716 502.431 44.1344 509.252 50.7917 515.251C57.6093 521.392 65.2854 526.463 73.9226 529.648C76.0819 530.443 78.3181 531.007 80.4646 531.828C82.3099 532.533 83.9759 533.539 84.9754 535.296L86.5324 533.866C81.2527 533.629 75.973 533.398 70.6932 533.161C68.0534 533.046 65.4135 532.924 62.7736 532.809C62.1393 532.783 61.505 532.751 60.8706 532.725C60.4221 532.706 59.8647 532.757 59.4226 532.636C59.0381 532.527 58.8395 532.238 58.6024 531.924C58.1923 531.386 57.7951 530.828 57.3914 530.283C51.5798 522.437 45.3646 514.892 38.7842 507.681C35.0614 503.598 31.2234 499.624 27.27 495.758C26.7318 495.233 25.6617 495.182 25.021 495.496L24.0342 495.989C23.8036 496.105 23.4832 496.387 23.4832 496.681C23.4383 509.226 19.658 522.482 9.29072 530.373C6.77259 532.289 3.91488 533.764 0.871348 534.642L2.88327 536.334C5.61284 533.828 8.00923 530.969 10.0083 527.854C10.8285 526.578 7.74652 525.783 7.00325 526.937L7.01608 526.95Z" fill="white"/>
<path d="M29.0706 474.753C36.3238 472.759 43.8141 471.669 51.3172 471.509C51.5607 471.509 51.8362 471.509 52.0028 471.701C52.1502 471.868 52.1502 472.118 52.1438 472.349C51.9964 477.112 51.1378 482.368 47.524 485.323C44.7304 487.605 40.9372 487.951 37.3875 488.214C34.6579 488.412 31.9283 488.611 29.1987 488.81C28.904 488.829 28.5772 488.848 28.3337 488.662C28.0967 488.483 28.007 488.169 27.9557 487.874C27.6225 486.143 27.8788 484.355 28.1415 482.605C28.5067 480.15 28.8655 477.688 29.2308 475.233" fill="#EAE9DF"/>
<path d="M29.4934 476.086C33.1713 475.08 36.9004 474.298 40.6744 473.753C42.4685 473.496 44.269 473.298 46.0759 473.15C47.0498 473.073 48.0238 473.009 49.0041 472.964C49.7217 472.932 50.9199 472.74 51.4325 472.919L50.7277 472.56C50.3817 472.291 50.5995 472.285 50.5355 472.573C50.5034 472.708 50.5227 472.907 50.5162 473.054C50.5034 473.374 50.4842 473.695 50.4586 474.015C50.4073 474.701 50.3432 475.394 50.2535 476.073C50.0869 477.297 49.8114 478.522 49.4142 479.695C48.6325 482.009 47.2357 484.079 45.0251 485.22C42.6415 486.445 39.8671 486.637 37.2336 486.829C35.5036 486.957 33.7672 487.079 32.0372 487.207C31.2491 487.265 30.461 487.323 29.6728 487.38C29.4934 487.393 29.2499 487.355 29.0898 487.419C28.7566 487.56 29.4934 487.945 29.5255 487.611C29.5639 487.252 29.4166 486.784 29.4037 486.413C29.3525 484.618 29.7049 482.829 29.9676 481.067C30.2559 479.118 30.5443 477.176 30.8326 475.227C30.9543 474.4 29.9163 473.842 29.2307 473.836C28.3593 473.836 27.7506 474.387 27.6289 475.221C27.2252 477.97 26.7895 480.714 26.4115 483.47C26.1103 485.663 25.5401 490.002 28.7438 490.188C30.0765 490.265 31.4861 490.015 32.8189 489.919C34.2349 489.816 35.651 489.714 37.067 489.611C39.4378 489.438 41.8598 489.278 44.1409 488.592C46.4219 487.906 48.4787 486.72 50.0549 484.893C51.4453 483.278 52.336 481.24 52.8678 479.188C53.3996 477.137 53.6687 474.798 53.7328 472.586C53.7776 471.092 52.9126 470.176 51.4069 470.125C50.0485 470.08 48.6581 470.208 47.3061 470.298C41.0012 470.708 34.7411 471.753 28.6413 473.413C27.898 473.618 27.2701 474.31 27.5199 475.118C27.7698 475.926 28.7374 476.297 29.487 476.092L29.4934 476.086Z" fill="#EAE9DF"/>
<defs>
<clipPath id="clip0_34_494">
<rect width="72" height="68" fill="white" transform="translate(8 102)"/>
</clipPath>
<clipPath id="clip1_34_494">
<rect width="83" height="79" fill="white" transform="translate(2)"/>
</clipPath>
</defs>
</svg>
