<svg width="534" height="104" viewBox="0 0 534 104" fill="none" xmlns="http://www.w3.org/2000/svg">
<path d="M66.6 34H78.6V40H69L68.85 40.3L76.85 54.9C78.4833 57.8333 79.3 60.0667 79.3 61.6C79.3 64.9667 78.1833 67.4333 75.95 69H62.7V63.2H73.05L73.2 62.9L64.2 46.75C62.9 44.4167 62.25 42.5167 62.25 41.05C62.25 37.5833 63.7 35.2333 66.6 34ZM82.7848 69V34H89.6348V69H82.7848ZM109.355 69L108.305 63.45H100.405L99.3547 69H92.5547L99.3047 34H109.655L116.055 69H109.355ZM104.255 40.5L102.305 52.15L101.205 58.1H107.455L106.305 52.15L104.355 40.5H104.255Z" fill="#67564C"/>
<path d="M153.15 53H152.95H153.15L155.8 42.05L157.95 34H164.2L166.45 69H159.9L158.95 49.9H158.7L155.1 64H151L147.4 49.9H147.15L146.2 69H139.65L141.9 34H148.15L150.3 42.05L152.95 53H153.15ZM170.478 69V34H188.428V40H177.328V48.35H187.228V54.15H177.328V63.2H188.628V69H170.478ZM192.5 69V34H210.45V40H199.35V48.35H209.25V54.15H199.35V63.2H210.65V69H192.5ZM220.171 40H212.621V34H234.521V40H226.971V69H220.171V40ZM240.621 34H252.621V40H243.021L242.871 40.3L250.871 54.9C252.505 57.8333 253.321 60.0667 253.321 61.6C253.321 64.9667 252.205 67.4333 249.971 69H236.721V63.2H247.071L247.221 62.9L238.221 46.75C236.921 44.4167 236.271 42.5167 236.271 41.05C236.271 37.5833 237.721 35.2333 240.621 34Z" fill="#67564C"/>
<path d="M340.05 63.2H344.25C344.983 62.4 345.5 61.6 345.8 60.8C346.133 59.9667 346.3 58.75 346.3 57.15V34H353.15V54.65C353.15 56.35 353.1 57.6833 353 58.65C352.933 59.5833 352.733 60.7333 352.4 62.1C351.833 64.5333 350.267 66.8333 347.7 69H336.6C334.033 66.9 332.467 64.6 331.9 62.1C331.4 60.0667 331.15 57.5833 331.15 54.65V34H338V57.15C338 58.75 338.15 59.9667 338.45 60.8C338.783 61.6 339.317 62.4 340.05 63.2ZM357.718 34H371.018C373.118 34.7 374.902 36 376.368 37.9C377.868 39.7667 378.618 42.0667 378.618 44.8C378.618 49.2667 376.852 52.55 373.318 54.65L378.368 69H371.368L367.118 56.25H364.468V69H357.718V34ZM364.468 40V50.65H368.768C369.335 50.5167 369.952 49.95 370.618 48.95C371.318 47.9167 371.668 46.7167 371.668 45.35C371.668 43.9833 371.368 42.7833 370.768 41.75C370.202 40.7167 369.635 40.1333 369.068 40H364.468ZM398.042 34C400.375 35.9 402.108 38.45 403.242 41.65C404.375 44.85 404.942 48.15 404.942 51.55C404.942 54.9167 404.392 58.1167 403.292 61.15C402.192 64.1833 400.442 66.8 398.042 69H387.742C385.342 66.8 383.592 64.1833 382.492 61.15C381.392 58.1167 380.842 54.9167 380.842 51.55C380.842 48.15 381.408 44.85 382.542 41.65C383.675 38.45 385.408 35.9 387.742 34H398.042ZM391.092 63.2H394.692C395.525 62.2333 396.225 60.6667 396.792 58.5C397.392 56.3 397.692 53.9833 397.692 51.55C397.692 49.1167 397.408 46.8333 396.842 44.7C396.275 42.5333 395.575 40.9667 394.742 40H391.092C390.258 40.9667 389.542 42.5333 388.942 44.7C388.375 46.8333 388.092 49.1167 388.092 51.55C388.092 53.9833 388.375 56.3 388.942 58.5C389.542 60.6667 390.258 62.2333 391.092 63.2ZM415.591 40V52.5H420.041C421.875 51 422.791 48.8 422.791 45.9C422.791 44.6667 422.541 43.5 422.041 42.4C421.575 41.3 421.008 40.5 420.341 40H415.591ZM408.841 69V34H422.391C424.658 35 426.441 36.5333 427.741 38.6C429.075 40.6667 429.741 43.0833 429.741 45.85C429.741 48.5833 429.058 51.1167 427.691 53.45C426.325 55.7833 424.308 57.4333 421.641 58.4H415.591V69H408.841ZM433.402 69V34H451.352V40H440.252V48.35H450.152V54.15H440.252V63.2H451.552V69H433.402Z" fill="#67564C"/>
<path d="M286.842 9.57638C294.844 7.9151 302.867 6.42664 310.909 5.11657C312.556 4.84898 314.335 4.62041 315.777 5.66847C317.009 6.56601 317.789 8.38896 317.714 10.1952C317.701 10.5631 317.635 10.9645 317.412 11.1931C317.228 11.3882 316.969 11.4216 316.733 11.4495C308.1 12.4195 299.463 13.3895 290.83 14.3595C290.457 14.4041 290.041 14.471 289.8 14.8334C289.642 15.0731 289.59 15.3964 289.55 15.7086C289.064 19.3099 288.998 23.0004 289.362 26.624C294.55 24.9906 299.743 23.3516 305.028 22.3538C307.697 21.852 310.615 21.5733 312.898 23.4018C314.506 24.6896 315.545 26.8359 316.531 28.9041C314.371 30.4818 312.416 32.6782 311.347 35.5381C310.278 38.3979 310.225 41.9825 311.605 44.6138C304.046 45.1601 296.505 45.9852 288.981 47.0779C289.292 51.0694 289.178 55.1167 288.634 59.0748C298.323 58.1048 308.03 57.3633 317.745 56.8504C318.428 56.8114 319.151 56.7891 319.765 57.1793C320.392 57.5752 320.812 58.3501 321.189 59.1026C321.877 60.4852 322.499 61.9179 323.056 63.3952C323.306 64.0586 323.547 64.7778 323.446 65.5025C323.209 67.1916 321.465 67.5707 320.12 67.5596C310.221 67.4704 300.321 67.1192 290.435 66.5004C289.52 66.4446 288.529 66.4056 287.762 67.0411C287.342 67.3923 287.022 67.9108 286.614 68.2843C285.352 69.4327 283.463 68.8139 282.421 67.3533C281.378 65.8927 281.014 63.8356 280.909 61.8677C280.878 61.3047 280.874 60.7138 281.071 60.2064C281.316 59.5821 281.82 59.2086 282.232 58.7459C283.35 57.5027 283.823 55.5292 283.88 53.6394C283.937 51.7495 283.643 49.8764 283.49 47.9921C283.231 44.8424 283.371 41.6592 283.446 38.4927C283.626 31.0392 283.455 23.5746 282.929 16.149C282.885 15.5024 282.824 14.8167 282.53 14.2871C282.127 13.5623 281.391 13.3059 280.79 12.8544C279.642 12.0014 278.924 10.2955 279.002 8.61195C279.016 8.34994 279.051 8.06562 279.204 7.8928C279.41 7.65309 279.734 7.71441 280.006 7.78688C282.631 8.50045 285.256 9.2196 287.885 9.93317" fill="#67564C"/>
<path d="M287.526 10.4739C292.241 9.49278 296.965 8.57852 301.693 7.72C304.059 7.29074 306.426 6.87821 308.792 6.4824C309.971 6.28171 311.15 6.06987 312.333 5.9082C313.236 5.78556 314.235 5.67964 315.111 6.04757C315.896 6.37648 316.364 7.29074 316.597 8.26075C316.719 8.76806 316.781 9.35341 316.715 9.87744C316.627 10.591 316.194 10.5408 315.72 10.5966C313.328 10.8642 310.931 11.1373 308.538 11.4049C303.748 11.9457 298.959 12.4809 294.173 13.0216C292.833 13.1721 291.487 13.2948 290.146 13.4732C289.677 13.5345 289.156 13.6516 288.849 14.1533C288.542 14.655 288.516 15.5135 288.446 16.1323C288.065 19.4437 288.052 22.8053 288.376 26.1223C288.455 26.9139 289.436 27.7223 290.05 27.5272C293.959 26.2951 297.868 25.0631 301.82 24.0987C303.674 23.6471 305.549 23.2067 307.429 22.9837C308.985 22.7998 310.733 22.7663 312.166 23.6638C313.797 24.684 314.765 26.9474 315.668 28.8428L315.681 28.0846C313.459 29.7236 311.391 32.026 310.317 35.0531C309.244 38.0802 309.296 41.715 310.738 44.5525L310.913 43.7219C303.354 44.2738 295.812 45.0933 288.288 46.1859C288.148 46.2082 287.973 46.3699 287.986 46.5761C288.288 50.5788 288.174 54.6094 287.64 58.5731C287.587 58.9633 288.043 59.4093 288.24 59.5765C288.564 59.8497 288.924 60.0169 289.314 59.9779C298.963 59.0135 308.639 58.2107 318.315 57.7591C318.691 57.7424 319.265 57.6253 319.612 57.8651C319.914 58.0713 320.142 58.6901 320.317 59.0413C320.935 60.2789 321.496 61.5556 322 62.8712C322.377 63.8579 322.797 65.1123 321.969 65.9206C321.395 66.4781 320.598 66.623 319.896 66.6509C317.521 66.7568 315.12 66.6007 312.745 66.5506C310.37 66.5004 307.868 66.4279 305.431 66.3443C300.593 66.177 295.755 65.9485 290.918 65.653C289.91 65.5917 288.827 65.4133 287.837 65.7255C287.394 65.8649 286.987 66.1046 286.632 66.4725C286.277 66.8404 285.97 67.3143 285.563 67.6153C284.984 68.0446 284.222 68.1003 283.621 67.7045C282.903 67.2307 282.517 66.1269 282.276 65.2015C281.982 64.0753 281.781 62.7095 281.877 61.5221C281.978 60.2734 283.052 59.727 283.621 58.8406C284.91 56.8393 284.967 54.0408 284.761 51.5934C284.634 50.1106 284.445 48.6388 284.375 47.1503C284.305 45.6619 284.305 44.0731 284.331 42.5344C284.388 39.5185 284.485 36.5025 284.489 33.481C284.493 30.4595 284.432 27.3153 284.318 24.238C284.261 22.7217 284.187 21.2054 284.099 19.689C284.016 18.2786 284.038 16.74 283.748 15.3686C283.477 14.0752 282.596 13.2557 281.698 12.6871C280.953 12.2188 280.444 11.7394 280.155 10.6969C280.015 10.2008 279.932 9.64887 279.975 9.11927C279.997 8.88513 280.006 8.69001 280.194 8.63426C280.418 8.56737 280.865 8.81823 281.097 8.87955C282.267 9.19732 283.437 9.52065 284.612 9.83841C285.786 10.1562 286.952 10.4795 288.126 10.7973C288.477 10.892 288.959 10.8307 288.832 10.2286C288.705 9.62657 288.043 9.18617 287.627 9.0691C285.072 8.37225 282.517 7.66983 279.962 6.97856C279.502 6.85591 278.906 6.64407 278.464 6.96741C278.021 7.29074 277.986 7.93742 278.003 8.50604C278.043 9.78824 278.472 10.998 279.116 11.968C279.445 12.4641 279.835 12.8822 280.26 13.239C280.685 13.5958 281.321 13.7798 281.671 14.2146C281.838 14.4209 281.899 15.1512 281.925 15.5303C281.991 16.3888 282.044 17.2529 282.096 18.1169C282.289 21.3726 282.421 24.6394 282.478 27.9062C282.535 31.1731 282.53 34.5346 282.451 37.8461C282.372 41.1575 282.228 44.2793 282.491 47.4848C282.723 50.3503 283.35 53.4833 282.329 56.2261C282.118 56.7891 281.847 57.3355 281.496 57.7814C281.145 58.2274 280.716 58.5396 280.387 59.0135C279.664 60.0448 279.879 61.6448 280.05 62.8991C280.422 65.6697 281.553 68.0669 283.63 69.232C284.502 69.7226 285.563 69.979 286.5 69.6613C286.925 69.5163 287.311 69.2766 287.648 68.9143C288.056 68.4794 288.402 67.9387 288.897 67.6599C289.883 67.108 291.18 67.4314 292.219 67.4927C293.49 67.5707 294.765 67.6432 296.036 67.7101C298.656 67.8495 301.272 67.9721 303.893 68.0725C309.095 68.2732 314.301 68.4069 319.502 68.4627C320.966 68.4794 323.665 68.7526 324.322 66.5171C324.726 65.1457 324.033 63.7241 323.551 62.5367C323.008 61.1988 322.434 59.8441 321.75 58.6065C321.066 57.3689 320.041 56.3264 318.801 56.0365C317.561 55.7466 316.294 55.9919 315.076 56.0588C312.508 56.2038 309.94 56.3654 307.372 56.5383C302.193 56.895 297.017 57.3132 291.842 57.7982C290.541 57.9208 289.239 58.049 287.938 58.1772L289.612 59.5821C290.146 55.6184 290.26 51.5879 289.958 47.5852L289.655 47.9754C297.175 46.8828 304.721 46.0633 312.28 45.5114C312.662 45.4835 312.596 44.9595 312.456 44.6807C311.15 42.1052 311.321 38.6934 312.364 36.0287C313.407 33.3639 315.308 31.2455 317.368 29.7236C317.605 29.5508 317.491 29.194 317.381 28.9655C316.408 26.9139 315.365 24.8457 313.836 23.3851C312.307 21.9245 310.313 21.1552 308.341 21.0716C306.369 20.988 304.375 21.4116 302.429 21.8353C300.251 22.3092 298.091 22.8778 295.935 23.4966C293.503 24.1934 291.08 24.9572 288.661 25.7209L290.335 27.1258C290.032 24.0262 290.024 20.8932 290.335 17.7992C290.396 17.1804 290.405 16.4278 290.589 15.848C290.812 15.1512 291.553 15.2515 292.044 15.1958C293.315 15.0508 294.581 14.9115 295.852 14.7665C300.896 14.1979 305.935 13.6348 310.979 13.0662C312.25 12.9213 313.516 12.7819 314.787 12.6369C315.365 12.5701 315.948 12.5087 316.527 12.4418C317.022 12.3861 317.67 12.4418 318.117 12.1129C318.928 11.5108 318.718 9.88859 318.507 8.94088C318.227 7.68098 317.587 6.57717 316.798 5.74653C314.967 3.82324 312.613 3.82881 310.379 4.18002C307.911 4.57026 305.449 4.99951 302.981 5.43435C297.35 6.42665 291.733 7.50816 286.123 8.66771C285.628 8.76806 285.878 9.43703 286.102 9.73249C286.43 10.1673 287.004 10.5631 287.499 10.4628L287.526 10.4739Z" fill="#67564C"/>
<path d="M289.853 32.6169C295.129 31.1285 300.462 29.9801 305.83 29.1717C305.979 29.1494 306.137 29.1327 306.264 29.2219C306.386 29.3111 306.456 29.4839 306.505 29.6567C307.013 31.3682 306.364 33.2636 305.624 34.8301C305.085 35.9785 304.489 37.0823 303.893 38.1861C303.731 38.4872 303.56 38.7994 303.306 38.9722C303.021 39.1617 302.683 39.145 302.359 39.1283C297.929 38.8607 293.481 39.1171 289.09 39.892C288.967 37.4726 289.073 35.0364 289.401 32.6448" fill="white"/>
<path d="M290.865 33.0072C293.538 32.2546 296.224 31.5856 298.924 31.0058C300.256 30.7215 301.592 30.4539 302.929 30.2086C303.599 30.086 304.265 29.9689 304.936 29.8574C305.606 29.7459 306.347 29.5174 307.022 29.562L305.554 29.1606L305.69 29.2219L305.225 28.9432C305.843 29.6066 305.637 31.2121 305.444 32.065C305.19 33.18 304.712 34.189 304.23 35.1702C303.748 36.1513 303.24 37.3053 302.627 38.2029C302.013 39.1004 300.808 38.6879 299.962 38.66C295.988 38.5262 292.013 38.8217 288.078 39.5074L290.151 40.2376C290.037 37.8126 290.138 35.3876 290.462 32.9904C290.51 32.6225 288.372 32.0595 288.341 32.2992C288.021 34.6963 287.916 37.1158 288.03 39.5464C288.043 39.8028 288.788 40.0035 288.911 40.0425C289.283 40.1707 289.717 40.3436 290.102 40.2767C292.968 39.7749 295.856 39.4962 298.753 39.4349C300.181 39.407 301.614 39.4349 303.043 39.5129C303.542 39.5408 304.09 39.6133 304.511 39.1952C304.997 38.7102 305.326 37.8461 305.663 37.1994C306.395 35.8113 307.188 34.3674 307.565 32.7507C307.732 32.0427 307.802 31.2901 307.688 30.5598C307.561 29.7348 307.307 29.4226 306.693 29.155C306.045 28.8763 305.392 28.6979 304.708 28.7926C303.968 28.8986 303.227 29.0212 302.486 29.1494C301.075 29.3891 299.669 29.6512 298.266 29.9355C295.107 30.5766 291.96 31.3459 288.836 32.2211C288.634 32.2769 289.485 32.695 289.528 32.7117C289.91 32.8567 290.453 33.1075 290.861 32.996L290.865 33.0072Z" fill="#67564C"/>
<path d="M18.6335 11.7325C19.3941 10.7515 19.3823 9.60991 18.7702 8.54565C18.1582 7.4814 17.1183 6.89279 16.2388 6.03663C15.7218 5.53126 15.7397 5.25776 16.4646 5.05561C17.4332 4.78806 18.5979 5.00805 19.513 5.38262C20.5351 5.80475 21.3432 6.59551 22.389 6.95224C23.7082 7.39816 25.0393 6.99981 26.3584 6.7382C29.0978 6.2031 31.8372 5.66206 34.5766 5.12696C37.316 4.59186 40.0554 4.05081 42.7947 3.51571C45.0884 3.06385 47.7803 2.23147 50.1037 2.93305C50.9118 3.17682 51.7973 3.68813 52.2132 4.44917C52.7124 5.35884 52.3143 6.42904 51.9934 7.33276C51.5477 8.59916 51.1971 9.86557 51.1258 11.2152C51.0544 12.5648 51.1436 13.8075 51.2743 15.0917C51.5952 18.1537 51.9102 21.1978 51.9696 24.2776C52.029 27.3574 51.8923 30.4729 51.5952 33.5527L54.495 33.731L54.3761 32.316C54.2573 30.8593 51.5536 30.5145 51.4764 32.1376C51.0842 40.289 51.3516 48.4522 51.8091 56.5976C51.922 58.6072 52.0468 60.6109 52.1775 62.6205C52.2964 64.4993 52.4746 66.4435 52.0052 68.2925C51.6665 69.6184 50.9 70.9145 49.7293 71.6637C49.4798 71.8242 49.1292 72.068 48.8261 72.0977C48.5944 72.1215 48.6479 72.1452 48.3567 71.9312C47.6199 71.3961 46.9008 70.8313 46.1937 70.2486C43.0978 67.698 40.3525 64.7668 37.9934 61.5205L36.288 63.4826C39.1937 65.0879 42.4382 66.0748 45.7362 66.3959C46.4017 66.4613 46.9246 66.2532 47.2573 65.6705C48.5706 63.3874 48.6003 60.7357 48.5884 58.1732C48.5765 55.2183 48.5587 52.2633 48.5409 49.3024C48.5112 43.3925 48.4815 37.4767 48.4517 31.5668C48.422 25.657 48.3924 19.7411 48.3567 13.8313C48.3508 12.3508 48.3389 10.8763 48.3329 9.39587C48.327 8.23648 48.4458 6.97008 47.9407 5.88799C46.6096 3.03412 42.9849 4.37187 40.6912 5.01399C35.1589 6.56578 29.5614 9.23534 23.6785 8.72402L24.962 10.3234L24.9739 9.82395C24.9918 9.03913 24.4807 8.36729 23.6904 8.22459C23.0189 8.09974 22.1038 8.50998 22.0682 9.29479C21.6463 19.3606 21.2184 29.4264 20.7965 39.4923C20.6777 42.3521 20.5529 45.2178 20.434 48.0776C20.3627 49.7602 22.9833 50.3964 23.3398 48.6068C23.4705 47.9587 23.5953 47.3166 23.726 46.6685L20.8203 46.1394C20.4875 51.2228 16.8093 55.6285 13.6064 59.3147C12.0555 61.0984 10.356 62.7572 8.29997 63.9463C7.2779 64.5349 6.18449 64.9571 5.03764 65.2246C3.65309 65.5457 2.22698 65.6705 0.866201 66.1105L2.0071 68.6968C18.9128 62.1864 20.125 40.9668 19.8814 25.5678C19.7982 20.3714 19.4952 15.1809 19.1683 9.99637C19.0614 8.29594 16.1616 8.32567 16.2745 10.1688C16.8211 19.0098 17.3441 27.8806 16.6785 36.7276C16.0902 44.5044 14.7889 52.8103 9.89248 59.1483C7.53341 62.2043 4.47909 64.7133 0.860253 66.1046C-0.916481 66.7883 0.355151 69.22 2.00116 68.6909C4.12254 68.0071 6.35682 67.9655 8.41878 67.0559C10.35 66.2056 12.0317 64.9987 13.5767 63.5777C15.0325 62.234 16.3161 60.7179 17.5402 59.172C18.9366 57.4122 20.2855 55.6107 21.4086 53.6665C22.6505 51.5261 23.5478 49.1478 23.7142 46.6626C23.8271 44.9681 21.1649 44.3557 20.8084 46.1334C20.6777 46.7815 20.5529 47.4236 20.4221 48.0717L23.3279 48.6009C23.7498 38.535 24.1777 28.4692 24.5996 18.4034C24.7184 15.5436 24.8432 12.6778 24.962 9.818L22.0563 9.28885L22.0444 9.78827C22.0266 10.5196 22.5257 11.3222 23.3279 11.3876C28.468 11.8335 33.3287 10.2758 38.1598 8.71213C39.3304 8.33161 40.507 7.96299 41.6895 7.62409C42.2778 7.45762 42.872 7.29709 43.4662 7.15439C43.9059 7.04737 44.8507 6.65497 45.2964 6.80361C45.1538 6.75604 45.2964 6.89873 45.338 7.09494C45.4509 7.61815 45.4034 8.18297 45.4093 8.71213C45.4153 10.0915 45.4212 11.4709 45.4331 12.8502C45.4925 24.1825 45.5519 35.5147 45.6114 46.8469C45.6292 49.9981 45.6411 53.1551 45.6589 56.3063C45.6708 59.0294 45.9382 61.9902 44.5299 64.4458L46.0511 63.7204C42.9789 63.4231 40.0613 62.5372 37.3576 61.0449C36.08 60.3374 34.8262 61.8713 35.6521 63.0069C37.9459 66.17 40.6258 69.0536 43.591 71.5983C44.3159 72.2225 45.0587 72.823 45.8193 73.3998C46.6631 74.0419 47.5069 74.7553 48.6122 74.8326C50.4305 74.9634 52.2786 73.6197 53.3185 72.2285C55.8439 68.8395 55.1724 64.4695 54.9229 60.5276C54.6555 56.2171 54.4178 51.9125 54.2811 47.5961C54.1266 42.6196 54.1207 37.6373 54.3584 32.6608L51.4586 32.4825C51.5001 32.9522 51.5358 33.4278 51.5774 33.8975C51.6962 35.372 54.3227 35.6871 54.4772 34.0759C55.0476 28.1481 54.9764 22.1788 54.293 16.2689C54.1385 14.949 53.9602 13.6113 53.9781 12.2795C53.9959 10.9477 54.2752 9.69909 54.7149 8.42674C55.1546 7.15439 55.5408 5.84637 55.1962 4.51457C54.8872 3.31951 54.1266 2.29687 53.1402 1.55963C50.9356 -0.0872925 48.1368 -0.212149 45.5104 0.198094C42.563 0.661847 39.6394 1.3218 36.7099 1.89852C33.7803 2.47524 30.94 3.02818 28.058 3.59895C26.6378 3.87839 25.1997 4.24702 23.7676 4.43133C22.7159 4.56213 21.8245 3.54544 20.9213 3.11736C18.7643 2.09473 14.4383 1.41099 13.131 4.13405C12.4536 5.54909 13.238 6.92846 14.2541 7.90948C14.4739 8.12352 16.5478 9.55045 16.2685 9.91313C15.1751 11.3282 17.5461 13.0881 18.5919 11.7384L18.6335 11.7325Z" fill="#67564C"/>
<path d="M20.2612 23.5769C23.0129 23.4971 25.9548 23.3547 28.1538 21.8786C29.3603 21.0693 30.3349 19.8667 31.8089 19.5647C32.9083 19.3367 34.0435 19.6729 35.1073 20.0035C36.8724 20.5506 38.8337 21.2573 39.5468 22.7961C39.7667 23.2692 39.8381 23.8277 39.5706 24.2779C39.2675 24.7852 38.6197 25.0302 38.0076 25.2069C32.3853 26.8369 26.2044 25.5432 20.392 26.5064" fill="#67564C"/>
<path d="M18.9742 24.3756C21.5553 24.296 24.16 24.12 26.5412 23.0523C27.7935 22.49 28.846 21.7063 29.8984 20.8544C30.0571 20.7237 30.2217 20.5931 30.3923 20.4682C30.7333 20.2183 30.4275 20.3886 30.651 20.3489C31.4212 20.2126 32.2208 20.4227 32.9558 20.6385C34.0846 20.9679 35.2429 21.3257 36.2542 21.9221C36.701 22.189 37.1126 22.5184 37.4242 22.933C37.5594 23.1091 37.6829 23.3022 37.7769 23.5066C37.8357 23.6372 37.8945 23.7849 37.9239 23.9269C37.9769 24.1711 37.8651 24.3585 37.8945 24.5687L37.8593 24.6879C38.4296 24.3983 38.5707 24.3074 38.2826 24.4153C38.1415 24.4437 38.0063 24.5005 37.871 24.5403C37.5771 24.6198 37.2831 24.6879 36.9832 24.7561C36.2365 24.9151 35.4839 25.0287 34.7255 25.1082C33.3438 25.2502 31.9503 25.2843 30.5569 25.2956C27.3114 25.3127 24.0659 25.2104 20.8498 25.7272C20.2148 25.8295 19.4681 26.2611 19.0448 26.7268C18.6861 27.1244 18.8213 27.3572 19.3681 27.2664C22.5901 26.7495 25.8768 26.937 29.1282 26.8972C32.1973 26.8574 35.8014 26.7609 38.5589 25.2899C39.8054 24.6255 40.9931 23.5634 40.3346 22.0925C39.8701 21.0531 38.7824 20.383 37.7593 19.9286C36.4835 19.3664 35.0194 18.8552 33.626 18.7303C32.015 18.5826 30.4805 19.2755 29.2046 20.1728C28.0875 20.9566 27.2467 21.8937 25.8827 22.2572C24.2893 22.6831 22.6137 22.7229 20.9733 22.7683C20.3265 22.791 19.6268 23.1999 19.1447 23.5975C18.9389 23.7679 18.351 24.3926 18.9977 24.3756H18.9742Z" fill="#67564C"/>
<path d="M17.7281 10.4038C18.5567 9.48594 17.5839 8.11518 16.5752 7.3664C15.5665 6.61761 14.3236 5.65144 14.6479 4.486C14.9181 3.50171 16.185 3.09108 17.2657 3.06693C18.7608 3.03674 20.2619 3.4534 21.4927 4.24445C22.1232 4.64904 22.7176 5.16232 23.4682 5.28913C23.9605 5.37367 24.4709 5.27705 24.9633 5.18043C31.4719 3.89421 37.9805 2.61404 44.4892 1.32782C46.4346 0.941352 48.4521 0.560922 50.3975 0.929275C52.3428 1.29763 54.2282 2.63819 54.5104 4.486C54.7265 5.89902 53.994 7.26374 53.5977 8.64054C52.8532 11.213 53.2735 13.9303 53.5677 16.5813C54.2042 22.2877 54.2402 28.0485 53.6818 33.761L53.5617 32.3238C53.0574 42.6679 53.6338 53.0301 54.2942 63.3681C54.4203 65.3548 54.5464 67.3838 54.0241 69.3161C53.5017 71.2485 52.2107 73.1023 50.2473 73.8632C49.8391 74.0202 49.3767 74.1289 48.9504 74.0141C48.6502 73.9356 48.398 73.7545 48.1579 73.5733C43.9609 70.4937 40.2862 66.792 37.3141 62.6495C40.0941 64.2135 43.2523 65.1918 46.4826 65.4877C47.7195 63.4104 47.7436 60.9044 47.7316 58.5252C47.6475 41.5085 47.5574 24.4978 47.4673 7.48113C47.4673 6.56327 47.3292 5.45217 46.4406 5.07174C45.9603 4.86643 45.4019 4.95097 44.8855 5.05362C37.8004 6.46665 31.0696 10.3011 23.8584 9.61878L23.8705 9.11154C23.3181 22.2454 22.7717 35.3733 22.2193 48.5072L22.6095 46.5386C22.3754 50.9106 19.6494 54.7813 16.8815 58.3078C14.0234 61.9551 10.697 65.7171 6.03168 66.9067C4.55462 67.2811 2.9935 67.3778 1.55847 67.8669C6.91431 65.8319 11.0633 61.5747 13.6511 56.7378C16.239 51.9009 17.3978 46.5024 18.0343 41.1281C19.2772 30.6874 18.6647 20.138 18.0163 9.65502" fill="#67564C"/>
<path d="M20.9797 38.7536C24.6196 37.05 29.2797 38.1571 32.9982 36.5969C34.4831 35.9717 35.9138 34.9105 37.5496 35.1055C39.2036 35.3005 40.2962 36.7288 40.8817 38.1112C41.3284 39.1552 41.5759 40.4286 40.8033 41.3119C40.1151 42.1035 38.8776 42.2871 37.7548 42.396C31.9478 42.9524 26.0865 43.027 20.2614 42.6198" fill="#67564C"/>
<path d="M21.9984 38.9808C24.3532 37.8463 27.0539 38.0806 29.5847 37.7723C30.9988 37.5996 32.4129 37.3345 33.7481 36.8042C34.3672 36.5576 34.9559 36.237 35.5385 35.9225C35.7934 35.7869 36.0544 35.6451 36.3154 35.5279C36.4185 35.4786 36.6674 35.4169 36.7705 35.3368C36.9526 35.1949 36.9587 35.3306 36.7341 35.2874C37.8326 35.4971 38.6762 36.6748 39.1435 37.6181C39.6412 38.6108 40.151 40.0598 39.6109 41.1327C39.0282 42.2981 37.6445 42.2179 36.5399 42.3166C34.9377 42.4584 33.3354 42.5694 31.7332 42.631C28.1221 42.7667 24.511 42.6988 20.912 42.4337C20.3172 42.3905 19.3462 42.372 18.8607 42.7852C18.3751 43.1983 19.1338 43.3401 19.4554 43.3648C23.3457 43.6545 27.2542 43.7347 31.1566 43.5806C33.1776 43.5004 35.1986 43.3709 37.2197 43.1798C38.7551 43.0318 40.588 42.9208 41.8564 41.9158C44.1566 40.103 42.0567 36.0212 40.0296 34.8866C38.5184 34.0419 36.5339 34.2207 34.9498 34.7448C33.3658 35.2689 32.1337 36.274 30.5618 36.6563C28.8686 37.0632 27.0903 37.0262 25.3606 37.1865C23.461 37.3653 21.531 37.686 19.7953 38.5184C19.3098 38.7527 19.3037 39.0363 19.8499 39.1658C20.469 39.3199 21.4036 39.2521 21.9862 38.9685L21.9984 38.9808Z" fill="#67564C"/>
</svg>
