<svg width="750" height="166" viewBox="0 0 750 166" fill="none" xmlns="http://www.w3.org/2000/svg">
<path d="M411.035 20.3415C411.797 19.3587 411.785 18.2151 411.172 17.1489C410.559 16.0827 409.517 15.493 408.636 14.6353C408.118 14.129 408.136 13.855 408.862 13.6525C409.833 13.3844 410.999 13.6048 411.916 13.9801C412.94 14.403 413.75 15.1952 414.797 15.5526C416.119 15.9993 417.453 15.6002 418.774 15.3381C421.518 14.8021 424.263 14.26 427.007 13.724C429.752 13.1879 432.496 12.6459 435.24 12.1098C437.538 11.6571 440.235 10.8232 442.563 11.526C443.372 11.7703 444.259 12.2825 444.676 13.0449C445.176 13.9563 444.777 15.0284 444.456 15.9338C444.009 17.2025 443.658 18.4712 443.587 19.8233C443.515 21.1754 443.604 22.4203 443.735 23.7069C444.057 26.7744 444.372 29.8241 444.432 32.9095C444.492 35.995 444.355 39.1161 444.057 42.2015L446.962 42.3802L446.843 40.9626C446.724 39.5033 444.015 39.1578 443.938 40.7839C443.545 48.9501 443.813 57.1283 444.271 65.2886C444.384 67.3018 444.509 69.3091 444.64 71.3224C444.759 73.2046 444.938 75.1524 444.468 77.0048C444.128 78.3331 443.36 79.6316 442.188 80.3821C441.938 80.5429 441.586 80.7871 441.283 80.8169C441.051 80.8407 441.104 80.8646 440.813 80.6501C440.074 80.114 439.354 79.5482 438.646 78.9645C435.544 76.4092 432.794 73.4727 430.43 70.2205L428.722 72.1861C431.633 73.7943 434.883 74.7831 438.187 75.1047C438.854 75.1702 439.378 74.9618 439.711 74.378C441.027 72.0908 441.057 69.4342 441.045 66.867C441.033 63.9067 441.015 60.9463 440.997 57.98C440.967 52.0594 440.937 46.1328 440.908 40.2121C440.878 34.2914 440.848 28.3648 440.813 22.4441C440.807 20.961 440.795 19.4838 440.789 18.0007C440.783 16.8392 440.902 15.5704 440.396 14.4864C439.062 11.6273 435.431 12.9675 433.133 13.6108C427.591 15.1654 421.983 17.8398 416.089 17.3276L417.375 18.9299L417.387 18.4295C417.405 17.6433 416.893 16.9702 416.101 16.8272C415.428 16.7022 414.512 17.1132 414.476 17.8994C414.053 27.9836 413.625 38.0678 413.202 48.152C413.083 51.017 412.958 53.888 412.839 56.753C412.767 58.4387 415.393 59.076 415.75 57.2832C415.881 56.6339 416.006 55.9906 416.137 55.3414L413.226 54.8112C412.892 59.904 409.207 64.3177 405.999 68.0106C404.445 69.7976 402.742 71.4594 400.683 72.6507C399.659 73.2404 398.563 73.6633 397.414 73.9313C396.027 74.2529 394.599 74.378 393.235 74.8188L394.378 77.4098C411.315 70.8876 412.529 49.6292 412.285 34.2021C412.202 28.9962 411.898 23.7962 411.571 18.6023C411.464 16.8987 408.559 16.9285 408.672 18.775C409.219 27.6322 409.743 36.5191 409.077 45.3823C408.487 53.1732 407.183 61.4943 402.278 67.8439C399.915 70.9054 396.855 73.4191 393.229 74.8129C391.449 75.4978 392.723 77.934 394.372 77.4039C396.498 76.7189 398.736 76.6772 400.802 75.7659C402.736 74.9141 404.421 73.705 405.969 72.2814C407.428 70.9352 408.713 69.4163 409.94 67.8677C411.339 66.1046 412.69 64.2998 413.815 62.352C415.059 60.2077 415.958 57.8252 416.125 55.3354C416.238 53.6378 413.571 53.0243 413.214 54.8053C413.083 55.4545 412.958 56.0978 412.827 56.7471L415.738 57.2772C416.161 47.193 416.589 37.1088 417.012 27.0246C417.131 24.1596 417.256 21.2886 417.375 18.4236L414.464 17.8934L414.452 18.3938C414.434 19.1264 414.934 19.9305 415.738 19.9961C420.887 20.4428 425.757 18.8822 430.597 17.3157C431.77 16.9345 432.948 16.5652 434.133 16.2257C434.722 16.0589 435.318 15.8981 435.913 15.7551C436.354 15.6479 437.3 15.2548 437.747 15.4037C437.604 15.356 437.747 15.499 437.788 15.6955C437.901 16.2197 437.854 16.7856 437.86 17.3157C437.866 18.6976 437.872 20.0794 437.884 21.4613C437.943 32.8142 438.003 44.1671 438.062 55.5201C438.08 58.677 438.092 61.8398 438.11 64.9967C438.122 67.7247 438.39 70.691 436.979 73.151L438.503 72.4243C435.425 72.1265 432.502 71.239 429.793 69.7439C428.513 69.0351 427.257 70.5719 428.085 71.7096C430.383 74.8784 433.067 77.7672 436.038 80.3166C436.764 80.942 437.509 81.5436 438.271 82.1214C439.116 82.7646 439.961 83.4794 441.068 83.5569C442.89 83.6879 444.742 82.3417 445.783 80.9479C448.313 77.5528 447.641 73.1748 447.391 69.2257C447.123 64.9073 446.885 60.5949 446.748 56.2706C446.593 51.285 446.587 46.2936 446.825 41.3081L443.92 41.1294C443.962 41.5999 443.997 42.0764 444.039 42.547C444.158 44.0242 446.789 44.3399 446.944 42.7257C447.516 36.7872 447.444 30.8069 446.76 24.8863C446.605 23.5639 446.426 22.2238 446.444 20.8895C446.462 19.5553 446.742 18.3044 447.182 17.0298C447.623 15.7551 448.01 14.4447 447.664 13.1105C447.355 11.9132 446.593 10.8887 445.605 10.1501C443.396 8.50019 440.592 8.37511 437.961 8.7861C435.008 9.2507 432.079 9.91186 429.144 10.4896C426.21 11.0674 423.364 11.6214 420.477 12.1932C419.054 12.4731 417.613 12.8424 416.179 13.0271C415.125 13.1581 414.232 12.1396 413.327 11.7107C411.166 10.6862 406.832 10.0012 405.523 12.7292C404.844 14.1469 405.63 15.5288 406.648 16.5116C406.868 16.726 408.946 18.1555 408.666 18.5189C407.57 19.9365 409.946 21.6996 410.993 20.3475L411.035 20.3415Z" fill="#E30613"/>
<path d="M412.666 32.2075C415.422 32.1275 418.37 31.9848 420.573 30.506C421.781 29.6952 422.758 28.4905 424.234 28.1879C425.336 27.9595 426.473 28.2964 427.539 28.6275C429.307 29.1756 431.272 29.8836 431.987 31.4252C432.207 31.8991 432.278 32.4587 432.01 32.9098C431.707 33.4179 431.058 33.6634 430.445 33.8404C424.812 35.4734 418.62 34.1773 412.797 35.1422" fill="#E30613"/>
<path d="M411.376 33.0077C413.962 32.928 416.572 32.7517 418.957 31.682C420.212 31.1187 421.266 30.3335 422.321 29.4801C422.48 29.3492 422.645 29.2183 422.815 29.0932C423.157 28.8428 422.851 29.0135 423.074 28.9737C423.846 28.8371 424.647 29.0476 425.384 29.2638C426.514 29.5939 427.675 29.9523 428.688 30.5497C429.136 30.8171 429.548 31.1471 429.86 31.5625C429.996 31.7389 430.119 31.9323 430.213 32.1372C430.272 32.268 430.331 32.416 430.361 32.5582C430.414 32.8029 430.302 32.9906 430.331 33.2011L430.296 33.3206C430.867 33.0304 431.009 32.9394 430.72 33.0475C430.579 33.076 430.443 33.1329 430.308 33.1727C430.013 33.2523 429.719 33.3206 429.418 33.3889C428.67 33.5482 427.916 33.662 427.156 33.7417C425.772 33.8839 424.376 33.918 422.98 33.9294C419.729 33.9465 416.477 33.8441 413.255 34.3618C412.619 34.4643 411.871 34.8967 411.447 35.3632C411.088 35.7615 411.223 35.9948 411.771 35.9038C414.999 35.386 418.292 35.5738 421.549 35.5339C424.624 35.4941 428.234 35.3974 430.997 33.9237C432.246 33.258 433.435 32.1941 432.776 30.7204C432.31 29.6792 431.221 29.0078 430.196 28.5526C428.918 27.9893 427.451 27.4773 426.055 27.3521C424.441 27.2042 422.904 27.8983 421.626 28.7973C420.506 29.5825 419.664 30.5213 418.297 30.8854C416.701 31.3121 415.023 31.352 413.379 31.3975C412.731 31.4203 412.03 31.8299 411.547 32.2282C411.341 32.3989 410.752 33.0248 411.4 33.0077H411.376Z" fill="#E30613"/>
<path d="M410.128 19.0104C410.958 18.0909 409.984 16.7176 408.973 15.9675C407.963 15.2173 406.717 14.2494 407.042 13.0818C407.313 12.0957 408.582 11.6844 409.665 11.6602C411.163 11.6299 412.666 12.0473 413.9 12.8398C414.531 13.2452 415.127 13.7594 415.879 13.8864C416.372 13.9711 416.883 13.8743 417.376 13.7775C423.897 12.489 430.418 11.2064 436.938 9.91788C438.887 9.53071 440.908 9.14958 442.857 9.51861C444.806 9.88763 446.695 11.2306 446.978 13.0818C447.194 14.4974 446.46 15.8646 446.063 17.2439C445.317 19.8211 445.738 22.5434 446.033 25.1992C446.671 30.916 446.707 36.6873 446.147 42.4103L446.027 40.9705C445.522 51.3334 446.099 61.7145 446.761 72.0714C446.887 74.0617 447.014 76.0944 446.49 78.0303C445.967 79.9662 444.674 81.8234 442.707 82.5856C442.298 82.7429 441.834 82.8518 441.407 82.7369C441.107 82.6582 440.854 82.4767 440.613 82.2952C436.409 79.21 432.727 75.5016 429.75 71.3515C432.535 72.9184 435.699 73.8984 438.935 74.1948C440.174 72.1138 440.198 69.6032 440.186 67.2197C440.102 50.1719 440.012 33.1302 439.922 16.0824C439.922 15.1629 439.783 14.0498 438.893 13.6686C438.412 13.4629 437.852 13.5476 437.335 13.6505C430.237 15.0661 423.494 18.9076 416.27 18.224L416.282 17.7158C415.728 30.8737 415.181 44.0255 414.627 57.1834L415.018 55.2112C414.784 59.5911 412.053 63.4689 409.28 67.0019C406.417 70.6558 403.084 74.4247 398.41 75.6165C396.931 75.9916 395.367 76.0884 393.929 76.5784C399.295 74.5397 403.451 70.2747 406.044 65.429C408.636 60.5832 409.797 55.1749 410.435 49.7908C411.68 39.331 411.066 28.7624 410.417 18.2603" fill="#E30613"/>
<path d="M413.385 47.4118C417.032 45.7051 421.701 46.8142 425.426 45.2511C426.913 44.6247 428.347 43.5616 429.986 43.757C431.643 43.9524 432.737 45.3833 433.324 46.7682C433.771 47.8141 434.019 49.0898 433.245 49.9748C432.556 50.7678 431.316 50.9517 430.191 51.0609C424.374 51.6183 418.502 51.693 412.666 51.285" fill="#E30613"/>
<path d="M414.406 47.6396C416.765 46.503 419.471 46.7378 422.006 46.4289C423.423 46.256 424.84 45.9903 426.177 45.4591C426.797 45.212 427.387 44.8908 427.971 44.5758C428.226 44.4399 428.488 44.2978 428.749 44.1804C428.853 44.131 429.102 44.0693 429.205 43.9889C429.388 43.8469 429.394 43.9828 429.169 43.9395C430.269 44.1496 431.114 45.3294 431.583 46.2745C432.081 47.269 432.592 48.7206 432.051 49.7955C431.467 50.9629 430.081 50.8826 428.974 50.9815C427.369 51.1236 425.764 51.2347 424.159 51.2965C420.541 51.4324 416.923 51.3645 413.318 51.0988C412.722 51.0556 411.749 51.0371 411.263 51.4509C410.776 51.8648 411.536 52.0069 411.859 52.0316C415.756 52.3219 419.672 52.4022 423.581 52.2478C425.606 52.1675 427.63 52.0378 429.655 51.8463C431.193 51.698 433.03 51.5868 434.3 50.58C436.605 48.7639 434.501 44.6746 432.47 43.538C430.956 42.6917 428.968 42.8709 427.381 43.3959C425.794 43.921 424.56 44.9279 422.985 45.3109C421.289 45.7185 419.507 45.6815 417.775 45.8421C415.871 46.0212 413.938 46.3424 412.199 47.1764C411.713 47.4111 411.707 47.6952 412.254 47.825C412.874 47.9794 413.81 47.9114 414.394 47.6273L414.406 47.6396Z" fill="#E30613"/>
<path d="M195.053 21.1357C196.015 27.8696 196.535 34.6631 196.594 41.4686C196.642 46.7186 196.403 52.0462 194.855 57.0638C193.301 62.0815 190.307 66.8191 185.825 69.5842C184.283 70.5317 182.353 71.6103 182.359 73.416C187.839 70.3648 192.793 66.3662 196.917 61.6465C198.352 60.0077 199.702 58.2557 200.539 56.2474C201.489 53.971 201.74 51.4681 201.913 49.007C202.392 42.0704 202.29 35.0982 201.627 28.1795C201.34 25.2178 200.891 22.1071 199.063 19.7591L200.85 9.81913C201.298 10.8084 201.113 11.9943 200.605 12.9477C200.097 13.9012 199.29 14.6699 198.471 15.385C195.22 18.2216 191.526 20.5159 187.857 22.7864C186.626 23.5492 185.389 24.3179 184.158 25.0807C186.662 24.5801 189.184 24.0736 191.574 23.1618C194.467 22.0594 197.126 20.3789 200.079 19.4492C201.991 18.8474 204.017 18.5673 205.828 17.7091C206.073 17.59 206.33 17.4529 206.461 17.2145C206.647 16.8808 206.539 16.4696 206.408 16.1121C205.433 13.3947 203.575 10.9991 201.184 9.37219" fill="#E30613"/>
<path d="M212.025 3.99144C212.157 3.14858 212.833 2.44321 213.633 2.06063C214.434 1.67805 215.348 1.58241 216.243 1.56448C220.547 1.48677 224.852 3.2502 227.756 6.2869L228.075 6.20321C228.606 6.53796 228.469 7.35691 228.037 7.79927C227.605 8.24162 226.986 8.47475 226.498 8.8633C225.278 9.8317 225.134 11.5413 225.084 13.0537C224.552 29.0502 224.527 45.0586 225.021 61.055C225.146 65.1797 225.303 69.3342 224.571 73.3991C223.839 77.4639 222.13 81.4869 219.027 84.3503C218.101 60.4094 217.632 36.4566 217.613 12.5038C217.613 10.8121 217.6 9.07253 216.937 7.50636C216.274 5.94019 214.791 4.56531 213.02 4.51748" fill="#E30613"/>
<path d="M190.338 38.3543C196.734 37.7186 203.129 37.083 209.519 36.4474C211.587 36.2396 213.661 36.0379 215.741 35.9584C220.648 35.7751 225.591 36.3007 230.456 35.5001C232.823 35.1089 235.148 34.406 237.462 33.7093C239.948 32.9576 242.429 32.2058 244.915 31.4541C245.351 31.3196 245.806 31.1851 246.254 31.2646C246.87 31.3685 247.384 31.8452 247.862 32.3036C249.356 33.7276 250.844 35.1639 252.327 36.6124C252.733 37.0097 253.152 37.4314 253.325 38.0181C253.785 39.6072 252.112 40.9823 250.683 41.0007C248.794 41.0251 247.061 39.8761 245.238 39.2833C243.445 38.6965 241.556 38.6537 239.697 38.6293C229.596 38.4826 219.494 38.7149 209.405 39.3199L210.397 37.5475C201.037 37.3642 191.665 37.8837 182.359 39.0999C184.026 42.6631 187.583 44.8694 191.026 44.4722C192.544 44.2949 193.996 43.6654 195.455 43.1092C200.744 41.1046 210.194 38.9349 215.753 39.0143C211.085 39.2772 202.531 40.7195 197.863 40.9823" fill="#E30613"/>
<path d="M193.604 21.2139C194.779 29.4779 195.418 37.9161 195.104 46.2702C194.833 53.4343 193.296 61.0371 188.096 66.3441C186.836 67.6303 185.378 68.5438 183.878 69.5174C182.263 70.5632 180.877 71.9095 180.798 73.9349C180.75 75.179 182.383 75.1249 183.1 74.7222C186.698 72.7088 190.042 70.3048 193.122 67.5701C196.201 64.8355 199.093 61.9507 201.1 58.5008C203.354 54.6243 203.45 49.9965 203.637 45.6331C203.824 41.2698 203.788 36.5458 203.498 32.0142C203.215 27.5667 203.137 22.4701 200.329 18.7558L200.552 19.7294C201.154 16.3878 201.757 13.0462 202.353 9.70452L199.503 10.1312C200.148 11.7179 198.864 13.1063 197.768 14.1039C196.37 15.3721 194.833 16.502 193.284 17.5838C190.03 19.8496 186.614 21.8811 183.245 23.9666C182.028 24.7179 182.745 26.5449 184.155 26.2625C186.764 25.7396 189.392 25.2047 191.886 24.2731C194.146 23.4257 196.249 22.2236 198.467 21.2801C200.72 20.3184 203.131 19.9759 205.415 19.1344C206.56 18.7137 207.831 18.1608 208.084 16.8386C208.289 15.7868 207.614 14.5487 207.138 13.6412C205.963 11.3994 204.288 9.48816 202.197 8.04572C200.859 7.12016 198.738 9.15159 200.25 10.1974C201.462 11.0388 202.504 12.0485 203.378 13.2385C203.776 13.7794 204.131 14.3504 204.438 14.9514C204.686 15.4442 205.294 16.3818 205.095 16.9047L205.427 16.2796C205.083 16.7424 203.8 16.9828 203.209 17.1451C202.317 17.3975 201.413 17.5958 200.522 17.8423C198.666 18.3471 196.93 19.1284 195.207 19.9638C193.483 20.7992 191.796 21.6286 189.988 22.2236C188.03 22.8727 185.999 23.2694 183.98 23.6721L184.89 25.968C188.65 23.636 192.489 21.3882 196.062 18.7798C198.949 16.6703 204.023 13.2745 202.299 9.02538C201.787 7.76926 199.672 8.208 199.449 9.45209C199.027 11.796 198.605 14.134 198.184 16.4779C198.009 17.4516 197.798 18.4252 197.653 19.4049C197.509 20.3845 198.467 21.25 198.852 22.1155C199.371 23.2754 199.684 24.5015 199.883 25.7516C200.365 28.7326 200.522 31.7918 200.654 34.8089C200.787 37.826 200.823 41.1255 200.733 44.2869C200.642 47.4482 200.594 50.5014 199.967 53.5124C199.34 56.5235 197.882 58.7052 195.99 60.8989C191.874 65.6649 186.927 69.6437 181.425 72.7148L183.727 73.5022C183.775 72.2881 185.529 71.5008 186.403 70.9659C187.825 70.0884 189.132 69.0366 190.301 67.8406C192.682 65.4065 194.441 62.4014 195.647 59.2341C198.539 51.6313 198.298 43.1089 197.906 35.1154C197.671 30.3193 197.207 25.5352 196.532 20.7812C196.285 19.0443 193.351 19.5912 193.58 21.2139H193.604Z" fill="#E30613"/>
<path d="M213.771 4.53473C214.018 3.27487 215.257 2.90891 216.373 2.84891C217.67 2.77692 218.962 2.9209 220.225 3.25687C222.691 3.9108 224.864 5.27865 226.596 7.18045C226.901 7.51641 227.453 7.6424 227.876 7.52241L228.176 7.43842L226.895 7.09646C226.796 7.00647 226.713 6.52052 226.608 6.52052C226.602 6.52052 226.573 6.59251 226.561 6.59251C226.432 6.62251 226.115 6.94047 225.997 7.02446C225.527 7.33043 225.099 7.6364 224.729 8.06835C224.03 8.89626 223.754 10.0001 223.607 11.056C223.443 12.2559 223.466 13.4918 223.431 14.6976C223.39 16.0955 223.355 17.4873 223.325 18.8852C223.196 24.4706 223.126 30.056 223.108 35.6414C223.09 41.2268 223.137 46.8122 223.237 52.3976C223.337 57.869 223.742 63.3944 223.46 68.8658C223.196 74.0133 221.963 79.5447 218.234 83.2883L220.395 84.8421C219.99 73.5273 219.673 62.2125 219.45 50.8918C219.227 39.571 219.103 28.2502 219.074 16.9294C219.074 15.3516 219.074 13.7797 219.068 12.2019C219.056 10.7441 218.997 9.27422 218.592 7.87037C217.852 5.33265 215.903 3.14288 213.208 2.9689C212.468 2.9209 212.074 3.74282 212.192 4.39075C212.327 5.15866 212.973 5.7406 213.724 5.7886C215.603 5.90858 216.238 8.15234 216.402 9.71818C216.666 12.2499 216.478 14.8896 216.484 17.4333C216.502 22.8208 216.543 28.2082 216.602 33.5956C216.725 44.3705 216.93 55.1393 217.224 65.9081C217.389 71.9915 217.582 78.0748 217.8 84.1522C217.823 84.7461 218.046 85.2861 218.545 85.622C218.909 85.874 219.585 86.084 219.961 85.706C223.601 82.0524 225.286 77.0849 225.856 71.9915C226.173 69.1178 226.15 66.2261 226.073 63.3404C225.997 60.4547 225.909 57.4011 225.85 54.4314C225.61 42.4147 225.639 30.386 225.938 18.3692C225.979 16.6714 226.02 14.9796 226.079 13.2818C226.114 12.2139 226.109 10.8221 226.901 10.0061C227.289 9.61019 227.847 9.40621 228.258 9.03425C228.775 8.5723 229.133 7.96636 229.191 7.25844C229.315 5.7946 228.199 4.36075 226.708 4.7927L227.988 5.13467C225.797 2.72893 222.826 1.02511 219.673 0.35318C216.948 -0.228758 212.004 -0.540724 211.282 3.16688C211.135 3.9228 211.428 4.70271 212.121 5.08067C212.661 5.37464 213.613 5.27865 213.76 4.52873L213.771 4.53473Z" fill="#E30613"/>
<path d="M191.097 40.1548C198.569 39.4319 206.034 38.6084 213.517 38.01C217.155 37.7196 220.78 37.8381 224.429 37.8322C228.078 37.8263 231.602 37.4589 235.125 36.5169C238.649 35.5748 242.143 34.4609 245.655 33.4596C246.497 33.2226 246.837 33.2167 247.488 33.7914C248.199 34.4254 248.892 35.0889 249.585 35.7407C250.224 36.3391 250.857 36.9375 251.496 37.536C251.759 37.7848 252.039 38.0159 252.284 38.2825C252.368 38.3714 252.439 38.478 252.523 38.5669C252.666 38.7091 252.547 38.6854 252.559 38.5669C252.433 39.7578 250.857 39.9711 249.925 39.7934C248.408 39.503 247.04 38.6972 245.577 38.2351C243.875 37.6959 242.059 37.6248 240.286 37.5893C238.416 37.5537 236.547 37.5419 234.684 37.5419C226.274 37.5241 217.859 37.767 209.462 38.2529L210.884 40.5814L211.875 38.8631C212.436 37.8915 211.499 36.5524 210.454 36.5346C201.089 36.3687 191.724 36.8724 182.437 38.0396C181.517 38.1581 181.422 39.2779 181.75 39.9474C182.885 42.2344 184.731 44.2134 187.096 45.2799C189.628 46.4234 192.13 46.2456 194.71 45.351C196.92 44.5807 199.094 43.7809 201.358 43.1765C203.794 42.5307 206.261 41.9856 208.746 41.559C211.296 41.1206 213.894 40.7769 216.492 40.8006L215.799 37.9626C209.815 38.3003 203.914 39.5327 197.924 39.8704C196.323 39.9593 197.159 42.7914 198.616 42.7084C204.601 42.3707 210.501 41.1383 216.492 40.8006C217.238 40.7591 217.453 39.8585 217.31 39.266C217.137 38.5491 216.557 37.9685 215.799 37.9626C211.302 37.9152 206.751 38.8394 202.409 39.8941C200.271 40.4155 198.145 41.0021 196.066 41.7131C193.809 42.4892 191.545 43.6564 189.09 43.1587C186.767 42.6847 184.856 41.0613 183.817 38.9757L183.13 40.8836C192.423 39.7104 201.788 39.2068 211.146 39.3786L209.725 37.0501L208.734 38.7683C208.202 39.6867 209.086 41.1561 210.155 41.0969C218.11 40.6347 226.071 40.3977 234.039 40.3859C236.015 40.3859 237.998 40.3977 239.975 40.4214C241.839 40.4451 243.714 40.4629 245.511 41.0021C248.247 41.8256 251.86 44.2252 254.231 41.2983C255.33 39.9415 255.133 38.0633 254.04 36.7598C252.852 35.3437 251.329 34.1291 249.979 32.873C248.629 31.6169 247.267 30.0409 245.213 30.5623C243.355 31.0363 241.522 31.6347 239.688 32.1739C236.009 33.2522 232.336 34.449 228.496 34.8105C224.656 35.1719 220.798 34.9053 216.952 34.9704C212.52 35.0475 208.095 35.6163 203.687 36.0429C199.261 36.4695 194.842 36.8961 190.416 37.3227C188.81 37.4767 189.652 40.3029 191.109 40.1607L191.097 40.1548Z" fill="#E30613"/>
<path d="M195.657 41.3913C199.966 40.7554 204.392 41.7295 208.608 40.4677C209.204 40.291 208.743 39.2967 208.55 39.0191C208.246 38.5901 207.709 38.1257 207.09 38.3125C203.067 39.5188 198.693 38.5043 194.57 39.115C193.35 39.2967 194.611 41.5428 195.668 41.3863L195.657 41.3913Z" fill="#E30613"/>
<path d="M155.86 139.352C152.317 133.667 147.576 127.815 141.083 127.146C138.51 126.881 135.937 127.494 133.392 128.024C124.555 129.863 115.544 130.741 106.573 131.632C89.0213 133.36 71.4833 135.074 53.9318 136.802C48.2205 137.359 42.4553 137.916 36.744 137.22C34.7101 136.969 32.5818 136.495 31.1136 135.018C30.0494 133.945 29.4568 132.468 29.0527 130.991C28.0963 127.466 28.0289 123.746 27.9885 120.081C27.7191 99.8497 27.4497 79.604 27.1803 59.3724C27.0726 50.7474 27.2477 41.2586 32.7569 34.7934C38.9801 27.4782 49.5541 26.7676 58.9696 26.5865L133.903 25.1374C137.271 25.0677 141.447 24.4407 142.524 21.1384C143.642 17.7386 140.504 14.5478 137.702 12.4159C134.038 9.61526 130.361 6.80067 126.697 4L130.684 7.53915C126.185 3.02464 118.83 5.07289 112.809 6.8982C99.0834 11.0365 84.7378 12.3602 70.5 13.67C60.8958 14.5478 51.2917 15.4256 41.6471 15.4395C29.0526 15.4395 16.4043 13.9765 3.91755 15.5789C2.92077 15.7043 1.88358 15.8715 1.10231 16.5124C-0.783492 18.0591 -0.0291694 21.3474 1.70847 23.0612C3.4461 24.7751 5.84377 25.6111 7.72957 27.1717C11.9457 30.669 12.6865 36.9392 12.7674 42.5266C13.0502 60.2502 13.2253 77.9041 12.727 95.6138C12.3229 109.789 12.5159 121.479 13.3062 130.685C13.845 136.983 4.83352 141.72 6.85402 147.67C8.67248 153.034 15.5557 154.33 20.9706 153.285C23.5165 152.798 25.9815 152.003 28.4465 151.181C30.0225 151.181 31.585 151.181 33.161 151.181C38.0102 151.181 42.8729 151.167 47.7221 150.972C57.5283 150.582 67.3345 149.467 77.1138 148.283C78.6359 148.186 80.158 148.074 81.6801 147.963L124.825 145.984C128.367 146.207 131.896 146.597 135.426 147.21C141.474 148.255 147.845 149.927 153.556 147.656C155.267 146.973 157.018 145.733 157.314 143.852C157.57 142.264 156.722 140.731 155.873 139.379L155.86 139.352ZM31.1944 150.234C33.6325 149.426 38.4676 150.652 41 150.234C46.6978 149.3 42.7348 150.578 48.5 150.94C51.3691 151.121 61.6232 148.729 64.4923 148.715L31.1944 150.234Z" fill="#E30613"/>
<path d="M161.941 138.007C159.301 133.785 156.109 129.424 151.731 127.014C146.208 123.99 140.551 125.564 134.745 126.651C121.828 129.076 108.64 129.926 95.5879 131.208C82.495 132.489 69.4021 133.827 56.2958 135.053C53.1034 135.346 49.911 135.597 46.7051 135.569C43.9841 135.541 40.5628 135.652 38.1112 134.245C35.4845 132.74 34.8515 129.117 34.5147 126.303C34.1375 123.154 34.178 119.949 34.1375 116.772C33.9624 103.201 33.7739 89.6295 33.5987 76.072C33.5179 69.4814 33.3698 62.8908 33.3428 56.3141C33.3293 50.9497 33.4775 45.3205 35.4037 40.2625C37.074 35.9013 40.0644 32.6826 44.3478 31.1081C48.6313 29.5336 53.7095 29.1713 58.4375 29.032C71.3687 28.6419 84.3 28.5165 97.2312 28.2657L116.965 27.8894C123.377 27.764 129.815 27.8337 136.227 27.4993C140.82 27.2624 147.326 25.5765 148.7 20.2817C150.155 14.7082 143.636 10.8346 140.066 8.10365C137.534 6.16687 135.001 4.23009 132.469 2.29331C130.758 0.983547 125.101 4.38336 127.067 6.12507C128.401 7.30943 129.721 8.47986 131.054 9.66422C132.684 11.1133 138.369 7.64384 136.456 5.83246C130.57 0.23113 121.383 3.65881 114.729 5.58166C105.758 8.17332 96.45 9.51095 87.196 10.5281C77.7535 11.5592 68.2572 12.451 58.7743 13.0362C48.8468 13.6492 38.9868 13.287 29.0593 12.9804C24.2101 12.8272 19.3474 12.7575 14.4982 13.0501C10.1339 13.3148 4.22058 13.1616 1.18982 17.0491C-1.12703 20.0169 0.206509 23.8069 2.90052 25.9387C4.53039 27.2206 6.48355 27.973 8.07301 29.3107C9.46043 30.4672 10.4303 32.0138 11.1307 33.7137C12.7067 37.5594 12.6932 41.8231 12.7606 45.9196C12.8414 50.9775 12.9088 56.0354 12.9492 61.0934C13.0435 71.1953 13.03 81.3111 12.8145 91.413C12.5585 103.493 11.885 115.518 12.8818 127.585C13.1243 130.441 13.7304 133.214 12.37 135.861C11.0095 138.509 8.9351 140.627 7.58809 143.26C6.24109 145.894 6.11986 148.848 7.83055 151.328C9.70289 154.031 12.8145 155.355 15.9126 155.8C19.9401 156.386 23.8195 155.605 27.6854 154.477C28.6822 154.184 29.7598 153.627 30.77 153.501C29.8137 153.627 32.0093 153.585 31.888 153.585C32.3326 153.585 32.7905 153.585 33.2351 153.585C35.8886 153.585 38.5422 153.585 41.1958 153.557C51.029 153.46 60.7948 152.707 70.574 151.62C79.0871 150.673 87.4654 150.157 96.0054 149.767L122.595 148.555C126.098 148.388 129.384 148.555 132.913 149.043C141.602 150.213 151.246 153.529 159.355 148.318C160.958 147.287 162.547 145.852 163.194 143.957C163.908 141.839 162.978 139.819 161.901 138.049C160.635 135.959 154.708 139.247 155.893 141.184C156.553 142.257 158.21 144.793 156.769 145.921C155.745 146.73 153.671 146.771 152.458 146.813C148.256 146.967 144.12 145.88 139.985 145.197C135.85 144.514 131.486 143.929 127.216 144.124C119.214 144.486 111.2 144.863 103.198 145.225C97.1235 145.503 91.035 145.657 84.9735 146.103C75.6253 146.785 66.3579 148.207 56.9962 148.792C52.349 149.07 47.7019 149.182 43.0547 149.224C40.8456 149.238 38.6231 149.238 36.414 149.238C35.296 149.238 34.1645 149.168 33.0465 149.238C31.6725 149.321 30.3659 149.934 29.0593 150.338C24.062 151.899 14.9831 153.209 12.8683 146.339C12.1006 143.845 13.717 141.588 15.064 139.679C16.7208 137.324 18.5662 134.956 19.2127 132.057C19.7785 129.494 19.1184 126.595 18.9164 124.004C18.7548 121.956 18.6066 119.893 18.5258 117.845C18.3237 112.927 18.4719 108.008 18.5931 103.089C19.0915 84.2093 19.2127 65.3571 18.9433 46.477C18.8356 39.4126 19.3609 30.4254 13.4341 25.4789C10.9691 23.4307 6.09292 22.2184 6.09292 18.1916C6.09292 18.2334 6.16027 17.2999 6.18721 17.3138L5.62147 17.69C4.88061 18.0662 4.85367 18.1638 5.55411 17.9687C6.48355 18.0801 7.66891 17.7039 8.62528 17.6203C11.0364 17.4113 13.461 17.2999 15.8856 17.2441C25.1665 17.063 34.4339 17.8711 43.7282 17.8293C52.9283 17.7875 62.1014 16.9655 71.261 16.1294C80.4206 15.2934 89.2165 14.5131 98.1068 13.0362C102.525 12.3116 106.916 11.4059 111.254 10.2634C114.917 9.28801 118.514 7.97825 122.259 7.40697C125.464 6.90535 128.549 7.3373 131.001 9.67815L136.402 5.8464C135.069 4.66203 133.749 3.49161 132.415 2.30725L127.013 6.139C129.64 8.14545 132.253 10.1519 134.88 12.1444C137.076 13.8164 139.621 15.4049 141.305 17.6621C141.965 18.5539 142.598 19.6268 142.679 20.7833C142.72 21.3128 142.652 21.8562 142.437 22.3438C142.41 22.3857 142.315 22.734 142.491 22.525C141.615 23.5561 137.816 23.1799 136.523 23.2077L97.0426 23.9741C84.3943 24.2249 71.692 24.1134 59.0706 24.7683C48.9815 25.2978 37.5051 27.764 31.5782 37.1553C25.6514 46.5466 27.0927 59.5049 27.2409 70.3592C27.416 83.8192 27.5911 97.2651 27.7797 110.725C27.8605 117.218 27.4025 124.046 28.5609 130.441C29.0593 133.2 29.8675 136.168 32.2383 137.826C34.4339 139.359 37.2761 139.596 39.8354 139.805C46.3414 140.348 52.9013 139.47 59.3669 138.829C65.8326 138.188 72.4733 137.547 79.0197 136.906C92.0991 135.625 105.192 134.468 118.258 133.005C124.724 132.28 131.081 131.235 137.466 129.981C140.201 129.452 142.841 129.271 145.441 130.427C147.703 131.43 149.684 133.144 151.381 134.984C153.078 136.823 154.546 138.996 155.893 141.156C157.24 143.316 163.1 139.93 161.901 138.021L161.941 138.007Z" fill="#E30613"/>
<g clip-path="url(#clip0_31_469)">
<path d="M261.43 20.3369C261.765 19.3625 262.838 18.8311 263.677 19.2263C262.662 19.1172 261.63 19.8804 261.278 20.9979C260.926 22.1154 261.301 23.4645 262.14 24.1391C262.949 24.7933 264.005 24.7864 264.991 24.7524C269.302 24.6161 273.62 24.473 277.931 24.3367C278.43 24.3231 278.969 24.3163 279.374 24.6502C279.867 25.0522 280.019 25.8085 280.137 26.4899C282.307 39.4364 284.466 52.9348 281.492 65.6632C270.528 65.6155 259.559 65.5747 248.595 65.527C248.062 65.527 247.416 65.6019 247.188 66.1607C247.017 66.5763 247.17 67.0669 247.328 67.4894C248.032 69.4177 248.895 71.5368 250.572 72.3068C251.781 72.8588 253.13 72.5726 254.409 72.3068C274.805 68.0413 295.764 70.8895 316.459 69.6698C318.494 69.5472 320.553 69.3836 322.495 68.6614L320.6 66.113L322.178 67.0192C320.043 63.6327 316.758 61.3228 313.239 60.3688C309.719 59.4149 305.988 59.7624 302.539 61.0298C300.984 61.6021 299.471 62.3585 297.881 62.7809C296.427 63.1625 294.931 63.2511 293.435 63.3056C291.482 63.3669 289.528 63.3601 287.575 63.2852C287.927 54.0659 288.279 44.8399 288.631 35.6206C288.707 33.6173 288.783 31.5731 288.343 29.6311C287.98 28.0162 287.258 26.3945 287.563 24.766C293.828 25.3656 300.228 23.8802 305.812 20.5345C306.563 20.0848 307.408 19.3557 307.285 18.3882C307.232 17.9657 306.985 17.6046 306.751 17.2775C305.994 16.235 305.179 15.2469 304.316 14.3271C303.812 13.7887 303.255 13.2573 302.58 13.1278C301.952 13.0051 301.319 13.2436 300.721 13.4958C297.741 14.7291 294.825 16.1736 291.792 17.223C282.724 20.3438 273.057 19.7169 263.618 19.0627" fill="#E30613"/>
<path d="M262.662 21.2567C262.891 20.698 263.331 20.2142 263.888 20.4323L263.125 17.9792C261.465 17.8975 259.846 19.2194 259.823 21.2704C259.799 23.4985 261.407 25.2225 263.155 25.7812C264.017 26.0538 264.92 26.0333 265.806 26.0061C266.956 25.972 268.106 25.9311 269.255 25.897C271.361 25.8289 273.473 25.7608 275.579 25.6926C276.605 25.6586 277.644 25.5904 278.67 25.5972H278.887C279.286 25.6654 279.192 25.5495 278.612 25.2565C278.594 25.2906 278.694 25.5223 278.706 25.57C278.805 26.1832 278.928 26.7965 279.028 27.4165C279.415 29.7469 279.797 32.0841 280.143 34.4213C280.847 39.2047 281.427 44.0357 281.574 48.8873C281.738 54.318 281.369 59.7623 280.154 65.0227L280.929 64.4298C272.922 64.3958 264.915 64.3617 256.913 64.3344C254.925 64.3276 252.936 64.3208 250.948 64.3072C249.98 64.3072 249.006 64.2731 248.038 64.2936C247.352 64.3072 246.466 64.3685 246.026 65.0908C245.557 65.8676 245.868 66.7943 246.143 67.5711C246.419 68.3479 246.748 69.1519 247.129 69.8946C248.032 71.6254 249.311 73.0427 251.012 73.615C252.713 74.1874 254.596 73.6491 256.339 73.3084C258.304 72.92 260.275 72.5998 262.251 72.334C266.111 71.8093 269.989 71.5027 273.866 71.3255C281.662 70.9644 289.47 71.1348 297.271 71.2233C301.7 71.271 306.129 71.2983 310.564 71.1961C312.746 71.1416 314.934 71.0598 317.11 70.9303C319.198 70.8077 321.293 70.6237 323.299 69.9014C323.921 69.6766 323.874 68.9134 323.498 68.4024L321.603 65.854L320.448 67.1963C320.976 67.4961 321.504 67.7959 322.026 68.1026C322.976 68.6477 323.891 67.8641 323.181 66.7602C320.389 62.4061 315.996 59.6056 311.397 58.8424C308.863 58.42 306.282 58.5494 303.783 59.1763C301.284 59.8032 298.896 61.2137 296.339 61.7315C293.306 62.3448 290.074 62.1608 287.012 62.045L288.871 63.9529C289.123 57.3161 289.382 50.6793 289.634 44.0494C289.757 40.8332 289.951 37.6034 289.986 34.3804C290.003 32.8132 289.933 31.2323 289.563 29.7128C289.217 28.3024 288.637 26.9259 288.865 25.4269L288.091 26.0197C292.667 26.4353 297.318 25.8153 301.683 24.1595C302.756 23.7506 303.818 23.2737 304.856 22.7558C305.789 22.2857 306.839 21.8223 307.637 21.0796C308.376 20.3846 308.81 19.4442 308.475 18.3404C308.1 17.1071 307.103 16.0918 306.346 15.1719C304.704 13.1822 302.803 11.1858 300.263 12.1124C297.917 12.971 295.652 14.143 293.329 15.0901C288.813 16.9299 284.12 17.8975 279.345 18.2041C273.913 18.5516 268.475 18.1837 263.055 17.8021C262.416 17.7544 262.14 18.3813 262.392 19.0082C262.686 19.7372 263.466 20.2551 264.14 20.3028C272.816 20.9024 281.68 21.4884 290.215 19.1717C292.379 18.5857 294.485 17.768 296.567 16.8686C297.571 16.4325 298.568 15.9896 299.571 15.5467C300.052 15.3354 300.527 15.131 301.008 14.9266C301.489 14.7222 302.31 14.2043 302.838 14.3406C303.425 14.4905 304.093 15.5126 304.498 15.9896C304.856 16.412 305.202 16.8481 305.537 17.3047C305.836 17.7135 306.106 17.9588 305.812 18.4698C305.39 19.2126 304.457 19.5873 303.8 19.9553C302.85 20.48 301.882 20.9501 300.897 21.359C296.45 23.2055 291.722 23.9346 287.018 23.5053C286.666 23.4713 286.308 23.6757 286.243 24.0982C286.015 25.604 286.431 26.9941 286.818 28.4046C287.235 29.9309 287.387 31.4504 287.37 33.0449C287.334 36.2678 287.141 39.4908 287.018 42.7138C286.765 49.3506 286.507 55.9874 286.255 62.6173C286.214 63.6599 287.305 64.498 288.115 64.5252C290.666 64.6206 293.241 64.6615 295.787 64.4503C296.996 64.3481 298.192 64.1777 299.36 63.803C300.527 63.4282 301.683 62.8967 302.844 62.447C307.144 60.764 311.954 60.4233 316.16 62.6378C318.137 63.6803 319.838 65.268 321.134 67.2917L322.29 65.9494C321.762 65.6495 321.234 65.3497 320.712 65.0431C319.82 64.5321 318.753 65.302 319.556 66.3854L321.451 68.9339L321.65 67.4348C318.277 68.6477 314.553 68.5182 311.056 68.6272C307.39 68.7431 303.724 68.7567 300.058 68.7363C292.678 68.6886 285.299 68.4909 277.914 68.6409C270.616 68.7908 263.307 69.2814 256.086 70.5828C255.242 70.7327 254.397 70.9031 253.558 71.0734C252.719 71.2438 251.898 71.4618 251.077 71.3324C249.904 71.1552 249.34 69.6357 248.9 68.5386C248.719 68.0821 248.132 67.1077 248.678 66.8284C248.889 66.7193 249.188 66.7807 249.411 66.7807C249.992 66.7807 250.578 66.7807 251.159 66.7875C253.001 66.7943 254.849 66.8011 256.69 66.8079C265.132 66.842 273.579 66.876 282.02 66.9101C282.401 66.9101 282.694 66.7602 282.794 66.3173C284.877 57.282 284.431 47.8107 283.246 38.6459C282.941 36.2951 282.589 33.9443 282.213 31.6071C282.043 30.5441 281.867 29.488 281.691 28.4318C281.515 27.3757 281.421 26.2514 281.005 25.2974C279.984 22.9739 277.861 23.0693 275.937 23.1306C273.831 23.1987 271.719 23.2669 269.613 23.335C268.463 23.3691 267.314 23.41 266.164 23.444C265.155 23.4781 264.064 23.6484 263.061 23.4645C262.92 23.4372 262.773 23.4031 262.644 23.3282C262.85 23.4508 262.715 23.4236 262.662 23.3146C262.486 22.9398 262.422 22.531 262.486 22.1085C262.627 21.1614 263.384 20.4391 264.211 20.48C264.762 20.5072 265.108 20.0439 264.926 19.4306C264.703 18.6811 264.058 18.2654 263.454 18.0269C262.251 17.5636 260.761 18.0269 260.192 19.417C259.665 20.698 262.169 22.456 262.662 21.2499V21.2567Z" fill="#E30613"/>
</g>
<g clip-path="url(#clip1_31_469)">
<path d="M324.939 59.202C328.756 63.5722 331.955 68.6024 334.372 74.0548C339.573 59.8858 336.278 43.8023 337.797 28.6047C344.678 35.9597 351.596 43.3564 357.266 51.8827C362.451 59.6718 366.726 68.5548 373.85 74.1677C374.975 75.0537 376.278 75.8801 377.651 75.6899C378.819 75.5293 379.805 74.6434 380.58 73.6623C382.998 70.6121 383.988 66.45 384.139 62.4009C384.29 58.3518 383.687 54.3205 383.31 50.2892C382.432 40.9958 382.739 31.5598 384.22 22.3616C384.516 20.5243 384.855 18.6335 384.505 16.8081C384.155 14.9828 382.901 13.2169 381.215 13.0444C379.751 12.8898 378.362 13.9898 377.613 15.393C376.865 16.7963 376.649 18.4551 376.504 20.0724C375.185 34.5743 378.464 49.4211 375.761 63.6793C372.035 63.5306 368.401 61.5328 366.053 58.3339C368.74 59.7669 371.421 61.1939 374.108 62.6268C368.589 59.1604 365.176 52.8281 361.385 47.1974C358.499 42.9104 355.279 38.9089 352.065 34.9132C349.83 32.1365 347.596 29.3539 345.361 26.5772C342.799 23.3902 340.117 20.1081 336.58 18.3957C333.042 16.6833 328.385 17.0163 325.935 20.3162C325.908 22.9264 329.548 23.2237 331.007 25.275C331.825 26.4285 331.841 28.0161 331.825 29.4787C331.691 41.1267 331.556 52.7746 331.427 64.4225C329.408 62.6268 327.383 60.8312 325.364 59.0296L324.944 59.202H324.939Z" fill="#E30613"/>
<path d="M324.438 59.8143C328.094 64.0121 331.109 68.858 333.436 74.0784C333.689 74.6492 335.099 75.8681 335.471 74.8395C339.547 63.6316 338.448 51.3177 338.47 39.5212C338.475 36.138 338.567 32.7548 338.895 29.3894L337.296 29.2111C341.453 33.6526 345.62 38.1001 349.513 42.8271C353.406 47.554 356.604 52.2037 359.732 57.2755C362.672 62.05 365.601 66.8602 369.311 70.9628C370.205 71.9498 371.142 72.8893 372.132 73.7574C373.241 74.7325 374.41 75.7492 375.734 76.3557C376.93 76.9027 378.26 77.093 379.471 76.4865C380.683 75.88 381.539 74.8157 382.271 73.6979C385.588 68.6439 385.55 62.0857 384.979 56.1517C384.656 52.7923 384.258 49.4448 384.085 46.0676C383.913 42.6546 383.897 39.2298 384.037 35.811C384.177 32.3921 384.478 29.0565 384.936 25.709C385.351 22.6944 386.379 19.2458 385.351 16.2551C384.478 13.7162 382.115 11.3141 379.498 11.9622C376.881 12.6103 375.783 15.7972 375.481 18.4907C374.001 31.631 376.725 44.8665 375.363 58.0128C375.196 59.6419 374.959 61.2592 374.663 62.8646L375.153 62.49C371.939 62.3354 368.859 60.73 366.802 57.983L366.123 59.3506C368.81 60.7835 371.492 62.2105 374.178 63.6435C374.571 63.8516 375.148 63.8575 375.218 63.2808C375.288 62.704 374.744 62.0143 374.329 61.7527C368.304 57.9176 364.907 50.7053 360.75 44.8368C358.236 41.293 355.527 37.9277 352.824 34.5623C350.094 31.1673 347.408 27.7306 344.624 24.389C342.185 21.4636 339.434 18.5323 335.993 17.1113C333.182 15.9459 329.763 15.7259 327.066 17.3848C326.479 17.7475 325.919 18.1875 325.44 18.7048C325.154 19.008 324.853 19.2993 324.821 19.7512C324.799 20.108 324.891 20.4945 324.998 20.8274C325.467 22.3139 326.732 23.2652 327.922 23.9787C328.428 24.282 328.956 24.5614 329.413 24.8647C329.93 25.2095 330.167 25.3106 330.399 25.8636C330.722 26.6484 330.711 27.6057 330.711 28.45C330.711 29.5916 330.69 30.7332 330.673 31.8748C330.55 42.5357 330.431 53.1966 330.307 63.8575L331.928 63.7862C330.533 62.5494 329.139 61.3068 327.744 60.07C327.071 59.4754 326.42 58.8392 325.72 58.2744C325.144 57.8106 324.718 57.8106 324.11 58.0663C323.087 58.4884 324.842 60.6943 325.774 60.3079L326.194 60.1354L324.858 59.63C326.877 61.4257 328.902 63.2213 330.921 65.0229C331.336 65.3916 332.531 66.0575 332.542 64.9516C332.622 57.7928 332.703 50.6399 332.789 43.4811C332.832 39.8779 332.87 36.2747 332.913 32.6716C332.946 29.663 333.317 26.4106 331.109 24.169C330.253 23.3009 329.198 22.742 328.18 22.1474C327.965 22.0225 327.884 21.975 327.68 21.8382C327.577 21.7669 327.475 21.6955 327.378 21.6242C327.319 21.5826 327.265 21.535 327.206 21.4874C327.292 21.5588 327.297 21.5588 327.227 21.4874C327.303 21.5588 327.071 21.2377 327.136 21.3923C327.087 21.2734 327.055 21.0415 327.055 20.8334L326.937 21.2793C329.23 18.2767 333.333 17.8723 336.483 19.3172C340.414 21.1247 343.192 25.1025 345.938 28.5214C349.228 32.6062 352.555 36.6612 355.77 40.8174C358.704 44.6049 361.331 48.6005 363.986 52.6199C366.64 56.6393 369.796 60.8489 373.893 63.4592L374.038 61.5684C371.352 60.1354 368.67 58.7084 365.983 57.2755C365.677 57.1149 365.203 57.0376 365.004 57.4182C364.804 57.7987 365.079 58.3457 365.305 58.643C368.04 62.3057 372.068 64.6126 376.375 64.8267C376.569 64.8386 376.822 64.6781 376.865 64.4521C379.18 52.055 377.134 39.4379 377.312 26.9279C377.334 25.376 377.393 23.8241 377.495 22.2782C377.597 20.7323 377.7 19.2458 378.087 17.801C378.432 16.5286 379.078 15.2918 380.155 14.62C380.887 14.1621 381.921 13.9124 382.599 14.6081C383.326 15.3513 383.509 16.5821 383.536 17.6167C383.579 19.228 383.229 20.8215 382.992 22.3971C382.513 25.5187 382.179 28.6641 381.964 31.8213C381.528 38.2666 381.673 44.7357 382.341 51.1572C382.949 57.0257 383.805 63.1975 381.7 68.8401C381.237 70.0769 380.634 71.2363 379.87 72.2709C379.148 73.246 378.227 74.2865 377.048 74.4946C375.869 74.7028 374.738 73.8228 373.812 73.0736C372.886 72.3244 372.014 71.4979 371.179 70.6298C367.674 66.9969 364.928 62.5732 362.241 58.209C359.275 53.3928 356.227 48.6897 352.754 44.2957C349.281 39.9017 345.206 35.371 341.248 31.1078C340.274 30.0554 339.294 29.0089 338.314 27.9624C338.104 27.7365 336.801 26.916 336.715 27.7841C335.541 39.6995 337.312 51.7815 335.627 63.6494C335.164 66.9315 334.41 70.1542 333.29 73.2341L335.325 73.9952C332.789 68.305 329.435 63.1262 325.456 58.5538C325.149 58.1971 324.341 57.7214 323.954 58.1792C323.534 58.6668 324.175 59.4695 324.455 59.7906L324.438 59.8143Z" fill="#E30613"/>
</g>
<path d="M199.122 141.488H206.01C207.213 140.176 208.06 138.864 208.552 137.552C209.099 136.185 209.372 134.19 209.372 131.566V93.6H220.606V127.466C220.606 130.254 220.524 132.441 220.36 134.026C220.251 135.557 219.923 137.443 219.376 139.684C218.447 143.675 215.877 147.447 211.668 151H193.464C189.255 147.556 186.685 143.784 185.756 139.684C184.936 136.349 184.526 132.277 184.526 127.466V93.6H195.76V131.566C195.76 134.19 196.006 136.185 196.498 137.552C197.045 138.864 197.919 140.176 199.122 141.488ZM228.098 151V93.6H239.332V141.488H256.388V151H228.098ZM264.671 103.44H252.289V93.6H288.205V103.44H275.823V151H264.671V103.44ZM307.147 141.488H314.035C315.238 140.176 316.085 138.864 316.577 137.552C317.124 136.185 317.397 134.19 317.397 131.566V93.6H328.631V127.466C328.631 130.254 328.549 132.441 328.385 134.026C328.276 135.557 327.948 137.443 327.401 139.684C326.472 143.675 323.903 147.447 319.693 151H301.489C297.28 147.556 294.711 143.784 293.781 139.684C292.961 136.349 292.551 132.277 292.551 127.466V93.6H303.785V131.566C303.785 134.19 304.031 136.185 304.523 137.552C305.07 138.864 305.945 140.176 307.147 141.488ZM336.124 93.6H357.936C361.38 94.748 364.304 96.88 366.71 99.996C369.17 103.057 370.4 106.829 370.4 111.312C370.4 118.637 367.502 124.022 361.708 127.466L369.99 151H358.51L351.54 130.09H347.194V151H336.124V93.6ZM347.194 103.44V120.906H354.246C355.175 120.687 356.186 119.758 357.28 118.118C358.428 116.423 359.002 114.455 359.002 112.214C359.002 109.973 358.51 108.005 357.526 106.31C356.596 104.615 355.667 103.659 354.738 103.44H347.194ZM376.323 151V93.6H405.761V103.44H387.557V117.134H403.793V126.646H387.557V141.488H406.089V151H376.323ZM425.571 151V93.6H436.805V151H425.571ZM470.293 151L454.959 119.266L454.549 119.43L455.041 129.106V151H444.709V93.6H452.991L468.079 126.564L468.489 126.4L467.587 116.314V93.6H477.919V151H470.293ZM510.074 141.488H517.454C518.985 139.575 520.188 136.787 521.062 133.124C521.992 129.461 522.456 125.826 522.456 122.218C522.456 113.635 520.844 107.376 517.618 103.44H510.074V141.488ZM498.922 151V93.6H522.702C530.465 100.488 534.346 109.836 534.346 121.644C534.346 133.397 530.711 143.183 523.44 151H498.922ZM540.723 151V93.6H570.161V103.44H551.957V117.134H568.193V126.646H551.957V141.488H570.489V151H540.723ZM581.286 93.6H600.966V103.44H585.222L584.976 103.932L598.096 127.876C600.774 132.687 602.114 136.349 602.114 138.864C602.114 144.385 600.282 148.431 596.62 151H574.89V141.488H591.864L592.11 140.996L577.35 114.51C575.218 110.683 574.152 107.567 574.152 105.162C574.152 99.4767 576.53 95.6227 581.286 93.6ZM607.829 151V93.6H619.063V151H607.829ZM654.191 151H636.807C632.871 147.392 630.001 143.101 628.197 138.126C626.393 133.151 625.491 127.958 625.491 122.546C625.491 117.079 626.585 111.695 628.771 106.392C630.958 101.089 634.019 96.8253 637.955 93.6H657.881V103.44H642.629C641.208 105.08 639.978 107.677 638.939 111.23C637.901 114.729 637.381 118.473 637.381 122.464C637.381 126.4 637.846 130.172 638.775 133.78C639.759 137.333 640.962 139.903 642.383 141.488H650.255V119.184H661.079V132.96C661.079 140.504 658.783 146.517 654.191 151ZM693.071 151L677.737 119.266L677.327 119.43L677.819 129.106V151H667.487V93.6H675.769L690.857 126.564L691.267 126.4L690.365 116.314V93.6H700.697V151H693.071Z" fill="#E30613"/>
<defs>
<clipPath id="clip0_31_469">
<rect width="78" height="62" fill="white" transform="translate(245.797 11.8672)"/>
</clipPath>
<clipPath id="clip1_31_469">
<rect width="62" height="65" fill="white" transform="translate(323.797 11.8672)"/>
</clipPath>
</defs>
</svg>
